<svg xmlns="http://www.w3.org/2000/svg" width="32.896" height="30.96" viewBox="0 0 32.896 30.96"><defs><style>.a{fill:#fff;}</style></defs><g transform="translate(0 -13.148)"><path class="a" d="M32.706,19.053a1.055,1.055,0,0,0-.82-.451l-20.406-.88a1.055,1.055,0,0,0-.091,2.109l19.024.82L26.673,32.323H10.027L7.02,15.948a1.055,1.055,0,0,0-.652-.792L1.442,13.221a1.056,1.056,0,1,0-.772,1.965l4.38,1.721,3.06,16.662a1.056,1.056,0,0,0,1.038.865h.508L8.5,37.653a.88.88,0,0,0,.827,1.177h.813a3.166,3.166,0,1,0,4.707,0h6.9a3.166,3.166,0,1,0,4.707,0h.989a.88.88,0,1,0,0-1.759H10.575l.95-2.639H27.442a1.055,1.055,0,0,0,1-.733l4.4-13.721A1.053,1.053,0,0,0,32.706,19.053ZM12.49,42.35A1.407,1.407,0,1,1,13.9,40.942,1.409,1.409,0,0,1,12.49,42.35Zm11.61,0a1.407,1.407,0,1,1,1.407-1.407A1.409,1.409,0,0,1,24.1,42.35Z" transform="translate(0)"/></g></svg>