<svg xmlns="http://www.w3.org/2000/svg" width="22.314" height="35" viewBox="0 0 22.314 35"><defs><style>.a{fill:#c7c1c8;}.b{fill:#7d3b8a;}</style></defs><g transform="translate(266 -10112)"><g transform="translate(-266 10112)"><path class="a" d="M225.528,40.942a.42.42,0,0,1,.442-.421h10.715V39.414a.427.427,0,0,0-.449-.421H224.442a.42.42,0,0,0-.442.421V53.9l1.528-1.21Z" transform="translate(-215.288 -38.076)"/><path class="a" d="M123.528,426.834a.306.306,0,0,1,.306-.306H133v-1.223A.306.306,0,0,0,132.7,425H122.306a.306.306,0,0,0-.306.306v3.057a.306.306,0,0,0,.306.306h1.223Z" transform="translate(-121.083 -394.585)"/><path class="a" d="M147.528,195.964a1.748,1.748,0,0,1,.487-1.218l3.028-2.508v-2.03l-4.556,3.774A1.748,1.748,0,0,0,146,195.2v12.034h1.528Z" transform="translate(-143.249 -177.736)"/><path class="a" d="M258.431,129.952a4.075,4.075,0,0,1-3.239-6.552,4.076,4.076,0,1,0,5.713,5.713,4.056,4.056,0,0,1-2.474.84Z" transform="translate(-242.616 -116.033)"/><path class="b" d="M251.579,105.411a5,5,0,1,0-5,5A4.995,4.995,0,0,0,251.579,105.411Zm-9.073,0a4.078,4.078,0,1,1,4.078,4.078,4.078,4.078,0,0,1-4.078-4.078Z" transform="translate(-231.533 -94.806)"/><path class="b" d="M111.223,196.448h10.4a1.2,1.2,0,0,0,1.218-1.2v-3.076a1.228,1.228,0,0,0-1.218-1.232h-.234v-2.538a2.642,2.642,0,0,0,2.216-2.638v-2.848h-.917v2.848a1.761,1.761,0,0,1-1.759,1.76.457.457,0,0,0-.457.459v2.957h-7.718V178.912a1.748,1.748,0,0,1,.487-1.218l5.331-4.415-.585-.706L112.633,177a.429.429,0,0,0-.033.032,2.66,2.66,0,0,0-.766,1.876v12.034h-.611A1.232,1.232,0,0,0,110,192.178v3.076a1.2,1.2,0,0,0,1.223,1.2Zm10.7-1.223a.306.306,0,0,1-.306.306H111.223a.306.306,0,0,1-.306-.306v-3.057a.306.306,0,0,1,.306-.306h10.393a.306.306,0,0,1,.306.306Z" transform="translate(-110 -161.448)"/><path class="b" d="M131.065,434.483a1.4,1.4,0,1,0-1.366-1.4A1.4,1.4,0,0,0,131.065,434.483Zm0-1.875a.48.48,0,1,1-.449.479.465.465,0,0,1,.449-.479Z" transform="translate(-128.194 -400.765)"/><path class="b" d="M213.223,48.93h11.931a1.351,1.351,0,0,0,1.366-1.346V28.336A1.344,1.344,0,0,0,225.154,27H213.359A1.338,1.338,0,0,0,212,28.336V43.81h.917V28.336a.42.42,0,0,1,.442-.421h11.795a.427.427,0,0,1,.449.421V47.584a.433.433,0,0,1-.449.429H213.223Z" transform="translate(-204.205 -26.998)"/><path class="b" d="M180.977,218.559a2.125,2.125,0,0,0,0-3l-.392-.392a.459.459,0,0,0-.609-.035l-5.329,4.219a.459.459,0,0,0,.569.719l5.009-3.966.1.1a1.207,1.207,0,0,1,0,1.7l-2.353,2.353a.458.458,0,0,0-.134.3l-.03.513c0,.009,0,.018,0,.027a2.667,2.667,0,0,0,.263,1.139,2.556,2.556,0,0,1-.192,2.49.465.465,0,0,0-.083.254v1.109a.459.459,0,0,0,.917,0v-.976a3.439,3.439,0,0,0,.182-3.267,1.758,1.758,0,0,1-.173-.737l.02-.325Z" transform="translate(-169.546 -200.661)"/><g transform="translate(13.679 8.133)"><path class="b" d="M118.7,2.337a6.2,6.2,0,0,0-.629-.285,1.412,1.412,0,0,1-.345-.193.3.3,0,0,1,.074-.535.606.606,0,0,1,.211-.044,1.605,1.605,0,0,1,.795.157c.125.061.167.041.209-.089s.082-.278.123-.418a.146.146,0,0,0-.095-.194,2.021,2.021,0,0,0-.5-.15c-.227-.035-.227-.036-.228-.265,0-.322,0-.322-.324-.322-.047,0-.094,0-.14,0-.151,0-.176.031-.181.183,0,.068,0,.136,0,.205,0,.2,0,.2-.2.269a1.078,1.078,0,0,0-.787,1,1.024,1.024,0,0,0,.579.979,6.4,6.4,0,0,0,.724.325,1.075,1.075,0,0,1,.264.155.361.361,0,0,1-.086.633.867.867,0,0,1-.464.061,2.073,2.073,0,0,1-.708-.211c-.131-.068-.169-.05-.214.091-.038.122-.072.245-.106.369-.046.166-.029.205.13.283a2.26,2.26,0,0,0,.638.183c.172.028.177.035.18.214,0,.081,0,.163,0,.243a.145.145,0,0,0,.155.164c.119,0,.239,0,.358,0a.136.136,0,0,0,.148-.154c0-.111.005-.222,0-.333a.176.176,0,0,1,.152-.2,1.2,1.2,0,0,0,.626-.4A1.129,1.129,0,0,0,118.7,2.337Z" transform="translate(-116.652 0)"/></g></g></g></svg>