<svg xmlns="http://www.w3.org/2000/svg" width="98" height="98" viewBox="0 0 98 98"><defs><style>.a{fill:#7d3b8a;}.b{fill:#fff;}</style></defs><g transform="translate(-907 -565)"><g transform="translate(0 33)"><circle class="a" cx="49" cy="49" r="49" transform="translate(907 532)"/></g><g transform="translate(928.301 589.037)"><g transform="translate(0 3.316)"><path class="b" d="M315.2,31.7a54.989,54.989,0,0,0-19.681,14.34H299.7A52.934,52.934,0,0,1,316.76,34.364C318.586,33.583,317.011,30.924,315.2,31.7Z" transform="translate(-262.613 -28.413)"/><path class="b" d="M31.6,175.462H0a27.331,27.331,0,0,0,54.662,0H31.6Z" transform="translate(0 -156.293)"/><rect class="b" width="54.662" height="4.632" transform="translate(0 49.588)"/><path class="b" d="M142.779,14.928c.029-.067.046-.131.068-.193a1.614,1.614,0,0,1,.1-.177,1.134,1.134,0,0,1,.1-.161c.043-.05.078-.1.112-.144a.6.6,0,0,1,.119-.133,1.3,1.3,0,0,0,.117-.124,3.177,3.177,0,0,0,.271-.245,2.656,2.656,0,0,0,.323-.26,1.374,1.374,0,0,0,.3-.206,1.152,1.152,0,0,1,.121-.091l.154-.11c.1-.072.2-.149.306-.225l.226-.169.395-.3a6.814,6.814,0,0,0,1.379-1.585,5.65,5.65,0,0,0,.776-2.011,5.188,5.188,0,0,0-.03-1.965,5.02,5.02,0,0,0-.594-1.517,4.83,4.83,0,0,0-1.565-1.622,4.042,4.042,0,0,0-.561-.292,1.576,1.576,0,0,0-.214-.078s0,.078-.007.223-.019.35-.029.593a11.861,11.861,0,0,1-.222,1.8,4.992,4.992,0,0,1-.286.92,3.758,3.758,0,0,1-.418.744,5.71,5.71,0,0,1-.522.611c-.2.2-.422.41-.682.629L142.3,9l-.051.042-.013.01-.116.091-.009.008-.036.032-.142.126c-.095.084-.189.168-.28.255l-.138.129a1.8,1.8,0,0,0-.158.161c-.259.284-.5.579-.727.875-.189.309-.361.619-.514.926-.068.17-.127.344-.182.514a3.648,3.648,0,0,0-.143.511c-.03.179-.055.356-.072.529l-.025.256c0,.085,0,.173.007.258a3.663,3.663,0,0,0,.141.961c.045.148.08.294.135.427s.113.26.178.38a3.851,3.851,0,0,0,.411.63,4.972,4.972,0,0,0,.447.468,5.281,5.281,0,0,0,.44.331,4.314,4.314,0,0,0,.4.224,3.456,3.456,0,0,0,.6.217,1.467,1.467,0,0,0,.224.043l-.028-.222c-.021-.137-.029-.349-.046-.586,0-.117-.007-.246-.01-.387l.015-.425A3.561,3.561,0,0,1,142.779,14.928Z" transform="translate(-124.137 -3.316)"/><path class="b" d="M222.28,14.928c.029-.067.046-.131.068-.193a1.652,1.652,0,0,1,.1-.177,1.123,1.123,0,0,1,.1-.161c.043-.05.078-.1.112-.144a.607.607,0,0,1,.119-.133,1.291,1.291,0,0,0,.118-.124,3.194,3.194,0,0,0,.271-.245,2.671,2.671,0,0,0,.323-.26,1.375,1.375,0,0,0,.3-.206,1.143,1.143,0,0,1,.121-.091l.154-.11c.1-.072.2-.149.306-.225l.226-.169.395-.3a6.809,6.809,0,0,0,1.379-1.585,5.651,5.651,0,0,0,.776-2.011,5.188,5.188,0,0,0-.03-1.965,5.021,5.021,0,0,0-.594-1.517,4.831,4.831,0,0,0-1.565-1.622,4.024,4.024,0,0,0-.561-.292,1.576,1.576,0,0,0-.214-.078l-.007.223c0,.138-.019.35-.029.593a11.849,11.849,0,0,1-.222,1.8,5.012,5.012,0,0,1-.286.92,3.752,3.752,0,0,1-.418.744,5.714,5.714,0,0,1-.522.611c-.2.2-.422.41-.682.629L221.8,9l-.051.042-.013.01-.116.091-.009.008-.036.032-.142.126c-.095.084-.189.168-.28.255l-.138.129a1.792,1.792,0,0,0-.158.161c-.259.284-.5.579-.727.875-.189.309-.361.619-.514.926-.068.17-.127.344-.182.514a3.661,3.661,0,0,0-.143.511c-.03.179-.055.356-.072.529-.008.086-.017.171-.025.256s0,.173.007.258a3.662,3.662,0,0,0,.141.961c.044.148.08.294.135.427s.113.26.178.38a3.874,3.874,0,0,0,.411.63,4.99,4.99,0,0,0,.447.468,5.261,5.261,0,0,0,.44.331,4.31,4.31,0,0,0,.4.224,3.456,3.456,0,0,0,.6.217,1.467,1.467,0,0,0,.225.043l-.028-.222c-.021-.137-.029-.349-.046-.586,0-.117-.007-.246-.011-.387s.01-.273.015-.425A3.531,3.531,0,0,1,222.28,14.928Z" transform="translate(-194.786 -3.316)"/></g></g></g></svg>