<svg xmlns="http://www.w3.org/2000/svg" width="33.358" height="32.757" viewBox="0 0 33.358 32.757"><defs><style>.a{fill:#7d3b8a;stroke-width:0.1px;}.a,.b{stroke:#7d3b8a;}.b{fill:none;stroke-miterlimit:10;}</style></defs><g transform="translate(-1043.699 -979.786)"><g transform="translate(1051.727 991.417)"><g transform="translate(5.14 5.237)"><g transform="translate(0 0)"><rect class="a" width="0.754" height="0.754" transform="translate(0 0)"/></g></g><g transform="translate(5.141 6.745)"><g transform="translate(0 0)"><rect class="a" width="0.754" height="0.754" transform="translate(0 0)"/></g></g><g transform="translate(5.14 7.499)"><g transform="translate(0 0)"><rect class="a" width="0.754" height="0.754" transform="translate(0 0)"/></g></g><g transform="translate(5.14 3.73)"><g transform="translate(0)"><rect class="a" width="0.754" height="0.754" transform="translate(0 0)"/></g></g><g transform="translate(5.14 2.222)"><g transform="translate(0 0)"><rect class="a" width="0.754" height="0.754" transform="translate(0 0)"/></g></g><g transform="translate(5.141 1.468)"><g transform="translate(0 0)"><rect class="a" width="0.754" height="0.754" transform="translate(0 0)"/></g></g><g transform="translate(1.371 1.468)"><g transform="translate(0 0)"><rect class="a" width="0.754"/></g></g><g transform="translate(14.941 1.468)"><g transform="translate(0 0)"><rect class="a" width="0.754" transform="translate(0)"/></g></g><g transform="translate(14.941 7.499)"><g transform="translate(0 0)"><rect class="a" width="0.754" height="0.754" transform="translate(0)"/></g></g><g transform="translate(1.371 7.499)"><g transform="translate(0 0)"><rect class="a" width="0.754" height="0.754"/></g></g><g transform="translate(0 0)"><g transform="translate(0 0)"><path class="a" d="M16.3,107.316a.276.276,0,0,0,.276-.276v-2.763A.276.276,0,0,0,16.3,104H.276a.276.276,0,0,0-.276.276v2.763a.276.276,0,0,0,.276.276,1.382,1.382,0,1,1,0,2.763.276.276,0,0,0-.276.276v2.763a.276.276,0,0,0,.276.276H16.3a.276.276,0,0,0,.276-.276v-2.763a.276.276,0,0,0-.276-.276,1.382,1.382,0,1,1,0-2.763Zm-1.916,1.657a1.934,1.934,0,0,0,1.64,1.64v2.23H.553v-2.23a1.934,1.934,0,0,0,0-3.83v-2.23H16.028v2.23A1.934,1.934,0,0,0,14.388,108.973Z" transform="translate(0 -104)"/></g></g><g transform="translate(7.185 1.934)"><g transform="translate(0 0)"><path class="a" d="M209.105,160a1.105,1.105,0,1,0,1.105,1.105A1.105,1.105,0,0,0,209.105,160Zm0,1.658a.553.553,0,1,1,.553-.553A.553.553,0,0,1,209.105,161.658Z" transform="translate(-208 -160)"/></g></g><g transform="translate(10.501 5.25)"><path class="a" d="M305.105,256a1.105,1.105,0,1,0,1.105,1.105A1.105,1.105,0,0,0,305.105,256Zm0,1.658a.553.553,0,1,1,.553-.553A.553.553,0,0,1,305.105,257.658Z" transform="translate(-304 -256)"/></g><g transform="translate(7.542 2.291)"><g transform="translate(0 0)"><rect class="a" width="6.253" height="0.553" transform="translate(0 4.421) rotate(-45)"/></g></g></g><path class="b" d="M-77.42-126.551h0a3.987,3.987,0,0,0,4.876,2.348h0a3.987,3.987,0,0,1,4.624,5.8h0a3.987,3.987,0,0,0,1.2,5.276h0a3.987,3.987,0,0,1-1.65,7.231h0a3.987,3.987,0,0,0-3.374,4.231h0a3.987,3.987,0,0,1-6.682,3.218h0a3.987,3.987,0,0,0-5.412,0h0a3.987,3.987,0,0,1-6.682-3.218h0a3.987,3.987,0,0,0-3.374-4.231h0a3.987,3.987,0,0,1-1.65-7.231h0a3.987,3.987,0,0,0,1.2-5.276h0a3.987,3.987,0,0,1,4.624-5.8h0a3.987,3.987,0,0,0,4.876-2.348h0A3.987,3.987,0,0,1-77.42-126.551Z" transform="translate(1141.506 1109.36)"/></g></svg>