<svg xmlns="http://www.w3.org/2000/svg" xmlns:xlink="http://www.w3.org/1999/xlink" width="250" height="250" viewBox="0 0 250 250"><defs><style>.a,.aa,.ba,.bc,.n,.r{fill:none;}.a{stroke:#707070;}.b{clip-path:url(#a);}.ah,.c,.f,.k{fill:#fff;}.d{fill:#dbba9c;}.e,.g{fill:#bb282f;}.f{opacity:0.2;}.ah,.au,.f,.k{mix-blend-mode:soft-light;}.ad,.ah,.ai,.au,.f,.g,.i,.k,.p{isolation:isolate;}.ad,.ai,.g,.i,.p{mix-blend-mode:multiply;}.h,.i{fill:#dcd5b5;}.j{fill:#fffbd4;}.l{fill:#c7c2a6;}.m{fill:#ded7b7;}.n{stroke:#fff;stroke-width:1.166px;}.aa,.n,.r{stroke-miterlimit:10;}.o{opacity:0.1;}.p{fill:#96999c;}.q{fill:#59000d;}.r{stroke:#59000d;stroke-width:1.256px;}.s{fill:#f1807b;}.t{fill:#f77c22;}.u{fill:#85bf69;}.v{fill:#fe9d2b;}.w{fill:#9ec224;}.x{fill:#55b2b0;}.y{fill:#8ba43d;}.z{fill:#e4393d;}.aa{stroke:#8ba43d;stroke-width:1.009px;}.ab{fill:#00686f;}.ac,.ad{fill:#fca235;}.ad,.ah,.ay{opacity:0.5;}.ae{fill:#b96e2d;}.af{fill:#ffc837;}.ag{fill:#00adb9;}.ai{fill:#c7c9cb;}.aj{fill:#ec731d;}.ak{fill:#d3681b;}.al{fill:#ef832a;}.am{fill:#731e1e;}.an{fill:#501211;}.ao{fill:#601817;}.ap{fill:#96000e;}.aq{fill:#c20016;}.ar{fill:#e82118;}.as{fill:#ffc82e;}.at{fill:#ffd24c;}.av{fill:#719e29;}.aw{fill:#87ba30;}.ax{fill:#ed7923;}.ay{fill:#f9ae55;}.az{fill:#e5dab5;}.ba{stroke:#7d3b8a;stroke-width:3px;}.bb{stroke:none;}</style><clipPath id="a"><circle class="a" cx="108" cy="108" r="108" transform="translate(0.051 0.051)"/></clipPath></defs><g transform="translate(-562 -1880)"><g class="b" transform="translate(578.949 1896.949)"><g transform="translate(13.961 17.637)"><rect class="c" width="187.59" height="187.59" transform="translate(0 0)"/><g transform="translate(19.997 53.13)"><path class="d" d="M-380.9,285.088c0,3.169-9.8,5.739-21.888,5.739s-21.89-2.569-21.89-5.739,9.8-5.736,21.89-5.736S-380.9,281.92-380.9,285.088Z" transform="translate(424.68 -182.115)"/><g transform="translate(2.365)"><path class="e" d="M-414.178,134.163l6.9,65.406h0c0,3.374,6.064,6.109,16.412,6.109s16.412-2.735,16.412-6.109l6.9-65.406Z" transform="translate(416.446 -100.981)"/><path class="f" d="M-393.12,210.144c6.119-2.182,6.624-9.98,6.9-15.527.248-5,.529-11.763-3.442-15.519-3.163-2.989-7.818-3.392-11.931-3.9a36.643,36.643,0,0,1-8.439-1.715l3.865,36.669a54.621,54.621,0,0,0,6.145.622A17.458,17.458,0,0,0-393.12,210.144Z" transform="translate(414.129 -122.954)"/><path class="g" d="M-414.178,134.163l1.273,12.074a27.673,27.673,0,0,0,10.745,2.309c4.718.243,10.274.005,14.6,2.22,6.766,3.464,7.21,13.214,6.995,19.807a81.012,81.012,0,0,1-1.665,13.723c-.917,4.441-2.443,8.608-7.054,10.312s-9.813,1.227-14.5.091a40.541,40.541,0,0,1-4.142-1.21l.641,6.08h0c0,3.374,6.064,6.109,16.412,6.109s16.412-2.735,16.412-6.109l6.9-65.406Z" transform="translate(416.446 -100.981)"/><path class="g" d="M-414.178,134.163l.694,6.573c1.4,1.534,3.852,2.173,5.761,2.549a51.644,51.644,0,0,0,10.091.773c3.971-.009,7.93-.351,11.9-.385,3.842-.034,7.6,1.487,9.071,5.255,2.622,6.687,1.1,14.2.345,21.1-.784,7.176-.63,14.413-1.546,21.585a13.976,13.976,0,0,1-1.839,6.037c-1.227,1.828-3.617,2.616-5.691,2.927a36.534,36.534,0,0,1-7.89.132,37.511,37.511,0,0,1-7.664-.874,15.192,15.192,0,0,1-6.735-4.057l.4,3.8c0,3.374,6.064,6.109,16.412,6.109s16.412-2.735,16.412-6.109l6.9-65.406Z" transform="translate(416.446 -100.981)"/><path class="h" d="M-419.319,125.726c0,3.7,11.451,6.705,25.576,6.705s25.576-3,25.576-6.705v-3.643h-51.152Z" transform="translate(419.319 -94.231)"/><path class="i" d="M-368.217,122.083c.415.265.805.5,1.124.694,1.973,1.22,3.909,2.333,5.034,4.474a6.536,6.536,0,0,1,.57,5.108c12.373-.468,21.879-3.26,21.879-6.634v-3.643Z" transform="translate(390.762 -94.231)"/><path class="j" d="M-368.167,113.592c0,3.7-11.451,6.7-25.576,6.7s-25.576-3-25.576-6.7,11.451-6.7,25.576-6.7S-368.167,109.889-368.167,113.592Z" transform="translate(419.319 -85.74)"/><path class="k" d="M-396.743,118.551c-2.709-1.223-5.072-3.974-4-7.15a5.769,5.769,0,0,1,1-1.8c-9.027.833-15.458,2.985-15.458,5.508,0,3.246,10.636,5.877,23.757,5.877,1.865,0,3.677-.053,5.419-.155C-389.578,120.526-393.479,120.026-396.743,118.551Z" transform="translate(417.015 -87.254)"/><path class="l" d="M-366.678,116.4c0,2.476-8.95,4.484-19.992,4.484s-19.991-2.008-19.991-4.484,8.951-4.484,19.991-4.484S-366.678,113.927-366.678,116.4Z" transform="translate(412.245 -88.551)"/><path class="m" d="M-366.45,117.7c0,2.273-8.567,4.118-19.136,4.118s-19.135-1.845-19.135-4.118,8.567-4.118,19.135-4.118S-366.45,115.424-366.45,117.7Z" transform="translate(411.161 -89.48)"/><g transform="translate(24.508 27.036)"><path class="l" d="M-356.714,121.234c0,.553-1.579,1-3.527,1s-3.526-.448-3.526-1,1.579-1,3.526-1S-356.714,120.681-356.714,121.234Z" transform="translate(363.768 -120.233)"/><path class="c" d="M-356.516,122.3c0,.386-1.247.7-2.786.7s-2.785-.313-2.785-.7,1.247-.7,2.785-.7S-356.516,121.913-356.516,122.3Z" transform="translate(362.829 -120.997)"/></g><path class="n" d="M-400.991,148.209c1.037,16.76,2.59,27.633,4.611,55.366" transform="translate(409.077 -108.83)"/><path class="c" d="M-390.739,278.93a1.358,1.358,0,0,1-1.358,1.358,1.358,1.358,0,0,1-1.357-1.358,1.358,1.358,0,0,1,1.357-1.357A1.358,1.358,0,0,1-390.739,278.93Z" transform="translate(404.865 -181.121)"/><g class="o" transform="translate(32.284 45.526)"><path class="c" d="M-345.338,162.842a3.808,3.808,0,0,1,3.252-.557,6.581,6.581,0,0,1,3.072,1.945,6.426,6.426,0,0,1,1.53,4.168,10.236,10.236,0,0,1,.353,4.586c-.2,1.145-.789,2.428-2.069,2.623a2.893,2.893,0,0,1-3.149-3.2c.063-1.3.428-2.357.1-3.67-.25-.995-1.463-1.792-2.2-2.413C-345.6,165.352-347.094,164.077-345.338,162.842Z" transform="translate(346.143 -162.143)"/><path class="c" d="M-336.135,196.625c0,.014.008-.061.011-.117s.006-.111.011-.164c0,0,0-.007,0-.01a1.129,1.129,0,0,1,.261-.721,1.165,1.165,0,0,1,.511-.381,1.427,1.427,0,0,1,.6-.373,1.189,1.189,0,0,1,1.275.442.938.938,0,0,1,.3.219,1.211,1.211,0,0,1,.093.109,1.137,1.137,0,0,1,.2.363c.007.015.015.03.02.045s.005.032.01.046.007.032.01.048a1.127,1.127,0,0,1-.145.814c-.019.03-.04.058-.06.084a1.118,1.118,0,0,1-.873.874c-.091.021-.187.041-.286.058a1.66,1.66,0,0,1-.233.091,1.317,1.317,0,0,1-.137.039h0a.921.921,0,0,1-.1.016c-.035.006-.069.014-.106.018a1.011,1.011,0,0,1-.774-.313,1.045,1.045,0,0,1-.42-.461,1.317,1.317,0,0,1-.163-.659C-336.139,196.67-336.137,196.647-336.135,196.625Z" transform="translate(340.554 -180.396)"/></g><g transform="translate(11.504 59.021)"><path class="p" d="M-364.767,204.12c0,5.223-5.874,9.456-13.122,9.456s-13.123-4.234-13.123-9.456,5.875-9.454,13.123-9.454S-364.767,198.9-364.767,204.12Z" transform="translate(391.997 -193.812)"/><path class="c" d="M-367,202.186c0,5.222-5.874,9.455-13.123,9.455s-13.123-4.233-13.123-9.455,5.874-9.455,13.123-9.455S-367,196.964-367,202.186Z" transform="translate(393.244 -192.731)"/><g transform="translate(3.901 4.129)"><path class="q" d="M-379.285,208.991a1.864,1.864,0,0,1-.245.983,2.254,2.254,0,0,1-.618.673,2.612,2.612,0,0,1-.815.39,3.152,3.152,0,0,1-.827.122,3.137,3.137,0,0,1-.9-.139,2.694,2.694,0,0,1-.842-.422,2.313,2.313,0,0,1-.623-.711,1.972,1.972,0,0,1-.245-1,3.287,3.287,0,0,1,.026-.412,1.219,1.219,0,0,1,.1-.346.578.578,0,0,1,.207-.241.657.657,0,0,1,.362-.09,1.939,1.939,0,0,1,.218.016c.09.012.173.084.25.22a2.059,2.059,0,0,0-.074.934,1.619,1.619,0,0,0,.3.716,1.545,1.545,0,0,0,.559.458,1.592,1.592,0,0,0,.718.166,1.451,1.451,0,0,0,.975-.3,1.079,1.079,0,0,0,.356-.87,2.182,2.182,0,0,0-.165-.859,2.993,2.993,0,0,0-.431-.722,5.106,5.106,0,0,0-.591-.619c-.217-.192-.428-.378-.639-.556s-.4-.353-.585-.523a2.111,2.111,0,0,1-.42-.534c-.029-.049-.065-.112-.112-.187a2.861,2.861,0,0,1-.139-.251,1.889,1.889,0,0,1-.116-.294,1.028,1.028,0,0,1-.048-.315,1.335,1.335,0,0,1,.2-.705,2.233,2.233,0,0,1,.506-.576,2.6,2.6,0,0,1,.655-.389,1.676,1.676,0,0,1,.638-.145,1.946,1.946,0,0,1,.852.165,1.5,1.5,0,0,1,.549.438,1.655,1.655,0,0,1,.293.63,3.212,3.212,0,0,1,.085.743,3.669,3.669,0,0,1-.021.394,1.105,1.105,0,0,1-.09.343.558.558,0,0,1-.206.24.663.663,0,0,1-.37.09.448.448,0,0,1-.217-.079.607.607,0,0,1-.185-.155,4.821,4.821,0,0,1,.016-.6,4.327,4.327,0,0,0,0-.641.5.5,0,0,0-.112-.228,1.674,1.674,0,0,0-.246-.257,1.594,1.594,0,0,0-.293-.2.558.558,0,0,0-.245-.081.371.371,0,0,0-.294.145,1.18,1.18,0,0,0-.2.325,2.243,2.243,0,0,0-.113.343,1.252,1.252,0,0,0-.037.2,1.159,1.159,0,0,0,.234.716,3.358,3.358,0,0,0,.59.593q.357.282.773.588a5.245,5.245,0,0,1,.771.694,3.492,3.492,0,0,1,.591.9A2.933,2.933,0,0,1-379.285,208.991Z" transform="translate(384.401 -202.295)"/><path class="q" d="M-367.695,209.641c0,.128-.011.3-.032.518a5.765,5.765,0,0,1-.118.7,5.6,5.6,0,0,1-.235.763,2.741,2.741,0,0,1-.4.705,2.014,2.014,0,0,1-.587.513,1.572,1.572,0,0,1-.8.2.643.643,0,0,0-.176.026.678.678,0,0,1-.2.026,1.331,1.331,0,0,1-.7-.181,1.788,1.788,0,0,1-.513-.47,2.484,2.484,0,0,1-.342-.646,5.351,5.351,0,0,1-.2-.721,5.676,5.676,0,0,1-.1-.684q-.026-.319-.026-.533c0-.206.009-.446.026-.721a6.328,6.328,0,0,1,.112-.838,5.278,5.278,0,0,1,.246-.845,2.6,2.6,0,0,1,.432-.741,2.1,2.1,0,0,1,.662-.524,2.08,2.08,0,0,1,.945-.2,1.312,1.312,0,0,1,.774.229,1.94,1.94,0,0,1,.544.588,3.574,3.574,0,0,1,.358.79,6.05,6.05,0,0,1,.209.838c.046.271.078.514.1.732S-367.695,209.541-367.695,209.641Zm-1.121-.267c-.036-.207-.069-.433-.1-.679a5.852,5.852,0,0,0-.144-.736,3.941,3.941,0,0,0-.267-.722,2.37,2.37,0,0,0-.459-.641.438.438,0,0,0-.224-.112.748.748,0,0,0-.225-.016,1.057,1.057,0,0,0-.283.465,7.614,7.614,0,0,0-.267.844c-.082.318-.147.637-.2.956a5.383,5.383,0,0,0-.075.8c0,.057.006.17.016.341s.033.371.07.6.083.466.144.714a3.679,3.679,0,0,0,.24.694,1.657,1.657,0,0,0,.368.524.737.737,0,0,0,.518.2.412.412,0,0,0,.3-.127,1.039,1.039,0,0,0,.214-.326,2.811,2.811,0,0,0,.144-.439c.039-.159.072-.316.1-.469s.052-.292.07-.417a1.381,1.381,0,0,1,.059-.273.475.475,0,0,0-.006-.058c0-.026-.007-.076-.01-.155s-.006-.193-.006-.341S-368.831,209.645-368.816,209.374Z" transform="translate(377.542 -204.269)"/><path class="q" d="M-357.254,210.337a.717.717,0,0,1-.112.293.618.618,0,0,1-.176.171.7.7,0,0,1-.2.081.954.954,0,0,1-.187.02,1.067,1.067,0,0,1-.2-.016.225.225,0,0,1-.134-.08.535.535,0,0,1-.091-.182,2.216,2.216,0,0,1-.069-.319,4.442,4.442,0,0,1-.881.469,2.139,2.139,0,0,1-.732.128h-.288a.683.683,0,0,1-.225-.036.788.788,0,0,1-.219-.13,1.952,1.952,0,0,1-.262-.272,1.164,1.164,0,0,1-.207-.389c-.054-.161-.095-.3-.123-.422q-.054-.278-.091-.652c-.025-.25-.042-.492-.053-.726s-.018-.439-.021-.614-.005-.28-.005-.315c0-.17.015-.395.042-.672a4.735,4.735,0,0,1,.166-.839,3.185,3.185,0,0,1,.346-.785,1.254,1.254,0,0,1,.578-.512c.106-.05.206-.1.3-.139a2.6,2.6,0,0,1,.282-.112,2.55,2.55,0,0,1,.32-.081,2.414,2.414,0,0,1,.422-.031,1.776,1.776,0,0,1,.263.027,1.915,1.915,0,0,1,.335.079.773.773,0,0,0,.033-.3c-.008-.122-.019-.228-.033-.32s-.018-.173-.031-.284-.026-.217-.038-.32-.022-.2-.033-.283a1.684,1.684,0,0,1-.015-.182.27.27,0,0,1,.079-.176.869.869,0,0,1,.193-.159,1.522,1.522,0,0,1,.229-.117.543.543,0,0,1,.193-.049h.128a.163.163,0,0,1,.144.07,1.166,1.166,0,0,0,.134.154q.052.727.118,1.447c.042.48.064.964.064,1.448Zm-1.069-2.083-.053-2.777a.555.555,0,0,0-.128-.218,2.41,2.41,0,0,0-.284-.288,2.926,2.926,0,0,0-.341-.257.6.6,0,0,0-.315-.112.485.485,0,0,0-.363.154,1.386,1.386,0,0,0-.257.384,2.887,2.887,0,0,0-.176.5q-.069.273-.107.507t-.058.555q.021.641.031.993c.007.236.011.411.011.529a1.259,1.259,0,0,1-.011.219.132.132,0,0,1-.031.064,2.418,2.418,0,0,1,.048.428,3.541,3.541,0,0,0,.037.439,2.207,2.207,0,0,0,.058.224,2.527,2.527,0,0,0,.128.332,2.036,2.036,0,0,0,.176.3.267.267,0,0,0,.213.134h.161a.608.608,0,0,0,.363-.165,2.977,2.977,0,0,0,.379-.375,4.012,4.012,0,0,0,.3-.406.972.972,0,0,0,.138-.261c.015-.078.028-.164.038-.256s.018-.182.022-.268.007-.163.01-.234S-358.322,208.283-358.322,208.253Z" transform="translate(371.618 -202.091)"/><path class="q" d="M-346.72,208.589q-.021.864-.021,1.339c0,.318,0,.552.005.705s.007.247.01.283.005.06.005.074q-.031.407-.031.839a1.9,1.9,0,0,1-.15.774.263.263,0,0,1-.079.086.85.85,0,0,1-.133.075.94.94,0,0,1-.155.048.661.661,0,0,1-.124.016h-.491c.007-.078.011-.164.011-.256a.864.864,0,0,0-.043-.267.718.718,0,0,1-.246.2,2.238,2.238,0,0,1-.347.15,2.5,2.5,0,0,1-.368.1,1.817,1.817,0,0,1-.3.032,1.391,1.391,0,0,1-.641-.133,1.23,1.23,0,0,1-.411-.336,1.254,1.254,0,0,1-.218-.45,1.842,1.842,0,0,1-.064-.471,2.5,2.5,0,0,1,.187-.965,2.935,2.935,0,0,1,.528-.839,3.62,3.62,0,0,1,.839-.683,5,5,0,0,1,1.127-.491,3.744,3.744,0,0,0-.091-.6,3.3,3.3,0,0,0-.24-.709,2.167,2.167,0,0,0-.4-.588.753.753,0,0,0-.566-.245.363.363,0,0,0-.251.09,1.488,1.488,0,0,0-.219.262,1.143,1.143,0,0,0-.161.391,3.374,3.374,0,0,0-.058.431c-.011.15-.019.3-.026.45a2.773,2.773,0,0,1-.054.427.764.764,0,0,1-.347.17,3.079,3.079,0,0,1-.4.021.9.9,0,0,1-.128-.005.679.679,0,0,0-.106,0v-.919a1.382,1.382,0,0,1,.213-.775,1.93,1.93,0,0,1,.54-.545,2.309,2.309,0,0,1,.71-.319,2.784,2.784,0,0,1,.716-.1,1.968,1.968,0,0,1,.982.209,1.457,1.457,0,0,1,.566.576,2.651,2.651,0,0,1,.283.87C-346.81,207.834-346.762,208.2-346.72,208.589Zm-1.067,2.584v-1.965a2.886,2.886,0,0,0-1.213.806,1.782,1.782,0,0,0-.443,1.191c0,.014.008.065.022.154a1.679,1.679,0,0,0,.075.283,1.2,1.2,0,0,0,.139.273.261.261,0,0,0,.225.121.242.242,0,0,0,.128-.075,1.953,1.953,0,0,0,.181-.182c.064-.07.128-.14.192-.208s.117-.123.16-.165a.621.621,0,0,1,.267-.162Z" transform="translate(365.665 -204.188)"/><path class="r" d="M-374.22,224.95a13.112,13.112,0,0,0,11.452.157" transform="translate(378.712 -214.865)"/></g></g><g transform="translate(26.665)"><path class="c" d="M-358.879,58.952V86.968c0,.272.649.495,1.446.495s1.447-.222,1.447-.495V58.952Z" transform="translate(358.879 -58.952)"/><path class="s" d="M-355.929,87.463c.09,0,.176,0,.26-.009v-28.5h-.519v28.5C-356.1,87.459-356.018,87.463-355.929,87.463Z" transform="translate(357.375 -58.952)"/><path class="s" d="M-358.359,87.345V58.952h-.52V86.968C-358.879,87.119-358.674,87.253-358.359,87.345Z" transform="translate(358.879 -58.952)"/><path class="s" d="M-353.5,58.952V87.345c.314-.092.519-.225.519-.377V58.952Z" transform="translate(355.872 -58.952)"/></g></g></g><g transform="translate(8.576 8.897)"><g transform="translate(118.625 6.881)"><path class="t" d="M-180.558-14.7a3.861,3.861,0,0,1,5.461,0,3.865,3.865,0,0,1,0,5.463,3.864,3.864,0,0,1-5.463,0A3.861,3.861,0,0,1-180.558-14.7Z" transform="translate(181.689 20.188)"/><path class="u" d="M-159.194-7.739a1.932,1.932,0,0,1,2.73,0,1.93,1.93,0,0,1,0,2.73,1.931,1.931,0,0,1-2.73,0A1.931,1.931,0,0,1-159.194-7.739Z" transform="translate(169.435 15.984)"/><path class="v" d="M-166.625-25.146a1.932,1.932,0,0,1,2.731,0,1.932,1.932,0,0,1,0,2.732,1.932,1.932,0,0,1-2.731,0A1.931,1.931,0,0,1-166.625-25.146Z" transform="translate(173.587 25.712)"/></g><g transform="translate(0 79.073)"><path class="w" d="M-433.84,155.9a3.861,3.861,0,0,1-3.862-3.861,3.863,3.863,0,0,1,3.862-3.863,3.863,3.863,0,0,1,3.862,3.863A3.861,3.861,0,0,1-433.84,155.9Z" transform="translate(443.378 -143.654)"/><path class="u" d="M-441.582,141.782a1.931,1.931,0,0,1-1.932-1.93,1.931,1.931,0,0,1,1.932-1.932,1.931,1.931,0,0,1,1.931,1.932A1.931,1.931,0,0,1-441.582,141.782Z" transform="translate(446.626 -137.921)"/><path class="v" d="M-448.638,159.346a1.931,1.931,0,0,1-1.93-1.932,1.931,1.931,0,0,1,1.93-1.931,1.931,1.931,0,0,1,1.931,1.931A1.931,1.931,0,0,1-448.638,159.346Z" transform="translate(450.568 -147.735)"/></g><g transform="translate(91.242 31.43)"><path class="w" d="M-227.028,47.916a3.861,3.861,0,0,1-3.862-3.861,3.863,3.863,0,0,1,3.862-3.863,3.863,3.863,0,0,1,3.862,3.863A3.861,3.861,0,0,1-227.028,47.916Z" transform="translate(236.566 -35.665)"/><path class="u" d="M-234.769,33.794a1.931,1.931,0,0,1-1.931-1.93,1.931,1.931,0,0,1,1.931-1.932,1.931,1.931,0,0,1,1.931,1.932A1.931,1.931,0,0,1-234.769,33.794Z" transform="translate(239.813 -29.932)"/><path class="v" d="M-241.825,51.358a1.931,1.931,0,0,1-1.931-1.931,1.932,1.932,0,0,1,1.931-1.931,1.931,1.931,0,0,1,1.931,1.931A1.931,1.931,0,0,1-241.825,51.358Z" transform="translate(243.756 -39.746)"/></g><g transform="translate(156.127 71.418)"><path class="x" d="M-95.554,131.583a3.863,3.863,0,0,1,5.462,0,3.864,3.864,0,0,1,0,5.462,3.863,3.863,0,0,1-5.464,0A3.863,3.863,0,0,1-95.554,131.583Z" transform="translate(96.686 -126.092)"/><path class="u" d="M-74.189,138.54a1.932,1.932,0,0,1,2.73,0,1.932,1.932,0,0,1,0,2.732,1.932,1.932,0,0,1-2.73,0A1.932,1.932,0,0,1-74.189,138.54Z" transform="translate(84.43 -130.296)"/><path class="v" d="M-81.619,121.136a1.932,1.932,0,0,1,2.731,0,1.933,1.933,0,0,1,0,2.732,1.93,1.93,0,0,1-2.73,0A1.929,1.929,0,0,1-81.619,121.136Z" transform="translate(88.582 -120.569)"/></g><g transform="translate(59.865 58.812)"><path class="x" d="M-313.745,103.01a3.863,3.863,0,0,1,5.462,0,3.865,3.865,0,0,1,0,5.462,3.863,3.863,0,0,1-5.464,0A3.863,3.863,0,0,1-313.745,103.01Z" transform="translate(314.877 -97.519)"/><path class="u" d="M-292.38,109.97a1.932,1.932,0,0,1,2.73,0,1.931,1.931,0,0,1,0,2.731,1.93,1.93,0,0,1-2.73,0A1.931,1.931,0,0,1-292.38,109.97Z" transform="translate(302.621 -101.724)"/><path class="v" d="M-299.81,92.563a1.931,1.931,0,0,1,2.731,0,1.931,1.931,0,0,1,0,2.731,1.929,1.929,0,0,1-2.73,0A1.929,1.929,0,0,1-299.81,92.563Z" transform="translate(306.773 -91.996)"/></g><g transform="translate(35.651 27.875)"><path class="y" d="M-353.774,38.376a3.12,3.12,0,0,1-3.12-3.12,3.12,3.12,0,0,1,3.12-3.12,3.12,3.12,0,0,1,3.12,3.12A3.12,3.12,0,0,1-353.774,38.376Z" transform="translate(362.57 -27.608)"/><path class="z" d="M-360.773,25.736a1.93,1.93,0,0,1-1.931-1.931,1.93,1.93,0,0,1,1.931-1.931,1.931,1.931,0,0,1,1.931,1.931A1.932,1.932,0,0,1-360.773,25.736Z" transform="translate(365.817 -21.874)"/><path class="v" d="M-367.829,43.3a1.93,1.93,0,0,1-1.931-1.931,1.931,1.931,0,0,1,1.931-1.931,1.93,1.93,0,0,1,1.931,1.931A1.93,1.93,0,0,1-367.829,43.3Z" transform="translate(369.76 -31.688)"/></g><g transform="translate(134.252 48.443)"><path class="aa" d="M-136.6,70.4a68.968,68.968,0,0,0-7.946,11.221" transform="translate(145.307 -69.56)"/><path class="aa" d="M-133.818,71.69A15.825,15.825,0,0,0-133.4,74.4" transform="translate(139.311 -70.28)"/><path class="aa" d="M-136.936,73.172c.079,1.235.53,2,.766,3.465" transform="translate(141.053 -71.108)"/><path class="aa" d="M-139.593,76.9c.26,1.281.529,1.879.9,3.165" transform="translate(142.538 -73.19)"/><path class="aa" d="M-142.038,79.165c.185,1.326.705,2.335,1.007,3.7" transform="translate(143.904 -74.457)"/><path class="aa" d="M-143.359,84.526c.034.9.594,1.747.688,2.666" transform="translate(144.642 -77.453)"/><path class="aa" d="M-144.887,87.527c.168.618.514,1.928.682,2.545" transform="translate(145.496 -79.13)"/><path class="aa" d="M-132.116,76.316a21.279,21.279,0,0,1,2.6-.655" transform="translate(138.36 -72.499)"/><path class="aa" d="M-133.95,79.431c.813-.185,1.872-.114,2.7-.358" transform="translate(139.384 -74.406)"/><path class="aa" d="M-135.995,82.262c.98-.05,1.958-.1,2.676-.115" transform="translate(140.527 -76.124)"/><path class="aa" d="M-138.538,85.735a23.613,23.613,0,0,0,3.012-.226" transform="translate(141.948 -78.002)"/><path class="aa" d="M-140.577,89.129c.934.055,2.332.094,3.017.1" transform="translate(143.088 -80.025)"/><path class="aa" d="M-142.373,92.311c.376.03,1.589.169,1.951.259" transform="translate(144.091 -81.804)"/><path class="aa" d="M-145.621,80.38c-2.137-3.163,1.08-12.592,8.717-11.843C-136.9,68.537-133.861,79.8-145.621,80.38Z" transform="translate(146.268 -68.494)"/></g><g transform="translate(130.151 81.145)"><path class="aa" d="M-145.9,144.523a68.979,68.979,0,0,0-7.946,11.222" transform="translate(154.602 -143.682)"/><path class="aa" d="M-143.112,145.812a15.8,15.8,0,0,0,.421,2.711" transform="translate(148.605 -144.402)"/><path class="aa" d="M-146.231,147.294c.079,1.234.531,2,.767,3.466" transform="translate(150.348 -145.23)"/><path class="aa" d="M-148.888,151.019c.26,1.28.529,1.879.9,3.166" transform="translate(151.833 -147.312)"/><path class="aa" d="M-151.333,153.288c.185,1.325.705,2.335,1.007,3.7" transform="translate(153.199 -148.58)"/><path class="aa" d="M-152.653,158.65c.034.9.593,1.745.687,2.664" transform="translate(153.937 -151.576)"/><path class="aa" d="M-154.182,161.651c.168.616.514,1.928.682,2.544" transform="translate(154.791 -153.253)"/><path class="aa" d="M-141.411,150.439a21.2,21.2,0,0,1,2.6-.655" transform="translate(147.655 -146.622)"/><path class="aa" d="M-143.245,153.552c.813-.184,1.872-.113,2.7-.357" transform="translate(148.679 -148.528)"/><path class="aa" d="M-145.289,156.383c.98-.05,1.958-.1,2.675-.115" transform="translate(149.822 -150.245)"/><path class="aa" d="M-147.833,159.858a23.784,23.784,0,0,0,3.013-.225" transform="translate(151.243 -152.126)"/><path class="aa" d="M-149.872,163.252c.934.054,2.332.093,3.017.1" transform="translate(152.383 -154.148)"/><path class="aa" d="M-151.668,166.432c.376.03,1.589.17,1.951.259" transform="translate(153.386 -155.925)"/><path class="aa" d="M-154.916,154.5c-2.137-3.162,1.08-12.591,8.717-11.843C-146.2,142.659-143.156,153.92-154.916,154.5Z" transform="translate(155.563 -142.616)"/></g><g transform="translate(29.464 79.669)"><path class="aa" d="M-374.118,141.177a68.946,68.946,0,0,0-7.946,11.222" transform="translate(382.823 -140.336)"/><path class="aa" d="M-371.333,142.465a15.784,15.784,0,0,0,.421,2.711" transform="translate(376.826 -141.056)"/><path class="aa" d="M-374.451,143.948c.079,1.235.53,2,.766,3.466" transform="translate(378.568 -141.884)"/><path class="aa" d="M-377.109,147.675c.26,1.28.529,1.878.9,3.165" transform="translate(380.054 -143.967)"/><path class="aa" d="M-379.554,149.941c.186,1.326.705,2.335,1.008,3.7" transform="translate(381.42 -145.233)"/><path class="aa" d="M-380.874,155.3c.034.9.594,1.747.687,2.664" transform="translate(382.158 -148.23)"/><path class="aa" d="M-382.4,158.3c.168.617.515,1.928.682,2.545" transform="translate(383.012 -149.907)"/><path class="aa" d="M-369.63,147.092a21.44,21.44,0,0,1,2.6-.655" transform="translate(375.874 -143.275)"/><path class="aa" d="M-371.465,150.207c.814-.185,1.871-.114,2.7-.359" transform="translate(376.9 -145.181)"/><path class="aa" d="M-373.51,153.038c.98-.05,1.958-.1,2.675-.115" transform="translate(378.043 -146.9)"/><path class="aa" d="M-376.054,156.512a23.6,23.6,0,0,0,3.013-.225" transform="translate(379.464 -148.78)"/><path class="aa" d="M-378.092,159.907c.934.054,2.332.094,3.016.1" transform="translate(380.603 -150.802)"/><path class="aa" d="M-379.889,163.086c.376.03,1.589.17,1.951.259" transform="translate(381.607 -152.579)"/><path class="aa" d="M-383.137,151.155c-2.137-3.162,1.081-12.592,8.717-11.843C-374.419,139.313-371.376,150.574-383.137,151.155Z" transform="translate(383.784 -139.27)"/></g><g transform="translate(160.72 22.739)"><path class="aa" d="M-83.977,12.137a68.9,68.9,0,0,1,7.945,11.222" transform="translate(84.991 -11.296)"/><path class="aa" d="M-77.23,13.426a15.8,15.8,0,0,1-.421,2.711" transform="translate(81.456 -12.017)"/><path class="aa" d="M-74.549,14.909c-.079,1.234-.53,2-.767,3.465" transform="translate(80.151 -12.845)"/><path class="aa" d="M-72.063,18.635c-.261,1.281-.529,1.878-.9,3.165" transform="translate(78.838 -14.927)"/><path class="aa" d="M-69.754,20.9c-.185,1.326-.7,2.335-1.007,3.7" transform="translate(77.606 -16.194)"/><path class="aa" d="M-68.027,26.264c-.034.9-.593,1.746-.687,2.664" transform="translate(76.462 -19.191)"/><path class="aa" d="M-66.49,29.263c-.168.618-.515,1.928-.682,2.546" transform="translate(75.6 -20.867)"/><path class="aa" d="M-81.69,18.052a21.4,21.4,0,0,0-2.6-.655" transform="translate(85.164 -14.236)"/><path class="aa" d="M-79.982,21.167c-.814-.185-1.872-.115-2.7-.359" transform="translate(84.267 -16.142)"/><path class="aa" d="M-77.909,24c-.98-.05-1.958-.1-2.675-.115" transform="translate(83.095 -17.86)"/><path class="aa" d="M-75.792,27.473a23.767,23.767,0,0,1-3.013-.225" transform="translate(82.101 -19.741)"/><path class="aa" d="M-73.761,30.866c-.934.055-2.331.094-3.016.1" transform="translate(80.968 -21.762)"/><path class="aa" d="M-70.614,34.047c-.377.03-1.589.169-1.952.258" transform="translate(78.615 -23.54)"/><path class="aa" d="M-77.2,22.116c2.138-3.163-1.08-12.592-8.717-11.843C-85.922,10.274-88.964,21.535-77.2,22.116Z" transform="translate(86.276 -10.231)"/></g><g transform="translate(67.59 91.558)"><path class="aa" d="M-295.067,168.125a68.934,68.934,0,0,1,7.945,11.222" transform="translate(296.081 -167.284)"/><path class="aa" d="M-288.32,169.415a15.793,15.793,0,0,1-.421,2.711" transform="translate(292.546 -168.005)"/><path class="aa" d="M-285.64,170.9c-.079,1.234-.53,2-.766,3.466" transform="translate(291.241 -168.833)"/><path class="aa" d="M-283.154,174.624c-.261,1.28-.529,1.877-.9,3.165" transform="translate(289.928 -170.916)"/><path class="aa" d="M-280.844,176.889c-.185,1.326-.7,2.335-1.007,3.7" transform="translate(288.696 -172.182)"/><path class="aa" d="M-279.117,182.252c-.034.9-.594,1.746-.688,2.665" transform="translate(287.553 -175.179)"/><path class="aa" d="M-277.581,185.251c-.169.618-.515,1.929-.682,2.546" transform="translate(286.691 -176.855)"/><path class="aa" d="M-292.78,174.04a21.412,21.412,0,0,0-2.6-.655" transform="translate(296.255 -170.224)"/><path class="aa" d="M-291.073,177.156c-.814-.185-1.872-.114-2.7-.359" transform="translate(295.358 -172.13)"/><path class="aa" d="M-289,179.987c-.98-.05-1.958-.1-2.676-.115" transform="translate(294.186 -173.849)"/><path class="aa" d="M-286.883,183.462a23.849,23.849,0,0,1-3.012-.225" transform="translate(293.191 -175.729)"/><path class="aa" d="M-284.851,186.854c-.934.055-2.331.094-3.016.1" transform="translate(292.058 -177.75)"/><path class="aa" d="M-281.7,190.036c-.377.03-1.589.169-1.952.259" transform="translate(289.705 -179.529)"/><path class="aa" d="M-288.3,178.1c2.138-3.163-1.08-12.592-8.717-11.843C-297.012,166.262-300.055,177.523-288.3,178.1Z" transform="translate(297.366 -166.219)"/></g><g transform="translate(8.783 50.353)"><path class="aa" d="M-428.361,74.733a69.032,69.032,0,0,1,7.945,11.221" transform="translate(429.375 -73.891)"/><path class="aa" d="M-421.615,76.021a15.813,15.813,0,0,1-.42,2.711" transform="translate(425.84 -74.61)"/><path class="aa" d="M-418.934,77.5c-.08,1.236-.53,2-.766,3.466" transform="translate(424.535 -75.437)"/><path class="aa" d="M-416.45,81.229c-.259,1.28-.528,1.879-.9,3.165" transform="translate(423.223 -77.521)"/><path class="aa" d="M-414.137,83.5c-.186,1.325-.706,2.335-1.008,3.7" transform="translate(421.99 -78.788)"/><path class="aa" d="M-412.41,88.858c-.034.9-.6,1.747-.688,2.665" transform="translate(420.846 -81.784)"/><path class="aa" d="M-410.876,91.858c-.169.617-.514,1.928-.683,2.544" transform="translate(419.986 -83.46)"/><path class="aa" d="M-426.073,80.647a21.2,21.2,0,0,0-2.6-.654" transform="translate(429.547 -76.83)"/><path class="aa" d="M-424.367,83.761c-.814-.184-1.872-.113-2.7-.357" transform="translate(428.652 -78.736)"/><path class="aa" d="M-422.293,86.594c-.98-.051-1.958-.1-2.675-.116" transform="translate(427.479 -80.454)"/><path class="aa" d="M-420.176,90.067a23.851,23.851,0,0,1-3.013-.226" transform="translate(426.485 -82.333)"/><path class="aa" d="M-418.145,93.461c-.934.055-2.331.094-3.016.1" transform="translate(425.352 -84.356)"/><path class="aa" d="M-415,96.641c-.376.03-1.588.17-1.952.258" transform="translate(422.999 -86.133)"/><path class="aa" d="M-421.589,84.709c2.137-3.162-1.079-12.591-8.717-11.843C-430.306,72.866-433.348,84.128-421.589,84.709Z" transform="translate(430.66 -72.824)"/></g><g transform="translate(98.109 61.058)"><path class="aa" d="M-225.893,99a68.833,68.833,0,0,1,7.945,11.221" transform="translate(226.907 -98.153)"/><path class="aa" d="M-219.147,100.284a15.826,15.826,0,0,1-.421,2.71" transform="translate(223.373 -98.873)"/><path class="aa" d="M-216.466,101.764c-.079,1.235-.53,2-.767,3.466" transform="translate(222.068 -99.7)"/><path class="aa" d="M-213.98,105.491c-.26,1.28-.529,1.878-.9,3.165" transform="translate(220.754 -101.783)"/><path class="aa" d="M-211.67,107.759c-.186,1.325-.705,2.333-1.008,3.7" transform="translate(219.522 -103.051)"/><path class="aa" d="M-209.942,113.12c-.034.9-.595,1.746-.689,2.665" transform="translate(218.378 -106.046)"/><path class="aa" d="M-208.406,116.121c-.169.617-.514,1.928-.682,2.544" transform="translate(217.517 -107.723)"/><path class="aa" d="M-223.6,104.908a21.558,21.558,0,0,0-2.6-.656" transform="translate(227.079 -101.091)"/><path class="aa" d="M-221.9,108.023c-.814-.184-1.871-.113-2.7-.358" transform="translate(226.183 -102.998)"/><path class="aa" d="M-219.826,110.854c-.979-.05-1.958-.1-2.675-.115" transform="translate(225.012 -104.716)"/><path class="aa" d="M-217.707,114.329a23.837,23.837,0,0,1-3.012-.225" transform="translate(224.016 -106.596)"/><path class="aa" d="M-215.676,117.721c-.934.055-2.332.094-3.017.1" transform="translate(222.884 -108.617)"/><path class="aa" d="M-212.529,120.9c-.377.03-1.59.169-1.953.259" transform="translate(220.53 -110.396)"/><path class="aa" d="M-219.121,108.972c2.138-3.162-1.079-12.591-8.717-11.843C-227.838,97.129-230.88,108.39-219.121,108.972Z" transform="translate(228.192 -97.087)"/></g><g transform="translate(13.97 12.044)"><path class="aa" d="M-406.608-10.646a68.829,68.829,0,0,1-12.3,6.154" transform="translate(418.904 12.13)"/><path class="aa" d="M-396.723-4.693a15.767,15.767,0,0,1-2.616-.827" transform="translate(407.971 9.266)"/><path class="aa" d="M-399.538-2.412c-1.21-.264-1.9-.826-3.31-1.282" transform="translate(409.932 8.246)"/><path class="aa" d="M-403.222-.461c-1.226-.452-1.776-.807-2.992-1.372" transform="translate(411.813 7.206)"/><path class="aa" d="M-406.487,1.376c-1.281-.384-2.2-1.05-3.507-1.557" transform="translate(413.925 6.282)"/><path class="aa" d="M-410.747,2.47c-.889-.169-1.636-.851-2.53-1.083" transform="translate(415.76 5.406)"/><path class="aa" d="M-413.8,3.557c-.585-.26-1.827-.8-2.412-1.06" transform="translate(417.398 4.786)"/><path class="aa" d="M-398.544-9.279a21.444,21.444,0,0,0,1.041-2.468" transform="translate(407.527 12.746)"/><path class="aa" d="M-401.529-8.065c.3-.776.4-1.832.763-2.614" transform="translate(409.195 12.149)"/><path class="aa" d="M-404.334-6.445c.2-.96.4-1.92.519-2.627" transform="translate(410.762 11.251)"/><path class="aa" d="M-408.291-4.875a23.86,23.86,0,0,1,.679-2.944" transform="translate(412.973 10.551)"/><path class="aa" d="M-411.671-3.4c.087-.931.26-2.32.353-3" transform="translate(414.862 9.759)"/><path class="aa" d="M-415.088-.8c.028-.377.073-1.6.041-1.969" transform="translate(416.772 7.731)"/><path class="aa" d="M-418.542-6.235c2.8,2.592,12.609.84,13.027-6.822C-405.515-13.058-416.187-17.77-418.542-6.235Z" transform="translate(418.702 14.011)"/></g><g transform="translate(71.236)"><path class="aa" d="M-280.444-39a68.947,68.947,0,0,0-1.421,13.677" transform="translate(285.068 40.017)"/><path class="aa" d="M-284.332-34.3a15.81,15.81,0,0,0,1.7,2.156" transform="translate(286.437 37.394)"/><path class="aa" d="M-286.324-31.482c.674,1.038,1.444,1.484,2.367,2.645" transform="translate(287.55 35.818)"/><path class="aa" d="M-286.815-26.931c.855.988,1.383,1.378,2.339,2.316" transform="translate(287.825 33.274)"/><path class="aa" d="M-287.83-23.755c.811,1.064,1.759,1.688,2.693,2.733" transform="translate(288.392 31.5)"/><path class="aa" d="M-286.354-18.434c.473.771,1.374,1.23,1.907,1.985" transform="translate(287.567 28.526)"/><path class="aa" d="M-286.214-15.072c.45.455,1.393,1.429,1.842,1.883" transform="translate(287.489 26.647)"/><path class="aa" d="M-280.175-32.72a21.317,21.317,0,0,1,1.943-1.844" transform="translate(284.114 37.54)"/><path class="aa" d="M-280.43-29.167c.619-.559,1.575-1.017,2.176-1.636" transform="translate(284.256 35.438)"/><path class="aa" d="M-280.973-25.683c.829-.525,1.656-1.047,2.273-1.412" transform="translate(284.56 33.366)"/><path class="aa" d="M-281.42-21.618a23.421,23.421,0,0,0,2.514-1.674" transform="translate(284.81 31.241)"/><path class="aa" d="M-281.672-17.549c.84-.41,2.078-1.062,2.68-1.388" transform="translate(284.951 28.807)"/><path class="aa" d="M-281.679-13.063c.344-.16,1.469-.633,1.829-.733" transform="translate(284.954 25.934)"/><path class="aa" d="M-286.084-26.713c-3.413-1.707-5.234-11.5,1.789-14.6C-284.3-41.309-276.121-32.987-286.084-26.713Z" transform="translate(289.103 41.309)"/></g></g><g transform="translate(106.266 73.649)"><path class="ab" d="M-222.22,190.887l7.747-6.009h38.16l6.246,6.009Z" transform="translate(225.273 -149.841)"/><g transform="translate(10.15 4.723)"><rect class="ac" width="4.546" height="42.03" transform="translate(1.299 0.799)"/><path class="ad" d="M-201.566,158.667V119.318h2.922v-1.34h-4.546v42.03h4.546v-1.341Z" transform="translate(204.488 -117.179)"/><path class="ae" d="M-204.834,116.966l-1.3-.8v39.615l1.3,3.213Z" transform="translate(206.133 -116.167)"/><path class="af" d="M-206.133,116.167l1.3.8h4.546l-1.867-.8Z" transform="translate(206.133 -116.167)"/><path class="k" d="M-196.179,123.443s.044.548.1,1.5.131,2.326.186,3.968.116,3.559.152,5.61c.012,1.026.04,2.087.042,3.164s.011,2.172.017,3.266-.011,2.189-.017,3.267-.029,2.138-.042,3.164c-.035,2.053-.087,3.968-.151,5.61s-.145,3.01-.188,3.967-.1,1.5-.1,1.5-.043-.546-.1-1.5-.132-2.325-.187-3.967-.117-3.557-.152-5.61c-.013-1.026-.041-2.086-.042-3.164s-.01-2.172-.017-3.267.012-2.189.018-3.266.03-2.138.043-3.164c.035-2.051.088-3.968.151-5.61s.145-3.01.187-3.968S-196.179,123.443-196.179,123.443Z" transform="translate(200.847 -120.233)"/></g><g transform="translate(0 12.196)"><path class="af" d="M-229.14,135.722l1.375-1.955,2.847-.66,1.472,1.3Z" transform="translate(229.14 -133.106)"/><rect class="ac" width="5.845" height="42.03" transform="matrix(0.974, -0.226, 0.226, 0.974, 0, 2.615)"/><path class="ad" d="M-217.921,175.713l-8.522-36.779,3.479-.8-.483-2.084-5.694,1.319,9.488,40.946,5.694-1.319-.483-2.084Z" transform="translate(229.14 -134.748)"/><path class="k" d="M-217.291,144.578s.166.524.433,1.444.653,2.236,1.078,3.823.916,3.44,1.414,5.431c.244,1,.51,2.023.756,3.072s.5,2.114.754,3.178.483,2.135.72,3.186.455,2.09.673,3.092c.43,2.007.811,3.886,1.119,5.5s.538,2.965.713,3.908.247,1.488.246,1.488-.166-.523-.433-1.445-.654-2.236-1.078-3.822-.917-3.44-1.414-5.431c-.244-1-.511-2.022-.755-3.072s-.5-2.113-.754-3.179-.483-2.134-.721-3.185-.453-2.09-.672-3.092c-.43-2.008-.81-3.885-1.119-5.5s-.539-2.964-.714-3.906S-217.291,144.578-217.291,144.578Z" transform="translate(222.518 -139.517)"/></g><g transform="translate(22.126)"><path class="af" d="M-178.987,107.184l1.736-1.642,2.921-.081,1.185,1.563Z" transform="translate(178.987 -105.461)"/><rect class="ac" width="5.845" height="42.032" transform="translate(0.001 1.723) rotate(-1.572)"/><path class="ad" d="M-175.62,148.979l-1.037-37.738,3.57-.1-.058-2.139-5.843.16,1.154,42.017,5.842-.16-.059-2.14Z" transform="translate(178.987 -107.441)"/><path class="k" d="M-168.661,117.16s.058.545.137,1.5.194,2.322.3,3.961.214,3.553.305,5.6c.041,1.026.1,2.086.13,3.162s.071,2.171.106,3.263.049,2.189.073,3.266.03,2.139.045,3.164c.022,2.052.022,3.968,0,5.612s-.062,3.012-.078,3.972-.055,1.507-.055,1.507-.059-.546-.138-1.5-.2-2.322-.3-3.962-.215-3.553-.306-5.6c-.041-1.025-.1-2.085-.129-3.162s-.071-2.17-.106-3.264-.049-2.189-.073-3.265-.028-2.138-.044-3.165c-.021-2.052-.021-3.967,0-5.612s.062-3.012.078-3.97S-168.662,117.16-168.661,117.16Z" transform="translate(173.298 -111.999)"/></g><g transform="translate(3.28 3.831)"><rect class="ac" width="4.546" height="42.031" transform="translate(0.005 2.106) rotate(-13.158)"/><path class="ad" d="M-209.587,156.565l-8.967-38.313-2.845.664-.306-1.3,4.426-1.036L-207.7,157.5l-4.427,1.035-.305-1.305Z" transform="translate(221.705 -115.504)"/><path class="ae" d="M-211.672,115.218l1.083-1.072,9.028,38.572-.532,3.426Z" transform="translate(216.099 -114.146)"/><path class="af" d="M-216.2,114.146l-1.083,1.072-4.426,1.036,1.636-1.2Z" transform="translate(221.705 -114.146)"/><path class="k" d="M-217.86,123.638s.082.542.249,1.487.4,2.295.723,3.907.7,3.491,1.13,5.5c.221,1,.436,2.04.679,3.09s.484,2.117.728,3.185l.76,3.177c.246,1.049.516,2.075.762,3.07.5,1.991.989,3.844,1.425,5.428s.827,2.9,1.087,3.82.436,1.444.436,1.444-.082-.544-.249-1.488-.4-2.295-.722-3.906-.7-3.49-1.13-5.5c-.222-1-.435-2.04-.68-3.09s-.484-2.117-.728-3.184-.51-2.128-.761-3.177-.516-2.075-.763-3.07c-.5-1.99-.989-3.844-1.425-5.427s-.827-2.9-1.087-3.822S-217.86,123.638-217.86,123.638Z" transform="translate(219.556 -119.45)"/></g><g transform="translate(12.575 0.428)"><path class="af" d="M-194.871,107.693l-2.03-1.262-2.878.507-.848,1.77Z" transform="translate(200.632 -106.431)"/><rect class="ac" width="5.845" height="42.031" transform="translate(0 2.277) rotate(-10)"/><path class="ad" d="M-190.191,148.973l-6.547-37.181-3.518.62-.371-2.106,5.756-1.015,7.29,41.395-5.757,1.015-.371-2.108Z" transform="translate(200.632 -108.029)"/><path class="k" d="M-196.317,119.031s.053.546.167,1.5.275,2.313.5,3.939.5,3.524.824,5.552c.165,1.012.322,2.061.506,3.123s.366,2.142.55,3.22.391,2.153.582,3.213.4,2.1.591,3.109c.39,2.015.774,3.892,1.122,5.5s.665,2.939.872,3.875.355,1.465.356,1.465-.052-.547-.167-1.5-.273-2.314-.5-3.94-.5-3.524-.823-5.55c-.166-1.013-.321-2.063-.507-3.124s-.366-2.141-.551-3.219-.39-2.154-.583-3.215-.4-2.1-.591-3.108c-.39-2.014-.774-3.893-1.121-5.5s-.664-2.939-.872-3.875S-196.317,119.031-196.317,119.031Z" transform="translate(198.223 -113.472)"/></g><g transform="translate(34.403)"><path class="af" d="M-142.7,107.184l-1.736-1.642-2.921-.081-1.185,1.563Z" transform="translate(149.698 -105.461)"/><rect class="ac" width="42.032" height="5.845" transform="matrix(0.027, -1, 1, 0.027, 0.001, 43.579)"/><path class="ad" d="M-147.531,148.979l1.037-37.738-3.57-.1.059-2.139,5.842.16-1.154,42.017-5.843-.16.059-2.14Z" transform="translate(151.16 -107.441)"/><path class="k" d="M-147.216,117.16s-.058.545-.136,1.5-.194,2.322-.295,3.961-.214,3.553-.306,5.6c-.041,1.026-.1,2.085-.13,3.162s-.071,2.172-.107,3.264-.049,2.189-.073,3.266-.029,2.138-.045,3.164c-.023,2.052-.022,3.968,0,5.612s.062,3.012.078,3.971.055,1.508.055,1.508.058-.546.137-1.5.2-2.322.3-3.962.215-3.553.305-5.6c.041-1.026.1-2.085.129-3.162s.071-2.17.106-3.264.049-2.189.072-3.265.029-2.138.045-3.165c.021-2.052.021-3.968,0-5.612s-.062-3.012-.077-3.97S-147.215,117.159-147.216,117.16Z" transform="translate(149.575 -111.999)"/></g><g transform="translate(16.871 8.493)"><rect class="ac" width="4.546" height="42.031" transform="translate(1.299 0.798)"/><path class="ad" d="M-186.332,167.211v-39.35h2.922v-1.341h-4.546v42.031h4.546v-1.341Z" transform="translate(189.254 -125.723)"/><path class="ae" d="M-189.6,125.51l-1.3-.8v39.615l1.3,3.214Z" transform="translate(190.899 -124.712)"/><path class="af" d="M-190.9,124.712l1.3.8h4.546l-1.867-.8Z" transform="translate(190.899 -124.712)"/><path class="k" d="M-180.944,131.988s.043.548.094,1.505.132,2.325.187,3.968.116,3.558.152,5.61c.012,1.025.041,2.085.043,3.164s.011,2.172.017,3.266-.012,2.189-.017,3.267-.03,2.138-.042,3.163c-.034,2.053-.088,3.968-.151,5.61s-.145,3.011-.188,3.967-.1,1.505-.1,1.505-.044-.547-.1-1.505-.132-2.326-.188-3.967-.116-3.557-.151-5.61c-.012-1.025-.041-2.085-.042-3.163s-.01-2.171-.016-3.267.011-2.189.017-3.266.03-2.139.043-3.164c.035-2.052.087-3.968.151-5.61s.145-3.01.187-3.968S-180.944,131.988-180.944,131.988Z" transform="translate(185.612 -128.778)"/></g><g transform="translate(8.292 17.257)"><path class="af" d="M-210.345,146.745l1.569-1.8,2.9-.364,1.331,1.441Z" transform="translate(210.345 -144.578)"/><rect class="ac" width="5.845" height="42.031" transform="matrix(0.992, -0.124, 0.124, 0.992, 0.001, 2.167)"/><path class="ad" d="M-203.136,187.87l-4.688-37.461,3.544-.443-.265-2.123-5.8.727,5.219,41.705,5.8-.726-.266-2.122Z" transform="translate(210.345 -146.402)"/><path class="k" d="M-199.13,156.223s.111.538.282,1.482.418,2.292.677,3.913.557,3.515.847,5.547c.139,1.017.3,2.065.435,3.134s.281,2.154.422,3.24.26,2.172.389,3.244.237,2.124.352,3.143c.221,2.04.406,3.947.546,5.585s.23,3,.307,3.959.092,1.506.091,1.506-.111-.538-.281-1.482-.42-2.291-.678-3.914-.558-3.516-.847-5.547c-.141-1.017-.3-2.064-.435-3.134s-.281-2.153-.422-3.239-.26-2.173-.389-3.242-.235-2.126-.349-3.145c-.22-2.04-.406-3.948-.547-5.584s-.23-3.005-.307-3.961S-199.13,156.223-199.13,156.223Z" transform="translate(204.078 -151.085)"/></g><g transform="translate(42.99 9.274)"><rect class="ac" width="42.032" height="4.546" transform="matrix(0.36, -0.933, 0.933, 0.36, 0.053, 40.432)"/><path class="ad" d="M-129.572,167.78l14.142-36.722,2.728,1.051.482-1.252-4.242-1.634-15.106,39.224,4.242,1.635.482-1.252Z" transform="translate(131.625 -128.014)"/><path class="ae" d="M-116.535,127.691l-.925-1.209L-131.7,163.448l.057,3.467Z" transform="translate(131.697 -126.482)"/><path class="af" d="M-99.426,126.482l.925,1.209,4.242,1.634-1.455-1.415Z" transform="translate(113.664 -126.482)"/><path class="k" d="M-108.113,137.07s-.156.527-.452,1.44-.714,2.217-1.251,3.77-1.171,3.361-1.875,5.288c-.357.963-.712,1.962-1.1,2.968l-1.158,3.055c-.4,1.02-.8,2.038-1.189,3.042s-.8,1.985-1.177,2.937c-.77,1.9-1.508,3.672-2.157,5.179s-1.217,2.757-1.6,3.636-.63,1.37-.63,1.37.156-.527.451-1.44.713-2.218,1.251-3.769,1.169-3.362,1.875-5.29c.357-.962.711-1.961,1.1-2.967s.77-2.031,1.158-3.054.8-2.039,1.19-3.042.8-1.984,1.177-2.937c.77-1.9,1.508-3.672,2.157-5.181s1.217-2.757,1.6-3.635S-108.114,137.07-108.113,137.07Z" transform="translate(125.552 -132.399)"/></g><g transform="translate(37.915 4.303)"><path class="af" d="M-126.674,116.477l2.03-1.263,2.878.507.847,1.769Z" transform="translate(133.965 -115.214)"/><rect class="ac" width="42.032" height="5.845" transform="translate(0 42.657) rotate(-80.007)"/><path class="ad" d="M-140.585,157.758l6.547-37.18,3.517.62.371-2.107-5.756-1.013-7.289,41.394,5.756,1.014.371-2.108Z" transform="translate(143.198 -116.814)"/><path class="k" d="M-125.631,127.816s-.052.545-.167,1.5-.274,2.313-.5,3.941-.5,3.523-.824,5.549c-.165,1.013-.322,2.062-.507,3.124s-.365,2.141-.55,3.219-.39,2.154-.583,3.215-.4,2.1-.59,3.109c-.39,2.014-.774,3.891-1.122,5.5s-.666,2.937-.873,3.874-.356,1.466-.356,1.466.052-.547.166-1.5.273-2.313.5-3.94.5-3.523.824-5.551c.165-1.012.321-2.062.508-3.124l.55-3.218c.195-1.077.391-2.154.583-3.214s.4-2.1.591-3.109c.39-2.015.775-3.892,1.122-5.5s.664-2.939.872-3.875S-125.631,127.815-125.631,127.816Z" transform="translate(136.777 -122.256)"/></g><g transform="translate(28.845 2.96)"><path class="af" d="M-163.753,113.894l1.736-1.643,2.921-.08,1.186,1.562Z" transform="translate(163.755 -112.171)"/><rect class="ac" width="5.845" height="42.032" transform="translate(0 1.723) rotate(-1.58)"/><path class="ad" d="M-160.385,155.688l-1.037-37.739,3.57-.1-.059-2.139-5.843.161,1.154,42.016,5.843-.161-.059-2.138Z" transform="translate(163.755 -114.15)"/><path class="k" d="M-153.427,123.867s.058.546.136,1.5.2,2.321.3,3.962.214,3.552.305,5.6c.041,1.024.1,2.084.13,3.162s.071,2.171.106,3.265.049,2.188.074,3.265.029,2.138.045,3.165c.023,2.051.022,3.967,0,5.611s-.062,3.012-.079,3.971-.054,1.507-.054,1.507-.059-.545-.138-1.5-.2-2.321-.3-3.96-.215-3.553-.306-5.6c-.041-1.025-.1-2.085-.129-3.162s-.071-2.172-.106-3.265-.049-2.188-.073-3.266-.029-2.138-.044-3.163c-.021-2.053-.021-3.969,0-5.611s.062-3.013.078-3.972S-153.428,123.867-153.427,123.867Z" transform="translate(158.067 -118.707)"/></g><g transform="translate(36.016 12.424)"><rect class="ac" width="42.031" height="4.546" transform="matrix(0.127, -0.992, 0.992, 0.127, 0, 42.245)"/><path class="ad" d="M-144.435,175.61l5-39.031-2.9-.371.17-1.331,4.509.578-5.337,41.691-4.509-.577.171-1.33Z" transform="translate(147.504 -134.324)"/><path class="ae" d="M-131.946,135.393l1.389-.626-5.03,39.294-1.7,3.024Z" transform="translate(141.793 -134.262)"/><path class="af" d="M-129.508,134.127l-1.389.626-4.509-.578,1.953-.554Z" transform="translate(140.744 -133.622)"/><path class="k" d="M-139.086,140.64s-.113.538-.286,1.481-.426,2.291-.689,3.912-.566,3.513-.863,5.545c-.143,1.016-.305,2.064-.444,3.133s-.287,2.153-.431,3.239-.266,2.172-.4,3.241-.242,2.125-.359,3.145c-.227,2.039-.418,3.946-.563,5.583s-.238,3-.317,3.959-.1,1.505-.1,1.505.112-.537.286-1.48.426-2.291.69-3.912.567-3.514.862-5.545c.143-1.016.306-2.064.443-3.133s.287-2.153.431-3.237.266-2.172.4-3.244.243-2.123.359-3.143c.227-2.041.417-3.946.563-5.583s.238-3,.318-3.96S-139.086,140.64-139.086,140.64Z" transform="translate(145.286 -137.544)"/></g><g transform="translate(44.571 12.382)"><path class="af" d="M-110.479,135.693l-1.569-1.8-2.9-.363-1.331,1.441Z" transform="translate(121.501 -133.527)"/><rect class="ac" width="42.03" height="5.845" transform="translate(0 43.145) rotate(-82.86)"/><path class="ad" d="M-124.3,176.819l4.688-37.461-3.544-.443.265-2.122,5.8.726-5.219,41.706-5.8-.726.266-2.121Z" transform="translate(128.11 -135.352)"/><path class="k" d="M-119.856,145.171s-.111.537-.281,1.482-.419,2.292-.678,3.914-.557,3.515-.847,5.547c-.14,1.017-.3,2.064-.435,3.134s-.281,2.153-.422,3.239-.261,2.172-.39,3.243-.236,2.126-.351,3.143c-.221,2.041-.406,3.949-.547,5.585s-.229,3.006-.307,3.961-.091,1.505-.091,1.505.111-.538.281-1.481.421-2.292.679-3.913.557-3.516.846-5.547c.14-1.017.3-2.066.435-3.135s.281-2.154.422-3.239.26-2.172.388-3.244.236-2.125.351-3.144c.219-2.04.405-3.948.546-5.585s.23-3,.308-3.959S-119.856,145.171-119.856,145.171Z" transform="translate(125.93 -140.034)"/></g><g transform="translate(11.718 4.572)"><rect class="ac" width="4.546" height="42.032" transform="matrix(0.987, -0.162, 0.162, 0.987, 0, 1.731)"/><path class="ad" d="M-193.117,158.5l-6.361-38.832-2.883.472-.217-1.324,4.486-.736,6.794,41.48-4.486.735-.216-1.324Z" transform="translate(202.579 -117.086)"/><path class="ae" d="M-192.409,116.82l1.153-1,6.4,39.093-.762,3.382Z" transform="translate(196.897 -115.825)"/><path class="af" d="M-196.939,115.825l-1.153,1-4.486.736,1.713-1.09Z" transform="translate(202.579 -115.825)"/><path class="k" d="M-199.061,124.712s.045.548.149,1.5.247,2.317.457,3.946.461,3.529.758,5.56c.154,1.015.3,2.065.47,3.129s.339,2.145.511,3.226.365,2.158.544,3.221.375,2.1.552,3.114c.366,2.02.728,3.9,1.057,5.511s.63,2.947.826,3.885.338,1.469.338,1.469-.045-.546-.148-1.5-.245-2.317-.457-3.946-.459-3.529-.758-5.56c-.152-1.015-.3-2.067-.469-3.129s-.34-2.145-.512-3.226-.365-2.157-.545-3.22-.375-2.105-.553-3.116c-.367-2.02-.729-3.9-1.056-5.512s-.63-2.946-.826-3.884S-199.061,124.712-199.061,124.712Z" transform="translate(200.614 -120.791)"/></g><g transform="translate(21.834 9.712)"><path class="af" d="M-173.811,128.995l-1.845-1.521-2.92.122-1.074,1.641Z" transform="translate(179.651 -127.474)"/><rect class="ac" width="5.845" height="42.031" transform="translate(0.003 1.762) rotate(-2.366)"/><path class="ad" d="M-174.429,170.873l-1.565-37.721-3.568.149-.089-2.138,5.839-.242,1.743,42-5.84.241L-178,171.02Z" transform="translate(179.651 -129.4)"/><path class="k" d="M-176.436,139.416s-.021.549-.033,1.508-.034,2.33-.022,3.972.03,3.56.081,5.611c.03,1.026.046,2.087.088,3.163s.079,2.17.118,3.264.1,2.186.153,3.263.118,2.135.173,3.159c.119,2.049.252,3.961.383,5.6s.27,3,.351,3.957.158,1.5.159,1.5.02-.548.034-1.508.035-2.329.023-3.972-.03-3.559-.081-5.611c-.03-1.026-.045-2.087-.09-3.163s-.079-2.171-.119-3.264-.1-2.188-.152-3.264-.118-2.134-.174-3.158c-.12-2.049-.252-3.961-.383-5.6s-.27-3-.351-3.957S-176.436,139.416-176.436,139.416Z" transform="translate(177.887 -134.147)"/></g><path class="ag" d="M-195.995,198.5H-222.22l7.473,43.509h37.207l7.473-43.509Z" transform="translate(225.273 -157.452)"/><path class="ag" d="M-195.995,198.5H-222.22l7.473,43.509h37.207l7.473-43.509Z" transform="translate(225.273 -157.452)"/><path class="ah" d="M-152.739,218.806a12.814,12.814,0,0,0-4.365,2.17,10.069,10.069,0,0,0-3.516,5.924,16.182,16.182,0,0,0,.079,7.721,9.956,9.956,0,0,0,6.29,6.836,28.245,28.245,0,0,0,6.676,1.436,29.929,29.929,0,0,0,5.334.119l5.566-23.145Z" transform="translate(191.089 -168.8)"/><path class="ai" d="M-182.108,239.859a56.773,56.773,0,0,1-12.167-.882c-4-.739-7.97-1.97-10.978-4.852a20.826,20.826,0,0,1-5.95-13.439c-.418-5.02.122-10.7,2.948-15.013a19.413,19.413,0,0,1,9.237-7.174h-23.2l7.473,43.509h37.207l.444-2.589A44.279,44.279,0,0,1-182.108,239.859Z" transform="translate(225.273 -157.452)"/><path class="ai" d="M-209.11,239.627c-4.384-4.038-6.218-9.951-7.182-15.674-.916-5.437-1.1-10.955.588-16.272a23.611,23.611,0,0,1,5.251-9.183H-222.22l7.473,43.509h8.9A18.388,18.388,0,0,1-209.11,239.627Z" transform="translate(225.273 -157.452)"/><g transform="translate(40.462 45.489)"><path class="c" d="M-132.339,281l-.006-.006-.025-.021Z" transform="translate(134.601 -249.028)"/><path class="c" d="M-125.635,208.815a.4.4,0,0,0-.752.023c-.729,2.215-.837,4.732-1.279,7.013-.743,3.844-1.558,7.681-2.4,11.51-.723,3.3-1.475,6.609-2.393,9.873-.224.793-.824,1.864-.665,2.685a1.142,1.142,0,0,0,.341.615c.058.045.111.084.14.1,1.563.953,2.171-2.538,2.351-3.222.874-3.338,1.56-6.719,2.235-10.093.768-3.834,1.443-7.672,1.991-11.536C-125.773,213.751-124.912,210.825-125.635,208.815Z" transform="translate(135.035 -208.568)"/><path class="c" d="M-132.673,280.722c-.424-.353-.2-.155,0,0Z" transform="translate(134.905 -248.779)"/><path class="c" d="M-135.35,284.859l-.049-.02c.279.189.252.169-.081-.055a1.431,1.431,0,0,0-1.039-.086,1.234,1.234,0,0,0-.9,1.162c0,.008,0,.018,0,.028a1.221,1.221,0,0,0,1,1.143,1.953,1.953,0,0,0,.5.041,1.286,1.286,0,0,0,1.2-.9A1.141,1.141,0,0,0-135.35,284.859Z" transform="translate(137.428 -251.077)"/></g><path class="ai" d="M-215.008,297.117l-7.679,6.329H-183.7l5.9-6.329Z" transform="translate(225.534 -212.562)"/></g><g transform="translate(37.202 83.562)"><ellipse class="ai" cx="49.366" cy="11.024" rx="49.366" ry="11.024" transform="translate(0 73.322)"/><g transform="translate(1.928)"><g transform="translate(7.626 59.797)"><path class="aj" d="M-283.974,281.774c-6.854,8.364-16,11.949-39.643,11.949s-35.344-5.184-38.794-10.755c-2.4-3.882-1.962-8.666.235-10.7,7.315-6.757,22.036-8.8,39.2-8.8,17.679,0,29.972,1.951,38.195,8.562C-282.733,273.675-282.927,280.5-283.974,281.774Z" transform="translate(364.028 -263.468)"/><path class="ak" d="M-276.9,300.186a120.851,120.851,0,0,1-25.8,1.951c-3.959-.106-11.624-1.139-14.416,2.628A111.881,111.881,0,0,0-297.4,306.3c23.643,0,32.789-3.585,39.643-11.949.854-1.043,1.14-5.772.1-8.373C-260.461,294.956-267.88,298.475-276.9,300.186Z" transform="translate(337.808 -276.049)"/><path class="al" d="M-281.156,273.71c0,5.655-17.1,10.24-38.195,10.24s-38.195-4.585-38.195-10.24,17.1-10.242,38.195-10.242S-281.156,268.052-281.156,273.71Z" transform="translate(360.405 -263.468)"/></g><g transform="translate(6.835 46.232)"><path class="am" d="M-285.44,250.8c0,6.552-17.8,13.159-40.191,13.159s-40.19-6.08-40.19-12.632c0-1.795,1.717-7.771,3.8-9.8,6.929-6.757,20.871-8.8,37.131-8.8,16.745,0,28.389,1.951,36.177,8.562C-286.777,242.93-285.44,249.148-285.44,250.8Z" transform="translate(365.821 -232.722)"/><path class="an" d="M-364.683,263.864a18.571,18.571,0,0,0-1.138,4.866c0,6.552,17.8,12.632,40.19,12.632s40.191-6.608,40.191-13.159a20.6,20.6,0,0,0-.793-4.338s-2.541,7.231-3.461,7.3c-.43.03-3.9-.6-4.507-.554-.638.046-2.3,3.7-3.107,3.754-.911.064-2.186-1.826-3.294-1.749-1.664.116-.253,4.171-2.29,4.31-1.609.11-.886-1.657-2.678-1.537-1.22.083-2.08-2.858-3.367-2.773-.517.035-2.211,5.684-2.736,5.719-2.3.152-2.1-3.535-5.37.64-.426.547-2.664-1.4-3.1-.9-.89,1.037-1.977.323-2.88,1.023-.761.592-2.029-4.236-2.753-3.7-.9.671-1.152,2.626-2.024,3.189s-2.164-1.8-2.985-1.409c-1.132.537-1.51,1.733-2.491,1.793-1.341.082-2.122-4.433-3.455-4.353-.506.031-.166,2.862-1.827,3.969-1.317.879-1.185-7.693-2.43-6.836-.768.53-1.428,4.742-2.1,5.171-1.157.746-1.4-2.97-1.824-2.943-.852.049-2.243,3.664-3.083,3.711-1.776.1.844-6.672-.855-6.582-.982.054-3.041,4.741-3.988,4.789-1.253.064.3-3.342-.888-3.286-.481.023-1.985,2.624-2.455,2.646-.832.039-1.118-3.362-1.91-3.329s-1.315.655-2.062.683c-.866.035-.127-4.256-.921-4.229-1.6.053-.929,1.82-2.211,1.82C-363.787,270.2-364.683,263.864-364.683,263.864Z" transform="translate(365.821 -250.125)"/><path class="ao" d="M-282.694,242.963c0,5.656-16.2,10.242-36.177,10.242s-36.176-4.586-36.176-10.242,16.2-10.241,36.176-10.241S-282.694,237.307-282.694,242.963Z" transform="translate(359.8 -232.722)"/><path class="am" d="M-274.815,243.671c0,4.757-13.623,8.612-30.427,8.612s-30.427-3.855-30.427-8.612,13.622-8.614,30.427-8.614S-274.815,238.913-274.815,243.671Z" transform="translate(348.971 -234.027)"/><path class="an" d="M-311.33,264.515a.82.82,0,0,1-.8.841.82.82,0,0,1-.8-.841.821.821,0,0,1,.8-.844A.821.821,0,0,1-311.33,264.515Z" transform="translate(336.262 -250.017)"/><path class="an" d="M-299.593,267.2a1.581,1.581,0,0,1-1.535,1.621,1.582,1.582,0,0,1-1.537-1.621,1.581,1.581,0,0,1,1.537-1.62A1.58,1.58,0,0,1-299.593,267.2Z" transform="translate(330.528 -251.085)"/><path class="an" d="M-303.793,261.863a.481.481,0,0,1-.444.511.482.482,0,0,1-.447-.511.483.483,0,0,1,.447-.513A.482.482,0,0,1-303.793,261.863Z" transform="translate(331.657 -248.72)"/><path class="an" d="M-287.4,262.7a1.431,1.431,0,0,1-1.5,1.354,1.431,1.431,0,0,1-1.5-1.354,1.431,1.431,0,0,1,1.5-1.354A1.431,1.431,0,0,1-287.4,262.7Z" transform="translate(323.668 -248.72)"/><path class="an" d="M-284.369,273.449c0,.285-.589.518-1.315.518s-1.313-.233-1.313-.518.588-.519,1.313-.519S-284.369,273.162-284.369,273.449Z" transform="translate(321.773 -255.191)"/><path class="an" d="M-271.643,270.584c0,.734-.865,1.329-1.933,1.329s-1.932-.6-1.932-1.329.865-1.328,1.932-1.328S-271.643,269.852-271.643,270.584Z" transform="translate(315.353 -253.138)"/><path class="an" d="M-269.387,262.284a.994.994,0,0,1-1.043.933.992.992,0,0,1-1.041-.933.992.992,0,0,1,1.041-.934A.993.993,0,0,1-269.387,262.284Z" transform="translate(313.097 -248.72)"/><path class="an" d="M-256.557,269.92c0,.367-.427.664-.955.664s-.955-.3-.955-.664.428-.664.955-.664S-256.557,269.554-256.557,269.92Z" transform="translate(305.83 -253.138)"/><path class="an" d="M-259.259,263.933c0,.258-.418.468-.93.468s-.93-.21-.93-.468.416-.465.93-.465S-259.259,263.676-259.259,263.933Z" transform="translate(307.312 -249.903)"/><path class="an" d="M-329.729,260.309a.92.92,0,0,1-.943.894.921.921,0,0,1-.942-.894.92.92,0,0,1,.942-.894A.919.919,0,0,1-329.729,260.309Z" transform="translate(346.706 -247.638)"/><path class="an" d="M-318.587,256.7a.717.717,0,0,1-.65.769.716.716,0,0,1-.649-.769.715.715,0,0,1,.649-.767A.716.716,0,0,1-318.587,256.7Z" transform="translate(340.152 -245.693)"/><path class="an" d="M-319.407,267.879c0,.214-.437.389-.974.389s-.973-.175-.973-.389.437-.39.973-.39S-319.407,267.664-319.407,267.879Z" transform="translate(340.972 -252.15)"/><path class="an" d="M-248.309,267.879c0,.214-.37.389-.822.389s-.823-.175-.823-.389.367-.39.823-.39S-248.309,267.664-248.309,267.879Z" transform="translate(301.073 -252.15)"/><path class="an" d="M-262.423,273.449a.516.516,0,0,1-.514.518.518.518,0,0,1-.515-.518.517.517,0,0,1,.515-.519A.516.516,0,0,1-262.423,273.449Z" transform="translate(308.615 -255.191)"/></g><g transform="translate(6.839 40.559)"><path class="ap" d="M-334.092,240.888c-1.1,4-9.064,5.3-17.789,2.9s-14.9-7.586-13.805-11.586l.995-3.62s9.042-1.41,16.791.72c8.021,2.2,14.8,7.963,14.8,7.963Z" transform="translate(365.812 -224.48)"/><path class="aq" d="M-331.837,232.649c-1.1,4-9.064,5.3-17.788,2.9s-14.905-7.584-13.806-11.584,9.064-5.3,17.788-2.9S-330.738,228.651-331.837,232.649Z" transform="translate(364.552 -219.862)"/><path class="ar" d="M-331.784,232.424c-.046.637-.484,1.86-1.472,1.974s-10.315-5.918-10.411-5.839c-.2.158,9.5,5.62,9.369,6.491s-3.781,1.79-5.281,1.337-4.8-7.071-4.8-7.071,2.051,6.11,1.437,6.745-3.026.036-4.718-.429c-1.191-.326-2.576-.514-3.049-1.507s4.945-5.385,4.756-5.464c-.377-.161-4.737,4.66-6.065,4.81s-4.732-1.426-4.713-2.794,9.379-3.227,9.225-3.372c-.3-.283-9.042,2.392-10.427,2.312s-2.906-4.008-2.288-4.524,11.784,1.781,11.987,1.481c.1-.154-10.606-2.22-11.187-2.893s4.822-2.371,5.682-2.22,6.115,4.108,6.384,4.092-4.966-3.715-4.748-4.189,6.484.047,7.076.668-.146,3.79-.146,3.79,1.111-3.28,1.638-3.3c.99-.04,5.109,1.476,4.89,1.961s-4.745,1.854-4.569,1.945c.345.181,5.191-1.284,6.112-1.119s4.909,3.166,4.505,3.728-10.242-1.555-10.148-1.418c.18.27,9.621,1.7,10.267,2.171S-331.674,230.879-331.784,232.424Z" transform="translate(362.767 -220.599)"/></g><g transform="translate(56.565 40.431)"><path class="ap" d="M-220.6,230.523c1.464,3.882-4.211,9.616-12.675,12.811s-16.515,2.637-17.98-1.243c-.162-.432-1.325-3.514-1.325-3.514s6.481-6.459,14-9.3c7.781-2.938,16.653-2.272,16.653-2.272Z" transform="translate(252.809 -223.692)"/><path class="aq" d="M-222.216,222.89c1.465,3.881-4.211,9.616-12.676,12.81s-16.515,2.639-17.979-1.242,4.211-9.617,12.676-12.811S-223.679,219.009-222.216,222.89Z" transform="translate(253.101 -219.572)"/><path class="ar" d="M-222.551,224c.339.544.7,1.791-.027,2.463s-11.822,1.286-11.855,1.405c-.065.245,10.987-1.043,11.4-.263s-2.005,3.671-3.483,4.187-8.042-2.894-8.042-2.894,5.257,3.734,5.132,4.607-2.425,1.813-4.068,2.431c-1.154.436-2.385,1.1-3.351.574s.83-7.261.63-7.216c-.4.092-1.089,6.556-2.075,7.459s-4.665,1.631-5.454.513,5.685-8.128,5.475-8.154c-.409-.053-5.9,7.255-7.071,8s-4.707-1.53-4.51-2.311,10.575-5.493,10.562-5.857c-.007-.184-9.882,4.448-10.746,4.244s2.5-4.755,3.287-5.138,7.362-.276,7.569-.446-6.2-.083-6.3-.6,5.27-3.777,6.113-3.625,2.112,3.152,2.112,3.152-1.031-3.3-.617-3.633c.777-.615,5-1.814,5.107-1.293s-2.746,4.291-2.55,4.261c.386-.056,3.441-4.092,4.284-4.5s5.832-.328,5.837.364-9.2,4.768-9.04,4.826c.305.112,8.78-4.287,9.579-4.287S-223.37,222.685-222.551,224Z" transform="translate(251.469 -220.441)"/></g><g transform="translate(31.517 47.534)"><path class="ap" d="M-277.11,251.693c0,4.149-7.335,7.512-16.382,7.512s-16.383-3.362-16.383-7.512v-3.754s8.344-3.756,16.383-3.756c8.315,0,16.382,3.756,16.382,3.756Z" transform="translate(309.875 -240.428)"/><path class="aq" d="M-277.11,243.183c0,4.148-7.335,7.511-16.382,7.511s-16.383-3.363-16.383-7.511,7.335-7.511,16.383-7.511S-277.11,239.035-277.11,243.183Z" transform="translate(309.875 -235.672)"/><path class="ar" d="M-277.233,243.261c.124.628.026,1.923-.9,2.3s-11.514-2.972-11.586-2.871c-.149.205,10.648,2.9,10.754,3.775s-3.171,2.729-4.738,2.69-6.5-5.546-6.5-5.546,3.6,5.346,3.174,6.122-2.907.837-4.662.837c-1.234,0-2.621.186-3.339-.645s3.342-6.5,3.137-6.53c-.406-.054-3.334,5.75-4.573,6.247s-4.942-.12-5.285-1.445,8.188-5.6,8-5.7c-.364-.192-8.086,4.7-9.443,4.992s-3.865-3.093-3.4-3.754,11.833-1.406,11.95-1.751c.059-.175-10.817.672-11.554.177s4.021-3.566,4.891-3.648,6.985,2.341,7.239,2.255-5.773-2.267-5.688-2.782,6.265-1.674,7-1.234.865,3.695.865,3.695.2-3.458.7-3.618c.945-.3,5.318.068,5.235.6s-4.084,3.044-3.89,3.086c.38.082,4.665-2.615,5.6-2.7s5.573,1.751,5.333,2.4-10.288,1.215-10.161,1.324c.245.213,9.727-.911,10.475-.63S-277.536,241.742-277.233,243.261Z" transform="translate(308.073 -236.22)"/></g><g transform="translate(0 28.815)"><path class="as" d="M-365.609,193.245s-17.623,7.841-15.531,10.025,11.992,5.067,21.381,10.111,21.09,12.728,23.005,12.9,12.641-24.092,12.641-24.092Z" transform="translate(381.313 -193.245)"/><path class="at" d="M-360.852,193.245s-13.824,6.384-11.732,8.568,8.876,4.059,18.266,9.1,19.241,12.461,21.158,12.632,11.206-21.921,11.206-21.921Z" transform="translate(376.556 -193.245)"/><g transform="translate(32.156 22.537)"><g class="au"><path class="c" d="M-308.427,246.63s1.347.683,3.32,1.766l3.366,1.837,1.9,1c.648.334,1.318.65,1.98.919a4.168,4.168,0,0,0,.937.284c.019,0,.086.008.064.01a.425.425,0,0,0,.1-.009.821.821,0,0,0,.14-.044,1.879,1.879,0,0,0,.37-.225,7.955,7.955,0,0,0,1.388-1.48c.411-.548.8-1.093,1.151-1.628s.679-1.043.971-1.521c.589-.954,1.069-1.759,1.406-2.325l.53-.889s-.118.358-.353.975-.594,1.489-1.082,2.512c-.247.51-.514,1.064-.834,1.633s-.659,1.17-1.072,1.763a8.491,8.491,0,0,1-1.5,1.736,2.773,2.773,0,0,1-.575.356,1.663,1.663,0,0,1-.393.12,1.406,1.406,0,0,1-.18.02,1.866,1.866,0,0,1-.214-.01,4.921,4.921,0,0,1-1.218-.331,19.641,19.641,0,0,1-2.07-.987c-.662-.348-1.291-.724-1.9-1.091s-1.182-.733-1.721-1.091-1.047-.7-1.508-1.027C-307.275,247.609-308.427,246.63-308.427,246.63Z" transform="translate(308.427 -244.327)"/></g></g><g class="au" transform="translate(1.759 8.568)"><path class="c" d="M-377.261,212.665a.405.405,0,0,0,0,.144.738.738,0,0,0,.188.333,5.216,5.216,0,0,0,1.151.834c.518.3,1.139.629,1.809.977L-372,216.03l1.073.556c.356.181.7.376,1.035.553.672.36,1.294.707,1.823,1.019,1.061.614,1.745,1.09,1.745,1.09a17.149,17.149,0,0,1-1.988-.555c-.586-.192-1.26-.442-1.969-.741-.353-.153-.722-.3-1.087-.475s-.735-.352-1.1-.538l-1.078-.589c-.356-.195-.691-.415-1.02-.621a13.073,13.073,0,0,1-1.705-1.284,3.9,3.9,0,0,1-.975-1.2.753.753,0,0,1-.071-.442A.433.433,0,0,1-377.261,212.665Z" transform="translate(377.326 -212.665)"/></g><g class="au" transform="translate(5.441 7.575)"><path class="c" d="M-368.964,210.415a.545.545,0,0,0,0,.095.526.526,0,0,0,.141.228,4.215,4.215,0,0,0,.844.615c.779.466,1.947,1.041,3.356,1.716l4.841,2.267c.883.42,1.8.839,2.729,1.289l2.808,1.357,2.787,1.4c.92.462,1.81.949,2.676,1.412,1.726.936,3.314,1.859,4.636,2.716a24.062,24.062,0,0,1,3.067,2.265,6.681,6.681,0,0,1,.744.769,3.678,3.678,0,0,1,.227.3,3.576,3.576,0,0,0-.267-.263,8.281,8.281,0,0,0-.831-.649,34.143,34.143,0,0,0-3.238-1.917c-1.376-.735-3-1.554-4.753-2.422l-5.5-2.7-2.79-1.388c-.922-.454-1.819-.924-2.692-1.369-1.742-.9-3.356-1.766-4.716-2.556a29.209,29.209,0,0,1-3.2-2.067,3.819,3.819,0,0,1-.773-.747.549.549,0,0,1-.111-.263A.6.6,0,0,1-368.964,210.415Z" transform="translate(368.981 -210.415)"/></g></g><g transform="translate(39.604 29.845)"><path class="as" d="M-250.048,195.579s17.623,7.841,15.529,10.024-11.992,5.069-21.38,10.113-21.089,12.727-23.006,12.9-12.641-24.092-12.641-24.092Z" transform="translate(291.546 -195.579)"/><path class="at" d="M-246.755,195.579s13.824,6.384,11.731,8.568-8.876,4.058-18.265,9.1-19.241,12.46-21.158,12.632-11.206-21.922-11.206-21.922Z" transform="translate(288.253 -195.579)"/><g transform="translate(7.421 22.537)"><g class="au"><path class="c" d="M-257.1,248.964s-1.153.979-3,2.275c-.46.328-.965.673-1.508,1.027s-1.114.728-1.721,1.092-1.234.743-1.9,1.091a19.563,19.563,0,0,1-2.07.986,4.891,4.891,0,0,1-1.218.332,1.9,1.9,0,0,1-.214.01,1.367,1.367,0,0,1-.181-.02,1.66,1.66,0,0,1-.392-.12,2.8,2.8,0,0,1-.574-.356,8.484,8.484,0,0,1-1.5-1.736c-.413-.593-.754-1.195-1.072-1.764s-.587-1.123-.834-1.633c-.488-1.023-.844-1.9-1.082-2.512s-.354-.975-.354-.975l.53.889c.337.566.818,1.371,1.406,2.325.293.478.624.986.971,1.521s.74,1.08,1.151,1.628a7.939,7.939,0,0,0,1.388,1.479,1.85,1.85,0,0,0,.37.225.787.787,0,0,0,.14.044.35.35,0,0,0,.1.01c-.02,0,.046-.008.065-.01a4.152,4.152,0,0,0,.937-.284c.662-.269,1.333-.585,1.98-.919l1.9-1,3.366-1.837C-258.449,249.647-257.1,248.964-257.1,248.964Z" transform="translate(274.725 -246.661)"/></g></g><g class="au" transform="translate(44.438 8.568)"><path class="c" d="M-179.883,215a.454.454,0,0,1,.056.142.75.75,0,0,1-.071.442,3.91,3.91,0,0,1-.975,1.2,13.09,13.09,0,0,1-1.706,1.284c-.328.206-.664.426-1.019.621l-1.078.589c-.367.186-.735.369-1.1.537s-.734.322-1.087.475c-.709.3-1.383.548-1.969.741a17.132,17.132,0,0,1-1.987.555s.683-.476,1.745-1.09c.529-.312,1.151-.659,1.823-1.019.337-.176.679-.372,1.035-.553l1.073-.556,2.114-1.077c.67-.347,1.291-.675,1.809-.976a5.209,5.209,0,0,0,1.151-.834.74.74,0,0,0,.188-.333A.435.435,0,0,0-179.883,215Z" transform="translate(190.821 -215)"/></g><g class="au" transform="translate(22.891 7.575)"><path class="c" d="M-210.81,212.749a.685.685,0,0,1,.017.094.551.551,0,0,1-.111.263,3.8,3.8,0,0,1-.773.747,29.138,29.138,0,0,1-3.2,2.067c-1.36.791-2.974,1.658-4.716,2.556-.873.445-1.77.915-2.692,1.369l-2.789,1.388-5.5,2.7c-1.75.868-3.377,1.687-4.753,2.422a34.236,34.236,0,0,0-3.238,1.917,8.272,8.272,0,0,0-.831.649,3.64,3.64,0,0,0-.267.263,3.631,3.631,0,0,1,.227-.3,6.682,6.682,0,0,1,.744-.769,24.063,24.063,0,0,1,3.067-2.265c1.323-.857,2.91-1.781,4.636-2.716.865-.463,1.755-.95,2.675-1.412l2.787-1.4,2.807-1.357c.924-.45,1.845-.869,2.729-1.289l4.84-2.267c1.41-.674,2.577-1.25,3.356-1.716a4.243,4.243,0,0,0,.844-.615.529.529,0,0,0,.14-.228A.68.68,0,0,0-210.81,212.749Z" transform="translate(239.66 -212.749)"/></g></g><g transform="translate(2.775 24.389)"><path class="av" d="M-293.259,192.273c2,.505,3.971,1.09,5.931,1.657,1.872.542,4.133.679,5.348,2.474a2.917,2.917,0,0,1-1.71,4.579,6.492,6.492,0,0,1-2.7-.391c-1.732-.319-1.368.381-1.73,1.607-.487,1.642-.794.776-1.973.592-1.2-.187-1.4.524-1.572,1.709-.359,2.412.2,4.6-3.088,3.821-1.1-.257-2.126-.959-3.2-.238-.981.655-.658,1.5-.981,2.426a2.35,2.35,0,0,1-2.369,1.7c-1.112-.04-1.656-1.125-2.776-1.13-1.511-.01-1.139,1.122-1.964,1.985a3.092,3.092,0,0,1-2.869.5c-.962-.21-1.928-1.108-2.9-.432-.723.5-.931,1.86-1.406,2.606-1.173,1.843-3.236,3.26-5.487,2.771-2.208-.478-3.362-3.065-5.483-3.949a9.69,9.69,0,0,0-6.944-.287c-2.139.8-4.768,2.133-6.079-.326-.637-1.19-.52-1.224-2.029-1.351-1.233-.1-1.539-.278-2.547.448-1.917,1.378-3.634,2.332-5.523.271-.519-.566-.971-1.956-1.632-2.337-.943-.544-2.425.062-3.168.529-.951.6-2.051,1.581-3.3,1.515-1.264-.068-1.615-1.2-2.119-2.232s-.131-1.869-.5-2.865-1.53-1.07-2.619-1.123c-1.643-.08-2.277-.808-3.246-2.3-.854-1.318-.024-1.586-.043-3.073-.037-2.788-2.809-2.892-4.724-3.863-1.357-.687-1.559-1.889-1.288-3.439.276-1.572,1.355-2.221,2.8-2.681,1.371-.436,2.5.1,3.85.43a34.112,34.112,0,0,0,6.814,1.247c2.952.114,5.148-1.127,7.669-2.378,3.235-1.605,6.6-1.448,10.147-1.316,1.993.074,4.025.041,6.011.221a17.54,17.54,0,0,1,6.1,2.151c3.691,1.854,5.939,4.807,10.456,4.625,3.664-.148,7.752-1.918,11.235-3.05,2.129-.692,5.252-1.2,7.328.016Z" transform="translate(372.243 -186.645)"/><path class="aw" d="M-362.983,184.412c-2.015.43-4.009.942-5.99,1.437-1.892.472-4.156.525-5.437,2.273a2.918,2.918,0,0,0,1.539,4.641,6.516,6.516,0,0,0,2.712-.292c1.743-.253,1.352.434,1.671,1.671.425,1.659.763.805,1.948.666,1.208-.142,1.375.576,1.508,1.767.269,2.422-.372,4.587,2.945,3.934,1.1-.218,2.16-.88,3.206-.121.956.691.6,1.519.891,2.461a2.351,2.351,0,0,0,2.3,1.792c1.112,0,1.7-1.062,2.816-1.027,1.511.048,1.1,1.165,1.89,2.057a3.092,3.092,0,0,0,2.848.606c.968-.174,1.968-1.036,2.911-.324.705.53.865,1.893,1.31,2.656,1.1,1.886,3.111,3.376,5.379,2.972,2.225-.4,3.473-2.939,5.627-3.744a9.687,9.687,0,0,1,6.949-.028c2.109.88,4.684,2.309,6.087-.1.679-1.165.565-1.2,2.077-1.274,1.235-.057,1.549-.22,2.529.543,1.864,1.448,3.544,2.465,5.508.476.54-.548,1.043-1.921,1.719-2.276.963-.509,2.42.152,3.146.645.926.632,1.991,1.657,3.236,1.637,1.268-.02,1.659-1.139,2.2-2.151s.2-1.862.61-2.844,1.567-1.012,2.659-1.024c1.644-.019,2.306-.724,3.328-2.18.9-1.286.082-1.584.158-3.069.139-2.785,2.913-2.785,4.864-3.685,1.382-.637,1.629-1.829,1.414-3.389-.215-1.581-1.27-2.27-2.7-2.784-1.355-.487-2.5.005-3.863.289a34.307,34.307,0,0,1-6.855.992c-2.955,0-5.1-1.317-7.575-2.66-3.175-1.725-6.546-1.692-10.092-1.692-1.995,0-4.024-.109-6.015,0a17.575,17.575,0,0,0-6.179,1.923c-3.757,1.714-6.113,4.583-10.621,4.234-3.654-.285-7.676-2.206-11.114-3.466-2.1-.771-5.2-1.4-7.323-.256Z" transform="translate(375.023 -183.212)"/><path class="k" d="M-214.191,203.871c1.771,1.069,2.839,2.479,4.992,3.1,1.378.4,3.39.89,4.323-.441.958-1.368.905-3.491-.739-4.076-.938-.334-4.249-.728-4.2-2.149,2.158-.11,4.062.866,6.125.46a14.22,14.22,0,0,0,5.249-2.3c.492-.41,1.2-1.975.675-2.566-.9-1.011-1.5.669-1.986,1.155A10.313,10.313,0,0,1-206,199.389c-1.69-.06-3.2-1.163-4.865-1.024-1.559.129-3.292,1.792-3.968,3.2Z" transform="translate(285.505 -190.124)"/><path class="k" d="M-222.542,225.537a8.774,8.774,0,0,1-.66,3.182c-1.263.26-2.143-3.279-3.542-3.677-.238,1.41.659,2.381.724,3.679-.682-.094-1.2-.675-1.8-.973a16.492,16.492,0,0,1-2.155-.77c-.99-.674-1.654-2.17-2.658-2.7.221,2.273-1.816,3.273-3.381,4.051-2.774,1.383.39,3.085,2.211,2.105,1.8-.967,1.981-3,4.474-2.433,1.484.336,3.284,2.537,4.865,2.147s1.834-3.019,2.176-4.225Z" transform="translate(297.953 -206.158)"/><path class="k" d="M-296.245,234.453a8.548,8.548,0,0,0,5.029-1.761c1.264-1.117,2.036-2.883,3.168-3.99.109.441.145.935.272,1.379,1.823.09,3.721-.151,5.388.375,1.571.5,3.285,1.592,4.992.957A13.606,13.606,0,0,0-275.344,230c.8-.474,2.121-.7.608-1.444a6.439,6.439,0,0,0-2.687-.021,3.188,3.188,0,0,1-2.156-.336c-.143.928-6.845,1.005-7.94.985-.025-.746-.923-3.223-1.585-3.665-1.34-.9-1.582,1.759-2.052,2.628-.617,1.143-1.295,2.712-2.4,3.456-.6.4-1.358.361-1.925.8-.61.473-.729,1.308-.9,1.535" transform="translate(331.072 -206.753)"/><path class="k" d="M-331.129,222.506c-.14.234-.3-.588-.764-.862a3.186,3.186,0,0,0-1.668-.161c-.954.039-2.033.21-3.044.157-1.312-.069-1.006-.375-2.043-1.213a4,4,0,0,0-2.851-.867c-1.22.154-1.774,1.025-2.589-.1-.482-.665-.507-1.692-1.031-2.433-1.489-2.1-3.408-.38-5.185-1.469-.84-.515-1.022-2.01-.9-2.9.769.285,1.523,1.255,2.282,1.392,1.02.184,1.98-.421,3.072-.228,2.63.467,2.738,2.53,4.1,4.2.828,1.016,1.768.483,2.819.892.881.343.98,1.338,1.654,1.675,1.8.9,4.5-1.108,5.86,1.047a3.553,3.553,0,0,1,.291.739" transform="translate(361.732 -199.671)"/><path class="k" d="M-365.918,189.542c-1.456.779-7.214.874-7.023,3.438.927.157,1.635-.49,2.522-.345.126,1.069-1.479.734-1.242,1.881,1.138.263,2.35-.9,3.414-1.117a5.245,5.245,0,0,1-.341,1.63c1.957-.1,1.305.615,2.029,1.81.333.553,1.824,1.626,2.183.769s-1.585-1.8-1.77-2.659c-.13-.6.556-.811-.154-1.34-.409-.3-1.414-.089-1.91-.122a5.24,5.24,0,0,1,1-.839,5.255,5.255,0,0,0-2.143-.307c.048-.608,5.98-1.124,4.973-2.925" transform="translate(373.862 -186.678)"/></g><g transform="translate(11.649)"><path class="ax" d="M-283.986,155.711c0,8.833-10.243,17.282-35.463,17.282-22.4,0-35.461-11.266-35.461-17.282,0-10.626,15.876-27.78,35.461-27.78S-283.986,145.342-283.986,155.711Z" transform="translate(354.909 -127.931)"/><path class="ak" d="M-286.409,172.647a23.578,23.578,0,0,1-13.634,17.991c-17.331,7.937-41.84-.772-54-14.26-.03-.031-.052-.066-.082-.1a14.287,14.287,0,0,0-.781,4.421c0,6.016,13.057,17.282,35.461,17.282,25.22,0,35.463-8.449,35.463-17.282A17.452,17.452,0,0,0-286.409,172.647Z" transform="translate(354.909 -152.919)"/><path class="ay" d="M-304.592,198.44c-2.689-1.046-1.92,3.466,0,4.794s13.791,3.46,14.21,2.145C-289.9,203.858-301.9,199.485-304.592,198.44Z" transform="translate(327.763 -167.245)"/><path class="ay" d="M-331.677,181.463c-8.239-4.819-13.124-11.372-15.173-9.31-3.466,3.488,2.878,8.411,11.138,12.667C-329.515,188.014-329.888,182.51-331.677,181.463Z" transform="translate(350.946 -152.425)"/><path class="ak" d="M-265.767,179.33c2.25.266,4.672-.6,6.913-.8a22.221,22.221,0,0,0,6.017-1.732c4.24-1.53,8.413-3.887,11.231-7.485,1.949-2.487,4.6-7.571,2.756-10.6a22.078,22.078,0,0,0-4.254-4.506c-1.325-1.163-2.986-2.77-4.64-3.393-5.455-2.058-3.991,6.413-4.452,9.314-.8,5.029-4.288,10.589-8.705,13.218-1.712,1.018-5.584,2.869-5.505,5.217Z" transform="translate(305.454 -140.54)"/><path class="al" d="M-339.82,145.682c1.286.455,2.773,3.177,3.619,4.327a13.576,13.576,0,0,0,4.83,4.092c3.834,1.968,7.876,3.578,11.772,5.507a28.556,28.556,0,0,0,7.047,2.106c1.95.406,3.949,1,6.017.324a24.432,24.432,0,0,0,6.4-2.693c2.077-1.452,2.625-3.927,3.173-6.238.5-2.085,1.568-4.062,2.081-6.137.525-2.109.085-4.486.855-6.536.731-1.95,1.544-3.585-.732-4.9a38.5,38.5,0,0,0-5.633-2.528,36.921,36.921,0,0,0-12.831-2.177,27.232,27.232,0,0,0-7.269,1.28c-2.379.662-4.369,1.944-6.657,2.845a29.739,29.739,0,0,0-7.176,4.736,19.03,19.03,0,0,0-4.6,5.093Z" transform="translate(346.477 -129.552)"/><path class="az" d="M-288.95,168.57c-.325-.161-.5-.476-.386-.7s.467-.282.792-.121,1.321.872,1.207,1.1S-288.623,168.73-288.95,168.57Z" transform="translate(318.285 -150.129)"/><path class="az" d="M-255.151,149.455c.363-.018.667.174.679.426s-.274.472-.634.489-1.579-.125-1.591-.383S-255.513,149.471-255.151,149.455Z" transform="translate(300.027 -139.958)"/><path class="az" d="M-280.979,160.328c.122-.34.416-.547.654-.462s.331.434.207.773-.723,1.41-.966,1.321S-281.1,160.668-280.979,160.328Z" transform="translate(313.715 -145.766)"/><path class="az" d="M-302.106,160.276c-.325-.16-.5-.476-.388-.7s.465-.281.791-.12,1.323.872,1.207,1.1S-301.781,160.435-302.106,160.276Z" transform="translate(325.637 -145.494)"/><path class="az" d="M-291.241,148.467c.362-.016.666.176.678.427s-.273.473-.635.488-1.579-.124-1.59-.383S-291.6,148.484-291.241,148.467Z" transform="translate(320.195 -139.406)"/><path class="az" d="M-303.6,141.34c.124-.342.417-.548.654-.462s.331.433.208.774-.722,1.409-.965,1.32S-303.72,141.679-303.6,141.34Z" transform="translate(326.353 -135.155)"/><path class="az" d="M-297.225,175.127c-.325-.16-.5-.475-.387-.7s.466-.282.791-.121,1.322.872,1.208,1.1S-296.9,175.288-297.225,175.127Z" transform="translate(322.909 -153.794)"/><path class="az" d="M-304.784,165.5c.361-.016.667.174.679.428s-.272.472-.634.489-1.579-.124-1.592-.383S-305.147,165.522-304.784,165.5Z" transform="translate(327.763 -148.927)"/><path class="az" d="M-289.018,157.441c.123-.341.418-.548.656-.462s.331.433.207.774-.723,1.409-.966,1.32S-289.141,157.782-289.018,157.441Z" transform="translate(318.207 -144.153)"/><path class="az" d="M-319.661,158.358c-.325-.159-.5-.473-.387-.7a.587.587,0,0,1,.792-.122c.326.16,1.322.873,1.208,1.1S-319.336,158.519-319.661,158.358Z" transform="translate(335.447 -144.424)"/><path class="az" d="M-307.308,153.437c.362-.019.667.173.678.427s-.272.471-.634.488-1.579-.124-1.591-.384S-307.671,153.454-307.308,153.437Z" transform="translate(329.173 -142.184)"/><path class="az" d="M-318.835,146.71c.124-.341.417-.548.656-.462s.331.434.208.774-.724,1.41-.966,1.321S-318.958,147.051-318.835,146.71Z" transform="translate(334.869 -138.156)"/><path class="az" d="M-257.959,163.162c-.326-.16-.5-.475-.388-.7a.588.588,0,0,1,.793-.12c.325.161,1.32.873,1.207,1.1S-257.635,163.322-257.959,163.162Z" transform="translate(300.967 -147.108)"/><path class="az" d="M-246.066,168.058c.362-.017.666.174.678.428s-.274.471-.636.488-1.578-.124-1.59-.383S-246.427,168.075-246.066,168.058Z" transform="translate(294.95 -150.354)"/><path class="az" d="M-241.114,159.843c.123-.339.416-.547.653-.461s.333.433.207.774-.721,1.408-.964,1.321S-241.238,160.184-241.114,159.843Z" transform="translate(291.437 -145.495)"/><path class="az" d="M-264.475,171.235c-.325-.161-.5-.476-.387-.7s.465-.281.791-.12,1.321.872,1.208,1.1S-264.15,171.394-264.475,171.235Z" transform="translate(304.608 -151.619)"/><path class="az" d="M-250.7,159.765c.363-.018.666.174.679.428s-.272.47-.634.488-1.579-.125-1.592-.384S-251.058,159.781-250.7,159.765Z" transform="translate(297.538 -145.719)"/><path class="az" d="M-271.213,146.71c.123-.341.416-.548.655-.462s.331.434.207.774-.723,1.409-.966,1.321S-271.337,147.051-271.213,146.71Z" transform="translate(308.258 -138.156)"/><path class="az" d="M-261.953,180.187c-.325-.16-.5-.475-.386-.7s.466-.282.791-.121,1.322.873,1.208,1.1S-261.628,180.346-261.953,180.187Z" transform="translate(303.199 -156.621)"/><path class="az" d="M-255.152,174.616c.362-.017.666.174.678.427s-.272.472-.633.488-1.579-.124-1.591-.383S-255.513,174.633-255.152,174.616Z" transform="translate(300.027 -154.019)"/><path class="az" d="M-261.128,155.523c.124-.341.417-.548.654-.461s.332.434.207.773-.722,1.41-.965,1.321S-261.251,155.864-261.128,155.523Z" transform="translate(302.621 -143.081)"/><path class="az" d="M-281.808,177.3c-.325-.16-.5-.474-.387-.7s.467-.281.792-.122,1.322.873,1.207,1.1S-281.483,177.461-281.808,177.3Z" transform="translate(314.294 -155.009)"/><path class="az" d="M-269.914,176.79c.362-.019.666.173.678.426s-.272.472-.634.488-1.579-.124-1.591-.382S-270.277,176.807-269.914,176.79Z" transform="translate(308.278 -155.234)"/><path class="az" d="M-272.528,164.625c.123-.341.416-.549.654-.462s.331.432.206.773-.722,1.41-.965,1.321S-272.652,164.964-272.528,164.625Z" transform="translate(308.992 -148.167)"/><path class="az" d="M-275.507,140.338c.361-.017.666.174.678.427s-.272.472-.634.489-1.579-.125-1.591-.384S-275.869,140.354-275.507,140.338Z" transform="translate(311.402 -134.864)"/><path class="az" d="M-275.482,131.313c.124-.341.416-.548.654-.462s.332.433.208.774-.723,1.41-.967,1.321S-275.606,131.653-275.482,131.313Z" transform="translate(310.643 -129.552)"/><path class="az" d="M-249.3,153.947c-.325-.16-.5-.474-.386-.7s.466-.282.791-.12,1.322.871,1.207,1.1S-248.973,154.107-249.3,153.947Z" transform="translate(296.127 -141.958)"/><path class="az" d="M-243.545,144.7c.362-.017.666.175.677.428s-.272.471-.634.488-1.578-.124-1.591-.383S-243.907,144.72-243.545,144.7Z" transform="translate(293.542 -137.303)"/><path class="az" d="M-253.963,140.379c.124-.341.416-.549.655-.462s.33.433.207.774-.723,1.409-.966,1.32S-254.087,140.72-253.963,140.379Z" transform="translate(298.618 -134.618)"/><path class="az" d="M-268.517,142.73c-.326-.161-.5-.476-.387-.7a.585.585,0,0,1,.792-.12c.325.16,1.322.873,1.208,1.1S-268.193,142.89-268.517,142.73Z" transform="translate(306.867 -135.689)"/><path class="az" d="M-261.034,140.777c.362-.017.666.174.679.427s-.274.473-.636.488-1.577-.124-1.59-.382S-261.4,140.793-261.034,140.777Z" transform="translate(303.315 -135.109)"/><path class="az" d="M-264.1,136.451c.124-.341.416-.547.655-.461s.33.434.207.773-.722,1.41-.966,1.322S-264.22,136.793-264.1,136.451Z" transform="translate(304.28 -132.424)"/><path class="az" d="M-269.783,155.389c-.326-.16-.5-.474-.388-.7s.467-.281.792-.122,1.321.874,1.207,1.105S-269.459,155.55-269.783,155.389Z" transform="translate(307.575 -142.764)"/><path class="az" d="M-264.859,149.455c.362-.018.666.174.679.426s-.273.472-.634.489-1.58-.125-1.591-.383S-265.221,149.471-264.859,149.455Z" transform="translate(305.452 -139.958)"/><path class="az" d="M-280.98,144.862c.124-.341.417-.547.656-.461s.331.434.207.773-.723,1.41-.966,1.323S-281.1,145.2-280.98,144.862Z" transform="translate(313.715 -137.124)"/><path class="az" d="M-284.121,136.447c-.326-.161-.5-.475-.387-.7s.466-.281.792-.12,1.321.872,1.207,1.1S-283.8,136.607-284.121,136.447Z" transform="translate(315.587 -132.179)"/><path class="az" d="M-276.67,151.993c.362-.018.666.173.678.426s-.273.472-.635.489-1.578-.123-1.59-.383S-277.033,152.01-276.67,151.993Z" transform="translate(312.052 -141.377)"/><path class="az" d="M-292.611,141.34c.123-.342.415-.548.654-.462s.331.433.207.774-.722,1.409-.966,1.32S-292.736,141.679-292.611,141.34Z" transform="translate(320.215 -135.155)"/></g></g></g></g></g><g class="ba" transform="translate(562 1880)"><circle class="bb" cx="125" cy="125" r="125"/><circle class="bc" cx="125" cy="125" r="123.5"/></g><g class="ba" transform="translate(579 1897)"><circle class="bb" cx="108" cy="108" r="108"/><circle class="bc" cx="108" cy="108" r="106.5"/></g></g></svg>