<svg xmlns="http://www.w3.org/2000/svg" width="24.646" height="24.646" viewBox="0 0 24.646 24.646"><defs><style>.a{fill:#7d3b8a;}</style></defs><g transform="translate(0)"><path class="a" d="M46,56.1A10.109,10.109,0,1,0,56.109,46,10.12,10.12,0,0,0,46,56.1Zm19.255,0a9.146,9.146,0,1,1-9.146-9.146A9.156,9.156,0,0,1,65.255,56.1Zm0,0" transform="translate(-43.786 -43.782)"/><path class="a" d="M21.843,8.234a12.358,12.358,0,0,0-7-4.24.481.481,0,1,0-.2.943A11.362,11.362,0,1,1,10.29,4.88a.481.481,0,0,0-.171-.947,12.325,12.325,0,1,0,11.725,4.3Zm0,0" transform="translate(0 -3.736)"/><path class="a" d="M247.774.963h.038a.481.481,0,0,0,0-.963h-.038a.481.481,0,0,0,0,.963Zm0,0" transform="translate(-235.393)"/><path class="a" d="M246.129,86.149a.482.482,0,1,0,.141-.34A.486.486,0,0,0,246.129,86.149Zm0,0" transform="translate(-234.281 -81.544)"/><path class="a" d="M246.352,406.328a.482.482,0,1,0,.34.141A.483.483,0,0,0,246.352,406.328Zm0,0" transform="translate(-234.036 -386.769)"/><path class="a" d="M406.809,247.1a.481.481,0,1,0-.34-.141A.485.485,0,0,0,406.809,247.1Zm0,0" transform="translate(-386.769 -234.288)"/><path class="a" d="M86.153,245.867a.481.481,0,1,0,.34.141A.484.484,0,0,0,86.153,245.867Zm0,0" transform="translate(-81.548 -234.032)"/><path class="a" d="M166.43,107.078a.481.481,0,1,0,.34.141A.485.485,0,0,0,166.43,107.078Zm0,0" transform="translate(-157.961 -101.924)"/><path class="a" d="M326.532,384.918a.482.482,0,1,0,.34.141A.485.485,0,0,0,326.532,384.918Zm0,0" transform="translate(-310.356 -366.389)"/><path class="a" d="M385.4,166.912a.482.482,0,1,0-.34-.141A.484.484,0,0,0,385.4,166.912Zm0,0" transform="translate(-366.393 -157.961)"/><path class="a" d="M107.559,326.047a.481.481,0,1,0,.34.141A.485.485,0,0,0,107.559,326.047Zm0,0" transform="translate(-101.924 -310.352)"/><path class="a" d="M107.692,165.719a.482.482,0,1,0,.34.141A.484.484,0,0,0,107.692,165.719Zm0,0" transform="translate(-102.05 -157.742)"/><path class="a" d="M385.27,327.24a.481.481,0,1,0-.34-.141A.485.485,0,0,0,385.27,327.24Zm0,0" transform="translate(-366.267 -310.571)"/><path class="a" d="M326.758,108.17a.481.481,0,1,0-.34-.141A.485.485,0,0,0,326.758,108.17Zm0,0" transform="translate(-310.571 -102.046)"/><path class="a" d="M166.2,384.789a.481.481,0,1,0,.34.141A.482.482,0,0,0,166.2,384.789Zm0,0" transform="translate(-157.742 -366.266)"/><path class="a" d="M197.317,156.87l-3.09,3.09a1.772,1.772,0,0,0-1.743,0l-1.477-1.477a.481.481,0,0,0-.681.681l1.477,1.477a1.778,1.778,0,1,0,3.1,0L198,157.551a.481.481,0,0,0-.681-.681Zm-3.963,5.453a.815.815,0,1,1,.815-.815A.816.816,0,0,1,193.354,162.323Zm0,0" transform="translate(-181.032 -149.185)"/><path class="a" d="M207.344,340h-4.183a.481.481,0,1,0,0,.963h4.183a.481.481,0,1,0,0-.963Zm0,0" transform="translate(-192.923 -323.63)"/></g></svg>