<svg xmlns="http://www.w3.org/2000/svg" xmlns:xlink="http://www.w3.org/1999/xlink" width="250" height="250" viewBox="0 0 250 250"><defs><style>.a,.ay,.b{fill:none;}.a{stroke:#707070;}.c{clip-path:url(#a);}.d,.j{fill:#d1d1d1;}.e{fill:#fff;}.f,.i{fill:#ff506e;}.g{clip-path:url(#b);}.h{fill:#fcc3d2;}.aa,.ac,.aj,.am,.i,.o,.s,.x{opacity:0.6;}.aa,.ac,.ae,.af,.ai,.aj,.ak,.am,.aq,.as,.at,.av,.aw,.i,.j,.o,.q,.s,.v,.x{mix-blend-mode:multiply;isolation:isolate;}.k{fill:#b0f0ff;}.l,.o{fill:#f46438;}.m{fill:#f3f4d7;}.n{fill:#333132;}.af,.p,.q{fill:#1a894a;}.aw,.q{opacity:0.4;}.ak,.r,.s{fill:#f9954b;}.t,.v{fill:#ffe89f;}.u{fill:#ddc06c;}.ae,.v{opacity:0.7;}.w{fill:#193b91;}.au,.av,.aw,.x{fill:#3c59c6;}.y{fill:#6b92f2;}.aa,.z{fill:#6cc433;}.ab,.ac,.ae{fill:#54cce8;}.ad{fill:#b3f4ff;}.af,.ak,.aq{opacity:0.5;}.ag{fill:#22a858;}.ah{fill:#fdffde;}.ai{fill:#e7e8ca;}.aj{fill:#eae1e5;}.al,.am{fill:#ffa17f;}.an{fill:#8e1043;}.ao{fill:#d6d6d6;}.ap,.aq{fill:#494949;}.ar,.as{fill:#fff24d;}.at{fill:#d8c72b;}.av{opacity:0.8;}.ax{fill:#cae9fc;}.ay{stroke:#7d3b8a;stroke-width:3px;}.az{stroke:none;}</style><clipPath id="a"><circle class="a" cx="108" cy="108" r="108" transform="translate(-0.197 -0.197)"/></clipPath><clipPath id="b"><path class="b" d="M281.085,124.616c2.949-1.551,13.268,1.6,14.422,3.477s-3.8,7.439-5.337,16.243S284.423,159.9,282.1,161.55s-11.535-.645-12.892-4.761C266.777,149.425,278.137,126.167,281.085,124.616Z" transform="translate(-268.868 -124.2)"/></clipPath></defs><g transform="translate(-326.001 -1097)"><g transform="translate(-235.67 -782.67)"><g class="c" transform="translate(578.867 1896.867)"><g transform="translate(24.962 17.048)"><g transform="translate(82.678 7.831)"><path class="d" d="M279.846,151.067a1.485,1.485,0,0,1-1.908.879l-29.851-11.021a1.486,1.486,0,0,1-.879-1.909l17.455-47.273a1.485,1.485,0,0,1,1.908-.879l29.851,11.021a1.486,1.486,0,0,1,.879,1.909Z" transform="translate(-247.116 -90.771)"/><path class="e" d="M325,118.384a1.486,1.486,0,0,1-1.909.879l-10.569-3.9a1.486,1.486,0,0,1-.88-1.909l1.93-5.226a1.486,1.486,0,0,1,1.908-.879l10.57,3.9a1.486,1.486,0,0,1,.879,1.908Z" transform="translate(-279.64 -99.091)"/><path class="f" d="M281.085,124.616c2.949-1.551,13.268,1.6,14.422,3.477s-3.8,7.439-5.337,16.243S284.423,159.9,282.1,161.55s-11.535-.645-12.892-4.761C266.777,149.425,278.137,126.167,281.085,124.616Z" transform="translate(-258.095 -107.644)"/><g transform="translate(10.773 16.556)"><g class="g"><g transform="translate(3.751 -2.605)"><path class="h" d="M290.906,118.941s-15.135,27.407-13.836,41.525C274.413,152.886,280.391,127.641,290.906,118.941Z" transform="translate(-276.441 -118.941)"/><path class="h" d="M307.882,125.653s-15.136,27.407-13.837,41.525C291.389,159.6,297.366,134.353,307.882,125.653Z" transform="translate(-285.009 -122.329)"/><path class="h" d="M295.5,120.653s-12.886,28.238-14.508,41.278C280.779,155.254,288.256,130.563,295.5,120.653Z" transform="translate(-278.734 -119.805)"/><path class="h" d="M300.03,122.327s-12.886,28.238-14.508,41.278C285.312,156.928,292.789,132.236,300.03,122.327Z" transform="translate(-281.022 -120.65)"/></g></g></g><path class="i" d="M290.22,146.592c1.535-8.8,6.492-14.365,5.337-16.243a6.381,6.381,0,0,0-2.611-1.679c-1.074,2.8-3.99,7.485-5.1,13.877-1.535,8.8-5.746,15.563-8.072,17.213-1.775,1.259-7.56.218-10.8-2.176a6.76,6.76,0,0,0,.289,1.461c1.357,4.116,10.568,6.41,12.892,4.761S288.685,155.4,290.22,146.592Z" transform="translate(-258.145 -109.901)"/><path class="j" d="M296.422,112.009l-3.2-1.18c.048,30.131-28.3,42.885-40.225,22.625l-5.791,15.685a1.486,1.486,0,0,0,.879,1.909l29.851,11.021a1.485,1.485,0,0,0,1.908-.879L297.3,113.918A1.486,1.486,0,0,0,296.422,112.009Z" transform="translate(-247.116 -100.895)"/></g><g transform="translate(118.413 39.077)"><path class="k" d="M362.442,172.766c-5.505,16.193-24.927,18.691-37.638,6.45a73.632,73.632,0,0,1,7.31-19.73l-.505-5.624c1.6.453,4.638,5.02,4.638,5.02l10.592,1.89.622.111,10.592,1.89s4.435-3.234,6.088-3.106l-2.419,5.1A62.565,62.565,0,0,1,362.442,172.766Z" transform="translate(-322.063 -153.862)"/><path class="e" d="M362.518,197.9s-3.735-4.44-8.512-2.106-6.178.323-10.975,3.24c-4.034-.888-7.366-1.485-10.041-.116-3.054-1.214-5.8.56-6.4,3.891s18.479,13.443,18.479,13.443l17.025-6.6Z" transform="translate(-322.959 -174.684)"/><g transform="translate(0 10.953)"><path class="l" d="M322.237,189.352q-.117.51-.227,1.027c12.711,12.241,32.133,9.743,37.638-6.45a63.611,63.611,0,0,0-.713-7.952c.188,1.1,3.9,23.935-7.019,41.129a18.27,18.27,0,0,1,.535,5.462l-4.7-4.7-10.917-1.947-.622-.111L325.3,213.866l-6.03,2.782a18.23,18.23,0,0,1,2.391-4.94A51.8,51.8,0,0,1,322.237,189.352Z" transform="translate(-319.269 -175.977)"/></g><path class="e" d="M353.962,202.016c.113.371.417.608.678.528h0c.262-.079.383-.445.27-.815l-.431-1.422c-.112-.37-.415-.607-.677-.527h0c-.262.079-.382.444-.271.815Z" transform="translate(-336.541 -177.031)"/><path class="m" d="M361.288,210.772c.113.371.417.608.678.528h0c.262-.08.383-.445.27-.815l-.431-1.422c-.112-.37-.415-.607-.677-.527h0c-.261.079-.383.444-.27.815Z" transform="translate(-340.239 -181.45)"/><path class="m" d="M340.529,208.507c.112.371.416.607.677.528h0c.262-.08.383-.444.27-.815l-.431-1.422c-.112-.37-.416-.607-.678-.528h0c-.261.079-.382.445-.269.815Z" transform="translate(-329.761 -180.307)"/><path class="m" d="M388.718,202.208c.113.371.416.608.678.528h0c.262-.079.383-.444.27-.815l-.431-1.422c-.112-.371-.415-.607-.677-.528h0c-.262.079-.383.445-.271.815Z" transform="translate(-354.085 -177.127)"/><path class="m" d="M379.157,201.548a.626.626,0,0,0,.221-.83h0a.626.626,0,0,0-.856.069l-1.142.952a.627.627,0,0,0-.221.83h0a.627.627,0,0,0,.856-.069Z" transform="translate(-348.445 -177.442)"/><path class="m" d="M359.142,209.076a.46.46,0,0,0-.107.635h0a.46.46,0,0,0,.6.222l.752-.437a.458.458,0,0,0,.108-.634h0a.459.459,0,0,0-.6-.223Z" transform="translate(-339.301 -181.487)"/><path class="m" d="M367.572,213.542a.459.459,0,0,0-.107.634h0a.459.459,0,0,0,.6.223l.753-.436a.46.46,0,0,0,.107-.634h0a.46.46,0,0,0-.6-.223Z" transform="translate(-343.556 -183.741)"/><path class="m" d="M341.859,209.632a.46.46,0,0,0-.107.635h0a.459.459,0,0,0,.6.222l.752-.436a.459.459,0,0,0,.108-.634h0a.459.459,0,0,0-.6-.222Z" transform="translate(-330.578 -181.768)"/><path class="m" d="M339.773,208.229a.46.46,0,0,0-.632.123h0a.459.459,0,0,0,0,.644l.674.551a.459.459,0,0,0,.631-.123h0a.458.458,0,0,0,0-.644Z" transform="translate(-329.234 -181.263)"/><path class="m" d="M377.646,203.574a.46.46,0,0,0-.107.634h0a.458.458,0,0,0,.6.222l.753-.436a.459.459,0,0,0,.107-.635h0a.46.46,0,0,0-.6-.222Z" transform="translate(-348.641 -178.71)"/><path class="m" d="M386.049,205.781a.459.459,0,0,0-.107.635h0a.458.458,0,0,0,.6.222l.753-.436a.459.459,0,0,0,.107-.634h0a.459.459,0,0,0-.6-.222Z" transform="translate(-352.882 -179.824)"/><path class="e" d="M338.056,200.994c-.33.2-.482.556-.339.789h0a.627.627,0,0,0,.857.055l1.267-.778c.33-.2.481-.556.338-.789h0a.625.625,0,0,0-.856-.055Z" transform="translate(-328.553 -177.19)"/><path class="e" d="M391.627,197.263c-.329.2-.481.556-.338.789h0a.626.626,0,0,0,.857.055l1.265-.777c.33-.2.482-.556.339-.789h0a.625.625,0,0,0-.857-.055Z" transform="translate(-355.594 -175.307)"/><path class="e" d="M362.095,202.451c.112.371.415.607.677.528h0c.262-.08.383-.444.27-.815l-.43-1.422c-.112-.37-.416-.607-.678-.527h0c-.262.079-.384.444-.27.815Z" transform="translate(-340.646 -177.25)"/><path class="e" d="M371.97,197.912c-.363.134-.581.451-.487.707h0c.094.257.466.357.829.223l1.395-.514c.364-.134.581-.451.487-.707h0c-.094-.257-.465-.356-.829-.222Z" transform="translate(-345.613 -175.807)"/><path class="e" d="M381.727,194.8c-.387,0-.7.214-.707.487h0c0,.273.309.5.7.5l1.486.016c.386,0,.7-.214.706-.487h0c0-.274-.308-.5-.7-.5Z" transform="translate(-350.437 -174.527)"/><path class="e" d="M327.714,204.8c-.387,0-.7.214-.707.488h0c0,.273.309.5.7.5l1.486.016c.387,0,.7-.214.707-.487h0c0-.273-.309-.5-.7-.5Z" transform="translate(-323.175 -179.575)"/><path class="n" d="M338.049,232.468a1.486,1.486,0,0,0,1.2,1.723l16.028,2.86a1.486,1.486,0,0,0,1.723-1.2l.576-3.23a1.486,1.486,0,0,0-1.2-1.723l-16.028-2.86a1.485,1.485,0,0,0-1.724,1.2Z" transform="translate(-328.736 -191.289)"/><path class="o" d="M352.451,244.525l-4.7-4.7-10.917-1.947-.622-.111L325.3,235.823l-6.03,2.782a18.23,18.23,0,0,1,2.391-4.94,42.714,42.714,0,0,1-.843-5.94c18.715,7.724,31.056-.28,38.066-8.247a50.818,50.818,0,0,1-6.966,19.584A18.27,18.27,0,0,1,352.451,244.525Z" transform="translate(-319.269 -186.982)"/></g><g transform="translate(2.413 42.87)"><g transform="translate(0 8.049)"><path class="p" d="M92.767,182.439a7.8,7.8,0,0,1-7.72-3.7c3.551-2.058,7.526-.675,10.051,2.759A2.852,2.852,0,0,1,92.767,182.439Z" transform="translate(-85.047 -177.773)"/><path class="q" d="M88.8,177.986c3.618-.36,6.984,2.333,4.345,4.511a6.824,6.824,0,0,0,1.516-.053,2.852,2.852,0,0,0,2.331-.943C94.9,178.658,91.816,177.227,88.8,177.986Z" transform="translate(-86.941 -177.779)"/></g><g transform="translate(8.118)"><path class="p" d="M106.141,169.208a7.8,7.8,0,0,0-3.769-7.688c-2.027,3.569-.609,7.532,2.845,10.027A2.854,2.854,0,0,0,106.141,169.208Z" transform="translate(-101.438 -161.52)"/><path class="q" d="M101.639,165.285c-.329,3.62,2.393,6.963,4.548,4.306a6.833,6.833,0,0,1-.04,1.517,2.854,2.854,0,0,1-.924,2.339C102.362,171.381,100.906,168.308,101.639,165.285Z" transform="translate(-101.445 -163.42)"/></g><g transform="translate(2.491 1.248)"><path class="p" d="M95.57,173.636a10.069,10.069,0,0,1-5.48-9.6c5.282.421,8.487,4.808,8.648,10.306A3.683,3.683,0,0,1,95.57,173.636Z" transform="translate(-90.077 -164.039)"/><path class="q" d="M95.207,165.172c4.105,2.273,5.7,7.6,1.3,7.979a8.823,8.823,0,0,0,1.649,1.057,3.683,3.683,0,0,0,3.168.709C101.194,170.363,98.967,166.579,95.207,165.172Z" transform="translate(-92.666 -164.611)"/></g><path class="r" d="M96.851,180.745s5.458-6.162,8.082-7.495,20.824,27.041,18.6,29.012S95.962,183.849,96.851,180.745Z" transform="translate(-90.993 -167.418)"/><path class="s" d="M110.5,173.251a14.406,14.406,0,0,0-2.642,1.973c2.183-.475,4.7.4,6.578,3.307,2.688,4.153-3.117,8.057-6.119,8.4,3.394,2.617,9-5.992,12.123-.322s-.765,6.883-2.679,7.338c1.926,1.519,3.612-1.712,5.378-.466,1.464,1.033,2.346,3.656-1.478,5.227,3.745,2.575,6.739,4.173,7.44,3.552C131.324,200.292,113.125,171.917,110.5,173.251Z" transform="translate(-96.561 -167.418)"/></g><g transform="translate(81.338 36.896)"><path class="t" d="M305.9,160.7c-.036.016-.072.035-.109.05a3.067,3.067,0,0,1-3.389-4.925l-4.573-6.37-19.494,36.32,35.485-14.042Z" transform="translate(-261.534 -149.457)"/><path class="u" d="M326.233,183.791a1.729,1.729,0,0,1,.139.269c.461,1.165-.424,2.608-1.978,3.223a3.639,3.639,0,0,1-2.062.208,2.863,2.863,0,0,0,3.508.727c1.554-.615,2.439-2.057,1.978-3.222A2.076,2.076,0,0,0,326.233,183.791Z" transform="translate(-283.74 -166.787)"/><path class="u" d="M296.522,204.169a.969.969,0,0,1,.072.141,1.418,1.418,0,0,1-1.028,1.674,1.891,1.891,0,0,1-1.072.108,1.49,1.49,0,0,0,1.824.378,1.419,1.419,0,0,0,1.028-1.674A1.083,1.083,0,0,0,296.522,204.169Z" transform="translate(-269.689 -177.073)"/><path class="u" d="M313.186,169.759a.891.891,0,0,1,.071.14,1.418,1.418,0,0,1-1.028,1.674,1.891,1.891,0,0,1-1.071.108,1.487,1.487,0,0,0,1.822.377,1.419,1.419,0,0,0,1.029-1.674A1.081,1.081,0,0,0,313.186,169.759Z" transform="translate(-278.1 -159.704)"/><path class="l" d="M280.706,149.457,268.853,154.2l-24.444,38.2,17.122-6.776Z" transform="translate(-244.409 -149.457)"/><path class="o" d="M254.578,177.26l-10.169,15.89,17.122-6.777,18.781-35.414C274.714,161.267,258.931,179.406,254.578,177.26Z" transform="translate(-244.409 -150.215)"/><path class="v" d="M278.338,192.774l35.485-14.042-5.534-7.71c-1.416,4.261-4.206,8.907-9.616,8.348-8.855-.916-5.278-13.658-4.526-16.05Z" transform="translate(-261.534 -156.454)"/></g><g transform="translate(84.132 0)"><g transform="translate(0 15.932)"><path class="p" d="M271.807,181.264A1.434,1.434,0,0,1,270.753,183l-1.069.261a1.435,1.435,0,0,1-1.735-1.053l-17.856-73.043a1.434,1.434,0,0,1,1.053-1.734l1.069-.261a1.434,1.434,0,0,1,1.735,1.053Z" transform="translate(-250.051 -107.127)"/><path class="q" d="M253.946,107.169l-.465.113,9.565,39.125a1.434,1.434,0,0,1-1.053,1.734l-.605.148,8.292,33.918a1.435,1.435,0,0,0,1.735,1.053l1.069-.261a1.434,1.434,0,0,0,1.053-1.734l-17.857-73.043A1.434,1.434,0,0,0,253.946,107.169Z" transform="translate(-251.782 -107.127)"/></g><g transform="translate(10.348)"><path class="p" d="M1.985,0h0A1.985,1.985,0,0,1,3.971,1.985V76.078a1.985,1.985,0,0,1-1.985,1.985h0A1.985,1.985,0,0,1,0,76.078V1.985A1.985,1.985,0,0,1,1.985,0Z" transform="translate(0)"/><path class="q" d="M273.481,74.959H273v40.277a1.436,1.436,0,0,1-1.435,1.435h-.623v34.917a1.435,1.435,0,0,0,1.435,1.435h1.1a1.435,1.435,0,0,0,1.435-1.435V76.394A1.435,1.435,0,0,0,273.481,74.959Z" transform="translate(-270.945 -74.959)"/></g><g transform="translate(11.722 2.17)"><path class="p" d="M302.2,101.592,287.334,80.037a1.434,1.434,0,0,0-1.446-.6l-.607-.081a1.435,1.435,0,0,0-1.612,1.233l-9.937,74.534a1.434,1.434,0,0,0,1.232,1.612l1.091.146a1.435,1.435,0,0,0,1.612-1.233L286.9,86.4l12.022,17.425a1.435,1.435,0,0,0,1.993.379l.91-.619A1.434,1.434,0,0,0,302.2,101.592Z" transform="translate(-273.719 -79.34)"/><path class="q" d="M300.915,109.12l.388-.264c-2.811-4.047-14.316-20.453-15.645-19.754-1.426.751-.945,32.788-7.333,36.48l-4.594,34.454a1.434,1.434,0,0,0,1.232,1.612l1.091.146a1.435,1.435,0,0,0,1.612-1.233L286.9,91.316l12.022,17.425A1.435,1.435,0,0,0,300.915,109.12Z" transform="translate(-273.719 -84.257)"/></g></g><g transform="translate(19.326 16.183)"><path class="l" d="M139.312,133.256a11.016,11.016,0,0,0-8.018,5.12,11.018,11.018,0,0,0-9.026,3.007c-4.61,4.614-3.953,12.745,1.468,18.163S137.289,165.617,141.9,161c.042-.043.081-.087.122-.13.059-.005.118-.007.178-.013,6.487-.679,11.1-7.408,10.3-15.031S145.8,132.578,139.312,133.256Z" transform="translate(-119.198 -120.539)"/><path class="p" d="M150.27,118.6c-1.878,5.038-8.362,7.271-8.362,7.271s-3.437-5.933-1.558-10.97,8.362-7.27,8.362-7.27S152.15,113.569,150.27,118.6Z" transform="translate(-129.591 -107.635)"/><path class="q" d="M148.97,107.635a17.311,17.311,0,0,0-2.515,1.172,9.865,9.865,0,0,1,1.035,4.113c.073,5.376-5.162,9.805-5.162,9.805a17.5,17.5,0,0,1-2.03-2.015,18.488,18.488,0,0,0,1.867,5.166s6.483-2.233,8.362-7.271S148.97,107.635,148.97,107.635Z" transform="translate(-129.849 -107.635)"/><path class="o" d="M156.71,146.7c-.577-5.515-3.827-9.984-8.037-11.778,3.343,14.182-10.958,25.707-21.137,25.069.134.143.268.285.409.425,5.421,5.419,13.553,6.071,18.163,1.458.042-.043.081-.087.122-.13.059-.005.118-.007.178-.013C152.9,161.049,157.507,154.32,156.71,146.7Z" transform="translate(-123.407 -121.406)"/></g><g transform="translate(48.443 37.54)"><path class="w" d="M234.462,165l-3.544-7.317-5.145,8.231,4.688,1.2Z" transform="translate(-202.108 -154.254)"/><rect class="w" width="8.918" height="66.025" transform="translate(23.437 10.746)"/><path class="x" d="M229.37,215.59V164.544l1.981-5.485-.666-1.374L226.112,165h-.437l-.364,3.307v62.718h8.918v-10.9C228.815,220.772,229.37,215.59,229.37,215.59Z" transform="translate(-201.874 -154.254)"/><path class="y" d="M177.989,165l4.973-7.317H206.8L202.683,165l-23.322.972Z" transform="translate(-177.989 -154.254)"/><rect class="y" width="23.845" height="3.43" transform="translate(4.973 0)"/><path class="x" d="M197.824,153.217H182.961v.972s16.131.222,17.164,1.329c1.415,1.517-12.867,3.967-20.2,3.14l-1.934,2.847,1.372.972,23.322-.972,4.116-7.317h.007v-3.43h-9.319A2.14,2.14,0,0,1,197.824,153.217Z" transform="translate(-177.989 -150.759)"/><rect class="y" width="24.694" height="66.025" transform="translate(0 10.746)"/><rect class="e" width="24.694" height="18.006" transform="translate(0 25.209)"/><path class="x" d="M177.989,173.025c4.6-.414,19.855,2.709,21.093,14.239,1.829,17.035-2,31.988-21.093,31.141v20.078h24.694V172.458H177.989Z" transform="translate(-177.989 -161.711)"/></g><g transform="translate(17.981 36.969)"><g transform="translate(6.248 0)"><path class="z" d="M143.678,187.429l1.868-.425c-.5-3.234-1.384-11.572,1.993-14.962,4.232-4.249,1.5-11.428,1.5-11.428a35.764,35.764,0,0,1-4.783,4.237c6.094-8.094-1.344-13.105-1.344-13.105s-.858-.763-2.388,2.733c-.679-2.438-3.807-4.421-4.416-4.787l-.02-.087-.036.053-.055-.032.02.087c-.389.594-2.35,3.737-1.906,6.228-2.894-2.489-3.337-1.43-3.337-1.43s-4.532,7.739,4.466,12.395a35.729,35.729,0,0,1-6.146-1.748s.649,7.653,6.3,9.649C139.913,176.4,142.725,184.3,143.678,187.429Z" transform="translate(-129.097 -149.605)"/><path class="aa" d="M144.437,168.616c4.094-5.438,2.081-9.482.318-11.552,2.594,5.437-.912,12.359-2.026,13.242-3.84-2.136-2.451-8.953-6.444-11.465,3.53,3.781,2.265,10.843,4.9,15.511-3.759-.58-4.676-5.5-4.676-5.5s-.342,6.305,3.947,8.612c-6.27.339-9.57-4.424-11.008-7.388.429,2.213,1.836,6.985,6.129,8.5,4.512,1.593,7.324,9.492,8.277,12.622l1.868-.425c-.5-3.234-1.384-11.572,1.993-14.962,4.232-4.249,1.5-11.428,1.5-11.428A35.763,35.763,0,0,1,144.437,168.616Z" transform="translate(-129.276 -153.37)"/></g><g transform="translate(17.521 8.523)"><path class="z" d="M156.049,204.135l1.865.44c.978-3.122,3.853-11,8.379-12.555,5.671-1.95,6.381-9.6,6.381-9.6a35.71,35.71,0,0,1-6.16,1.7c9.035-4.584,4.565-12.358,4.565-12.358s-.435-1.063-3.348,1.4c.464-2.488-1.471-5.646-1.856-6.243l.021-.087-.056.032-.036-.053-.02.087c-.612.362-3.756,2.32-4.454,4.751-1.5-3.508-2.366-2.753-2.366-2.753s-7.478,4.952-1.449,13.095a35.692,35.692,0,0,1-4.749-4.275s-2.788,7.156,1.411,11.439C157.527,192.575,156.572,200.906,156.049,204.135Z" transform="translate(-151.859 -166.814)"/><path class="aa" d="M166.514,189.156c6.071-3.08,6.044-7.6,5.373-10.232-.065,6.025-6.262,10.695-7.651,11-2.507-3.608,1.743-9.117-.736-13.131,1.5,4.948-2.742,10.732-2.43,16.085-3.119-2.177-1.774-7-1.774-7s-3.084,5.509-.25,9.47c-5.779-2.457-6.644-8.186-6.63-11.481-.589,2.176-1.427,7.08,1.76,10.33,3.35,3.417,2.4,11.748,1.873,14.978l1.865.44c.978-3.122,3.853-11,8.379-12.555,5.671-1.95,6.381-9.6,6.381-9.6A35.708,35.708,0,0,1,166.514,189.156Z" transform="translate(-151.858 -171.849)"/></g><g transform="translate(0 23.774)"><path class="z" d="M143.74,228.439l1.427-1.279c-2-2.586-6.828-9.445-5.521-14.048,1.638-5.77-4.234-10.72-4.234-10.72a35.7,35.7,0,0,1-2.125,6.026c1.4-10.034-7.536-10.805-7.536-10.805s-1.12-.251-.761,3.549c-1.777-1.8-5.475-2.017-6.185-2.042l-.059-.066s0,.025-.005.064h-.064l.059.066c-.052.708-.241,4.407,1.357,6.37-3.738-.772-3.611.369-3.611.369s-.206,8.966,9.921,8.668a35.757,35.757,0,0,1-6.221,1.456s4.282,6.376,10.2,5.376C135.095,220.624,141.388,226.165,143.74,228.439Z" transform="translate(-116.481 -197.609)"/><path class="aa" d="M137.783,208.984c.939-6.742-2.784-9.3-5.329-10.254,4.907,3.494,5.2,11.248,4.656,12.56-4.394,0-6.489-6.637-11.2-6.895,4.921,1.592,7.244,8.38,11.815,11.181-3.568,1.317-6.759-2.542-6.759-2.542s2.761,5.679,7.63,5.614c-5.317,3.34-10.514.779-13.21-1.115,1.45,1.726,5,5.215,9.485,4.455,4.718-.8,11.011,4.744,13.363,7.017l1.427-1.279c-2-2.586-6.828-9.445-5.521-14.048,1.638-5.77-4.234-10.72-4.234-10.72A35.7,35.7,0,0,1,137.783,208.984Z" transform="translate(-120.977 -198.175)"/></g><g transform="translate(22.544 25.3)"><path class="z" d="M164.694,237.22l1.828.572c1.2-3.044,4.628-10.7,9.252-11.925,5.8-1.541,7.05-9.119,7.05-9.119A35.664,35.664,0,0,1,176.559,218c9.339-3.927,5.435-12,5.435-12s-.358-1.091-3.44,1.16c.64-2.448-1.065-5.737-1.407-6.36l.027-.085-.058.028-.032-.056-.026.085c-.636.318-3.912,2.046-4.782,4.422-1.247-3.607-2.163-2.915-2.163-2.915s-7.812,4.406-2.379,12.958a35.724,35.724,0,0,1-4.432-4.6s-3.291,6.94.591,11.511C166.992,225.794,165.446,234.036,164.694,237.22Z" transform="translate(-162.001 -200.689)"/><path class="aa" d="M176.559,222.856c6.275-2.639,6.571-7.147,6.089-9.822-.495,6-7.009,10.22-8.415,10.422-2.243-3.778,2.389-8.97.2-13.15,1.147,5.043-3.5,10.509-3.571,15.87-2.956-2.394-1.27-7.109-1.27-7.109s-3.469,5.275-.925,9.428c-5.589-2.863-6.043-8.639-5.793-11.924-.742,2.128-1.929,6.959,1.018,10.43,3.1,3.648,1.552,11.889.8,15.073l1.828.572c1.2-3.044,4.628-10.7,9.252-11.925,5.8-1.541,7.05-9.119,7.05-9.119A35.665,35.665,0,0,1,176.559,222.856Z" transform="translate(-162.001 -205.543)"/></g></g><g transform="translate(68.303 40.496)"><path class="k" d="M255.865,242.19V212.841c1.746-7.456,3.015-17.133-2.855-25.065s-6.821-10.788-6.821-19.037l-7.92-.158h-.013l-7.919.158c0,8.249-.952,11.106-6.822,19.037s-4.6,17.61-2.856,25.065V242.19s-6.98,34.585,2.063,45.372c2.538,2.7,10.312-.952,10.312-.952a7.1,7.1,0,0,0,5.222,2.38h.013a7.1,7.1,0,0,0,5.222-2.38s7.773,3.65,10.311.952C262.846,276.776,255.865,242.19,255.865,242.19Z" transform="translate(-218.089 -162.71)"/><path class="ab" d="M222.773,255.711c.082.374.166.745.251,1.109v29.033h35.205V256.82c.086-.364.169-.734.252-1.109Z" transform="translate(-220.453 -206.689)"/><path class="ac" d="M233.035,286.611a7.1,7.1,0,0,0,5.222,2.38h.013a7.1,7.1,0,0,0,5.222-2.38s7.773,3.65,10.311.952c9.042-10.787,2.062-45.372,2.062-45.372V212.841c1.746-7.456,3.015-17.133-2.855-25.065s-6.821-10.788-6.821-19.037l-7.92-.158h-.013l-7.919.158c0,1.607-.038,3.008-.139,4.283h13.739a36.081,36.081,0,0,0,4.879,14.754c4.4,7.258,5.83,22.607-1.547,30.7-5.689,6.239-3.172,34.974-28.562,37.327-1.08,10.921-1.289,25.435,4.016,31.762C225.261,290.26,233.035,286.611,233.035,286.611Z" transform="translate(-218.089 -162.71)"/><path class="ab" d="M1.441,0h14.41a1.442,1.442,0,0,1,1.442,1.442v6a1.441,1.441,0,0,1-1.441,1.441H1.442A1.442,1.442,0,0,1,0,7.441v-6A1.441,1.441,0,0,1,1.441,0Z" transform="translate(11.528 0)"/><g transform="translate(12.463 2.102)"><path class="ad" d="M245.753,164.442c0,.767-.32,1.389-.714,1.389h-1.071c-.394,0-.714-.622-.714-1.389V162.36c0-.766.319-1.388.714-1.388h1.071c.394,0,.714.622.714,1.388Z" transform="translate(-243.254 -160.972)"/><path class="ad" d="M252.24,164.442c0,.767-.319,1.389-.713,1.389h-1.071c-.394,0-.714-.622-.714-1.389V162.36c0-.766.32-1.388.714-1.388h1.071c.394,0,.713.622.713,1.388Z" transform="translate(-246.528 -160.972)"/><path class="ad" d="M258.725,164.442c0,.767-.318,1.389-.714,1.389h-1.071c-.394,0-.714-.622-.714-1.389V162.36c0-.766.32-1.388.714-1.388h1.071c.4,0,.714.622.714,1.388Z" transform="translate(-249.802 -160.972)"/><path class="ad" d="M265.213,164.442c0,.767-.319,1.389-.715,1.389h-1.071c-.394,0-.714-.622-.714-1.389V162.36c0-.766.32-1.388.714-1.388H264.5c.4,0,.715.622.715,1.388Z" transform="translate(-253.076 -160.972)"/><path class="ad" d="M271.7,164.442c0,.767-.318,1.389-.714,1.389h-1.07c-.395,0-.714-.622-.714-1.389V162.36c0-.766.319-1.388.714-1.388h1.07c.4,0,.714.622.714,1.388Z" transform="translate(-256.351 -160.972)"/></g><path class="ae" d="M257.944,156.727h-1.586v5.632a.714.714,0,0,1-.715.714H241.365V164.9a.714.714,0,0,0,.714.714h15.865a.714.714,0,0,0,.714-.714v-7.457A.714.714,0,0,0,257.944,156.727Z" transform="translate(-229.837 -156.727)"/></g><g transform="translate(0 66.529)"><path class="p" d="M107.87,218.885c11.236,8.354,17.968,18.324,15.036,22.267s-14.416.365-25.652-7.99-17.968-18.324-15.035-22.267S96.635,210.53,107.87,218.885Z" transform="translate(-80.86 -209.291)"/><path class="af" d="M86.989,209.575c4.782,1.338,10.8,4.421,16.749,8.845,11.235,8.355,17.967,18.324,15.036,22.267a3.766,3.766,0,0,1-2.018,1.32c4.251,1.19,7.525,1,8.9-.855,2.932-3.942-3.8-13.912-15.036-22.267C101.178,211.86,91.556,208.215,86.989,209.575Z" transform="translate(-83.614 -209.292)"/><path class="ag" d="M113.539,244.34c.591.441.839,1.108.554,1.492s-1,.34-1.589-.1-.838-1.108-.553-1.493S112.948,243.9,113.539,244.34Z" transform="translate(-96.154 -226.799)"/><path class="p" d="M98.773,243.879c.591.44.838,1.108.553,1.493s-1,.339-1.588-.1-.839-1.108-.553-1.493S98.181,243.44,98.773,243.879Z" transform="translate(-88.7 -226.567)"/><path class="p" d="M81.882,216.322c.591.44.839,1.108.553,1.493s-1,.34-1.588-.1-.839-1.107-.554-1.492S81.29,215.883,81.882,216.322Z" transform="translate(-80.175 -212.658)"/><path class="p" d="M131.022,267.638c.591.44.838,1.107.553,1.492s-1,.339-1.588-.1-.839-1.108-.553-1.493S130.431,267.2,131.022,267.638Z" transform="translate(-104.978 -238.558)"/><path class="ag" d="M136.9,247.389c.591.44.839,1.108.553,1.492s-1,.34-1.588-.1-.839-1.108-.553-1.492S136.314,246.949,136.9,247.389Z" transform="translate(-107.948 -228.339)"/><path class="ag" d="M121.149,227.335c.591.44.838,1.108.553,1.492s-1,.34-1.588-.1-.839-1.108-.553-1.492S120.557,226.9,121.149,227.335Z" transform="translate(-99.995 -218.216)"/><path class="ag" d="M95.854,228.839c.592.44.84,1.109.554,1.492s-1,.34-1.589-.1-.839-1.107-.553-1.492S95.264,228.4,95.854,228.839Z" transform="translate(-87.228 -218.976)"/><path class="ag" d="M92.319,213.953c.591.44.839,1.108.553,1.492s-1,.34-1.588-.1-.839-1.108-.553-1.492S91.727,213.514,92.319,213.953Z" transform="translate(-85.443 -211.462)"/><path class="ag" d="M141.646,265.241c.591.44.839,1.107.553,1.493s-1,.339-1.589-.1-.839-1.108-.552-1.492S141.054,264.8,141.646,265.241Z" transform="translate(-110.34 -237.349)"/></g><g transform="translate(67.928 62.711)"><path class="ah" d="M234.42,212.6c0-5.634,4.953-11.019,4.953-11.019H221.047S226,206.659,226,212.6c0,2.972-8.667,27.487-8.667,61.165h25.754C243.087,240.089,234.42,215.574,234.42,212.6Z" transform="translate(-217.333 -201.583)"/><path class="ai" d="M236.277,235.013c3.626,12.4,2.827,32.861-18.466,24.956-.3,4.39-.478,9-.478,13.8h25.754c0-33.678-8.667-58.193-8.667-61.165,0-5.634,4.953-11.019,4.953-11.019C229.343,209.507,232.438,221.888,236.277,235.013Z" transform="translate(-217.333 -201.583)"/></g><g transform="translate(94.257 62.887)"><path class="e" d="M3.288,0h7.178a3.287,3.287,0,0,1,3.287,3.287v.12A3.288,3.288,0,0,1,10.465,6.7H3.287A3.287,3.287,0,0,1,0,3.408v-.12A3.288,3.288,0,0,1,3.288,0Z" transform="translate(11.582)"/><path class="aj" d="M306.05,201.946v1.987a1.628,1.628,0,0,1-1.628,1.628h-10.5c-.016,0-.03,0-.045,0v1.452a1.628,1.628,0,0,0,1.628,1.628h10.5a1.629,1.629,0,0,0,1.628-1.628V203.57A1.627,1.627,0,0,0,306.05,201.946Z" transform="translate(-282.299 -201.942)"/><rect class="r" width="36.916" height="98.49" transform="translate(0 4.886)"/><path class="e" d="M307.448,266.181a16.559,16.559,0,1,1-16.559-16.559A16.558,16.558,0,0,1,307.448,266.181Z" transform="translate(-272.431 -226.006)"/><g transform="translate(7.464 29.18)"><path class="r" d="M307.554,271.852a10.993,10.993,0,1,1-10.993-10.994A10.994,10.994,0,0,1,307.554,271.852Z" transform="translate(-285.567 -260.858)"/><path class="ak" d="M304.466,264.713a10.986,10.986,0,0,1-15.5,14.912,10.988,10.988,0,1,0,15.5-14.912Z" transform="translate(-287.284 -262.804)"/><path class="ak" d="M307.99,264.962c0,.449-1.154.814-2.579.814s-2.578-.365-2.578-.814,1.154-.815,2.578-.815S307.99,264.512,307.99,264.962Z" transform="translate(-294.282 -262.518)"/></g><path class="ak" d="M307.411,211.8h-4.2c7.872,50.218-7.716,69.094-32.721,63.737v34.753h36.916Z" transform="translate(-270.495 -206.917)"/></g><g transform="translate(41.015 131.24)"><path class="l" d="M191.882,358.154a11.013,11.013,0,0,0-9.434-1.228,11.016,11.016,0,0,0-8.849-3.495c-6.5.574-11.217,7.227-10.544,14.862s6.486,13.359,12.983,12.786c.059-.006.118-.014.177-.021.049.034.1.07.145.1,5.407,3.647,13.265,1.453,17.551-4.9S197.288,361.8,191.882,358.154Z" transform="translate(-162.991 -346.737)"/><path class="p" d="M213.175,350.395c-4.676,2.654-11.079.2-11.079.2s1.178-6.755,5.853-9.408,11.079-.2,11.079-.2S217.851,347.743,213.175,350.395Z" transform="translate(-182.729 -339.953)"/><path class="q" d="M219.029,341.31a17.349,17.349,0,0,0-2.68-.718,9.864,9.864,0,0,1-1.849,3.816c-3.4,4.167-10.255,4.2-10.255,4.2a17.4,17.4,0,0,1-.261-2.847,18.464,18.464,0,0,0-1.888,5.158s6.4,2.454,11.079-.2S219.029,341.31,219.029,341.31Z" transform="translate(-182.729 -340.276)"/><path class="o" d="M193.936,385.11c3.1-4.6,3.481-10.11,1.408-14.19-6.549,13.016-24.912,12.66-32.3,5.632.01.195.022.391.039.588.674,7.635,6.486,13.359,12.983,12.786.059-.006.118-.014.177-.021.049.034.1.07.145.1C181.792,393.658,189.65,391.463,193.936,385.11Z" transform="translate(-163.016 -355.583)"/></g><g transform="translate(134.121 67.029)"><g transform="translate(1.001 3.937)"><path class="al" d="M363.049,220.877a5.4,5.4,0,1,1-7.414-1.857A5.4,5.4,0,0,1,363.049,220.877Z" transform="translate(-353.009 -218.25)"/><path class="am" d="M360.705,218.409a5.4,5.4,0,0,1-4.931,8.917,5.4,5.4,0,1,0,4.931-8.917Z" transform="translate(-354.405 -218.33)"/><path class="an" d="M359.355,220.168a.584.584,0,0,1-.2.8l-.744.446a.584.584,0,0,1-.8-.2h0a.584.584,0,0,1,.2-.8l.744-.446a.583.583,0,0,1,.8.2Z" transform="translate(-355.289 -219.075)"/></g><g transform="translate(9.273)"><path class="al" d="M380.217,217.5a5.4,5.4,0,1,1-3.31-6.889A5.4,5.4,0,0,1,380.217,217.5Z" transform="translate(-369.712 -210.3)"/><path class="am" d="M379.79,215.731a5.4,5.4,0,0,1-10.01,1.908,5.4,5.4,0,1,0,10.01-1.908Z" transform="translate(-369.715 -213.041)"/><path class="an" d="M383.6,212.486a.584.584,0,0,1-.744.358l-.819-.288a.583.583,0,0,1-.357-.744h0a.584.584,0,0,1,.744-.358l.818.287a.584.584,0,0,1,.358.744Z" transform="translate(-375.737 -210.866)"/></g><g transform="translate(0 13.611)"><path class="al" d="M361.219,240.756a5.4,5.4,0,1,1-7.258-2.4A5.4,5.4,0,0,1,361.219,240.756Z" transform="translate(-350.987 -237.782)"/><path class="am" d="M358.816,238.1a5.4,5.4,0,0,1-5.57,8.532,5.4,5.4,0,1,0,5.57-8.532Z" transform="translate(-352.127 -237.945)"/><path class="an" d="M357.926,239.488a.584.584,0,0,1-.259.784l-.774.391a.584.584,0,0,1-.784-.259h0a.584.584,0,0,1,.258-.784l.775-.391a.584.584,0,0,1,.784.259Z" transform="translate(-353.541 -238.481)"/></g><g transform="translate(13.034 6.361)"><path class="al" d="M387.326,231.358a5.4,5.4,0,1,1-1.808-7.426A5.4,5.4,0,0,1,387.326,231.358Z" transform="translate(-377.304 -223.144)"/><path class="am" d="M387.842,230.434a5.4,5.4,0,0,1-10.187-.212,5.4,5.4,0,1,0,10.187.212Z" transform="translate(-377.306 -226.717)"/><path class="an" d="M392.8,226.247a.584.584,0,0,1-.8.2l-.741-.451a.583.583,0,0,1-.2-.8h0a.585.585,0,0,1,.8-.2l.741.451a.585.585,0,0,1,.2.8Z" transform="translate(-384.207 -224.035)"/></g><g transform="translate(6.807 9.92)"><path class="al" d="M375.54,235.735a5.4,5.4,0,1,1-5.4-5.4A5.4,5.4,0,0,1,375.54,235.735Z" transform="translate(-364.731 -230.331)"/><path class="am" d="M373.741,232.948a5.4,5.4,0,0,1-8.814,5.114,5.4,5.4,0,1,0,8.814-5.114Z" transform="translate(-364.83 -231.652)"/><path class="an" d="M375.725,231.79a.584.584,0,0,1-.584.584h-.867a.584.584,0,0,1-.584-.584h0a.584.584,0,0,1,.584-.584h.867a.584.584,0,0,1,.584.584Z" transform="translate(-369.253 -230.773)"/></g><g transform="translate(15.88 13.478)"><path class="al" d="M393.073,245.728a5.4,5.4,0,1,1-1.807-7.426A5.4,5.4,0,0,1,393.073,245.728Z" transform="translate(-383.051 -237.514)"/><path class="am" d="M393.59,244.8a5.4,5.4,0,0,1-10.187-.213,5.4,5.4,0,1,0,10.187.213Z" transform="translate(-383.054 -241.086)"/><path class="an" d="M398.552,240.617a.583.583,0,0,1-.8.2l-.741-.451a.583.583,0,0,1-.2-.8h0a.583.583,0,0,1,.8-.2l.742.451a.584.584,0,0,1,.195.8Z" transform="translate(-389.955 -238.405)"/></g><g transform="translate(7.806 17.681)"><path class="al" d="M376.981,248.974a5.4,5.4,0,1,1-7.258-2.4A5.4,5.4,0,0,1,376.981,248.974Z" transform="translate(-366.749 -246)"/><path class="am" d="M374.578,246.322a5.389,5.389,0,0,1-1.856,8.112,5.379,5.379,0,0,1-3.714.42,5.4,5.4,0,1,0,5.57-8.532Z" transform="translate(-367.889 -246.163)"/><path class="an" d="M373.688,247.706a.583.583,0,0,1-.259.784l-.774.39a.583.583,0,0,1-.784-.259h0a.584.584,0,0,1,.258-.784l.775-.39a.584.584,0,0,1,.784.259Z" transform="translate(-369.303 -246.699)"/></g></g><g transform="translate(44.009 106.171)"><path class="n" d="M3.232,0H21.186a3.233,3.233,0,0,1,3.233,3.233V31.994a3.233,3.233,0,0,1-3.233,3.233H3.233A3.233,3.233,0,0,1,0,31.995V3.232A3.232,3.232,0,0,1,3.232,0Z" transform="translate(2.002 0.667)"/><path class="ao" d="M197.547,317.826a9.585,9.585,0,1,1-9.585-9.585A9.585,9.585,0,0,1,197.547,317.826Z" transform="translate(-173.751 -298.878)"/><g transform="translate(8.696 13.195)"><path class="ap" d="M195.5,324.734c-2.4,2.744-5.869,3.641-7.74,2s-1.439-5.192.964-7.936,5.869-3.641,7.74-2S197.9,321.99,195.5,324.734Z" transform="translate(-186.595 -315.979)"/><path class="aq" d="M196.879,318.535a8.192,8.192,0,0,1-2.108,4.687c-2.4,2.744-5.869,3.641-7.74,2a3.089,3.089,0,0,1-.41-.447,3.833,3.833,0,0,0,1.144,3.249c1.871,1.639,5.337.742,7.74-2C197.71,323.507,198.249,320.311,196.879,318.535Z" transform="translate(-186.602 -317.269)"/><path class="n" d="M204.617,319.3c-.236.264-.749.192-1.145-.161s-.526-.855-.291-1.119.748-.192,1.145.162S204.853,319.034,204.617,319.3Z" transform="translate(-194.908 -316.927)"/></g><path class="aq" d="M197.471,292.027a1.476,1.476,0,0,0-.051-.208v0h0a1.6,1.6,0,0,0-1.524-1.135h-2.788c.09.385.164.758.243,1.135h-20.2a1.579,1.579,0,0,0-.077.467v2.6h20.826c2.536,17.092-5.814,25.089-20.826,21.947v7.476a1.6,1.6,0,0,0,1.6,1.6H195.9a1.6,1.6,0,0,0,1.6-1.6V292.284A1.376,1.376,0,0,0,197.471,292.027Z" transform="translate(-171.077 -290.016)"/><path class="ao" d="M197.459,290.871a1.534,1.534,0,0,1-1.535,1.534H170.571a1.534,1.534,0,0,1-1.534-1.534h0a1.534,1.534,0,0,1,1.534-1.535h25.353a1.534,1.534,0,0,1,1.535,1.535Z" transform="translate(-169.037 -289.336)"/></g><g transform="translate(108.218 139.142)"><path class="ar" d="M309.98,415.375c-.735,1.375-2.132,2.06-3.12,1.533s-1.193-2.072-.458-3.446,2.131-2.061,3.12-1.533S310.715,414,309.98,415.375Z" transform="translate(-302.358 -384.094)"/><path class="as" d="M309.98,415.375c-.735,1.375-2.132,2.06-3.12,1.533s-1.193-2.072-.458-3.446,2.131-2.061,3.12-1.533S310.715,414,309.98,415.375Z" transform="translate(-302.358 -384.094)"/><path class="ar" d="M322.928,379.014c-4.205,7.867-12.506,11.629-18.539,8.4s-7.517-12.217-3.31-20.084,12.506-11.628,18.539-8.4S327.134,371.148,322.928,379.014Z" transform="translate(-298.685 -356.851)"/><path class="at" d="M324.05,369.811a20.405,20.405,0,0,1-2.071,5.834c-4.206,7.867-12.506,11.629-18.54,8.4a10.218,10.218,0,0,1-4.43-4.806c-1.142,6.061.814,11.808,5.382,14.249,6.033,3.226,14.334-.536,18.539-8.4C325.754,379.808,326.01,374.021,324.05,369.811Z" transform="translate(-298.688 -362.925)"/><path class="ar" d="M339.835,359.532c-.735,1.374-2.132,2.06-3.12,1.532s-1.193-2.071-.459-3.445,2.132-2.061,3.12-1.533S340.57,358.157,339.835,359.532Z" transform="translate(-317.427 -355.908)"/></g><g transform="translate(2.21 57.872)"><g transform="translate(39.384 111.068)"><path class="au" d="M164.159,416.076v2.739a1.7,1.7,0,0,0,1.7,1.7h34.389a1.7,1.7,0,0,0,1.7-1.7v-2.739Z" transform="translate(-164.159 -416.076)"/><path class="av" d="M164.159,416.076v2.739a1.7,1.7,0,0,0,1.7,1.7h34.389a1.7,1.7,0,0,0,1.7-1.7v-2.739Z" transform="translate(-164.159 -416.076)"/><g transform="translate(47.236)"><path class="au" d="M259.537,416.076v2.739a1.7,1.7,0,0,0,1.7,1.7h34.388a1.7,1.7,0,0,0,1.7-1.7v-2.739Z" transform="translate(-259.537 -416.076)"/><path class="av" d="M259.537,416.076v2.739a1.7,1.7,0,0,0,1.7,1.7h34.388a1.7,1.7,0,0,0,1.7-1.7v-2.739Z" transform="translate(-259.537 -416.076)"/></g></g><path class="au" d="M241.647,264.246H122.326c-4.988,0-8.045,3.951-6.794,8.779l12.738,58.864a12.379,12.379,0,0,0,11.345,8.779h84.743a12.38,12.38,0,0,0,11.345-8.779l12.737-58.864C249.693,268.2,246.635,264.246,241.647,264.246Zm-17.619,12.936v26.075h-4.157V277.182Zm-6.661,0v26.075H213.21V277.182Zm-6.66,0v26.075H206.55V277.182Zm-6.661,0v26.075h-4.157V277.182Zm-6.66,0v26.075h-4.158V277.182Zm-6.661,0v26.075h-4.157V277.182Zm-6.66,0v26.075h-4.157V277.182Zm-6.66,0v26.075h-4.157V277.182Zm-6.661,0v26.075h-4.157V277.182Zm-6.66,0v26.075h-4.157V277.182Zm-6.661,0v26.075h-4.157V277.182Zm-6.66,0v26.075h-4.157V277.182Zm-6.66,0v26.075h-4.157V277.182Zm-4.157,57.063V307.6H144.1v26.642Zm6.66,0V307.6h4.157v26.642Zm6.661,0V307.6h4.157v26.642Zm6.66,0V307.6h4.157v26.642Zm6.66,0V307.6h4.157v26.642Zm6.661,0V307.6h4.157v26.642Zm6.66,0V307.6h4.157v26.642Zm6.66,0V307.6h4.157v26.642Zm6.66,0V307.6h4.158v26.642Zm6.661,0V307.6h4.157v26.642Zm6.661,0V307.6h4.157v26.642Zm6.66,0V307.6h4.157v26.642Zm6.661,0V307.6h4.157v26.642Z" transform="translate(-100.09 -228.373)"/><path class="au" d="M241.647,264.246H122.326c-4.988,0-8.045,3.951-6.794,8.779l12.738,58.864a12.379,12.379,0,0,0,11.345,8.779h84.743a12.38,12.38,0,0,0,11.345-8.779l12.737-58.864C249.693,268.2,246.635,264.246,241.647,264.246Zm-97.544,70h-4.157V277.182H144.1Zm6.66,0h-4.157V277.182h4.157Zm6.66,0h-4.157V277.182h4.157Zm6.661,0h-4.157V277.182h4.157Zm6.66,0h-4.157V277.182h4.157Zm6.661,0h-4.157V277.182h4.157Zm6.66,0h-4.157V277.182h4.157Zm6.66,0h-4.157V277.182h4.157Zm6.661,0h-4.158V277.182h4.158Zm6.66,0h-4.157V277.182h4.157Zm6.661,0H206.55V277.182h4.157Zm6.66,0H213.21V277.182h4.157Zm6.661,0h-4.157V277.182h4.157Z" transform="translate(-100.09 -228.373)"/><path class="av" d="M116.023,275.292h111.3a72.089,72.089,0,0,1-3.3,7.444v51.509h-4.157V289.771q-1.2,1.779-2.5,3.46v41.014H213.21V298.1q-1.217,1.288-2.5,2.506v33.64H206.55V304.23q-1.226.983-2.5,1.908v28.107h-4.157v-25.31c-.821.508-1.657.994-2.5,1.47v23.84h-4.158V312.574c-.823.394-1.659.772-2.5,1.138v20.533h-4.157V315.374c-.826.3-1.659.6-2.5.876v17.995h-4.157V317.494c-.826.225-1.662.435-2.5.636v16.115h-4.157V319.018q-1.242.235-2.5.438v14.788h-4.157V320.029q-1.244.145-2.5.259v13.957h-4.157V320.577q-1.245.061-2.5.1v13.572h-4.157V320.7q-1.246-.014-2.5-.055v13.6h-4.157V320.437q-1.247-.083-2.5-.2v14h-4.157V319.809a142.133,142.133,0,0,1-14.858-2.624l3.183,14.705a12.379,12.379,0,0,0,11.345,8.779h84.743a12.38,12.38,0,0,0,11.345-8.779l12.737-58.864c1.252-4.829-1.806-8.779-6.794-8.779H122.326c-4.988,0-8.045,3.951-6.794,8.779Z" transform="translate(-100.09 -228.373)"/><path class="au" d="M248.481,264.874a1.714,1.714,0,0,0,.02-.2V252.228a1.884,1.884,0,0,0-1.884-1.884H93.937a1.884,1.884,0,0,0-1.884,1.884v12.443a1.709,1.709,0,0,0,.02.2Z" transform="translate(-88.38 -221.356)"/><path class="aw" d="M246.617,250.344h-2.933V260.7a1.973,1.973,0,0,1-.021.2H92.053v3.765a1.709,1.709,0,0,0,.02.2H248.481a1.714,1.714,0,0,0,.02-.2V252.228A1.884,1.884,0,0,0,246.617,250.344Z" transform="translate(-88.38 -221.356)"/><path class="au" d="M147.05,229a1.7,1.7,0,0,1-2.285.751L85.571,199.837a1.7,1.7,0,0,1-.751-2.284l2.429-4.807A1.7,1.7,0,0,1,89.534,192L148.728,221.9a1.7,1.7,0,0,1,.751,2.285Z" transform="translate(-84.637 -191.813)"/><path class="aw" d="M148.728,227.263l-.716-.362-2.185,4.324a1.7,1.7,0,0,1-2.285.751L85.064,202.429l-.244.483a1.7,1.7,0,0,0,.751,2.284L144.765,235.1a1.7,1.7,0,0,0,2.285-.751l2.429-4.806A1.7,1.7,0,0,0,148.728,227.263Z" transform="translate(-84.637 -197.171)"/><g transform="translate(56.24 28.831)"><path class="e" d="M202.293,252.307a2.055,2.055,0,1,1-1.817-2.268A2.055,2.055,0,0,1,202.293,252.307Z" transform="translate(-198.196 -250.027)"/><path class="ax" d="M201.319,250.579a2,2,0,0,1,.035.615,2.053,2.053,0,0,1-3.063,1.557,2.05,2.05,0,1,0,3.029-2.171Z" transform="translate(-198.244 -250.305)"/></g><g transform="translate(96.182 6.302)"><path class="au" d="M280.839,235.114a1.7,1.7,0,0,0,2.189,1l62.117-23.236a1.7,1.7,0,0,0,1-2.188l-1.886-5.044a1.7,1.7,0,0,0-2.189-1l-62.117,23.236a1.7,1.7,0,0,0-1,2.189Z" transform="translate(-278.844 -204.538)"/><path class="aw" d="M279.949,233.632l.752-.281,1.7,4.538a1.7,1.7,0,0,0,2.189,1l61.366-22.955.189.507a1.7,1.7,0,0,1-1,2.188l-62.117,23.236a1.7,1.7,0,0,1-2.189-1l-1.887-5.043A1.7,1.7,0,0,1,279.949,233.632Z" transform="translate(-278.844 -210.288)"/><g transform="translate(4.723 22.714)"><path class="e" d="M288.381,252.456a2.055,2.055,0,1,0,2.055-2.055A2.055,2.055,0,0,0,288.381,252.456Z" transform="translate(-288.381 -250.401)"/><path class="ax" d="M289.617,250.748a2.022,2.022,0,0,0-.1.608,2.052,2.052,0,0,0,2.874,1.882,2.05,2.05,0,1,1-2.772-2.49Z" transform="translate(-288.381 -250.576)"/></g></g></g></g></g><g class="ay" transform="translate(561.67 1879.67)"><circle class="az" cx="125" cy="125" r="125"/><circle class="b" cx="125" cy="125" r="123.5"/></g><g class="ay" transform="translate(578.67 1896.67)"><circle class="az" cx="108" cy="108" r="108"/><circle class="b" cx="108" cy="108" r="106.5"/></g></g></g></svg>