<svg xmlns="http://www.w3.org/2000/svg" width="118" height="118" viewBox="0 0 118 118"><defs><style>.a{fill:rgba(125,59,138,0.15);}.b{fill:#656262;}</style></defs><g transform="translate(-968 -419)"><circle class="a" cx="59" cy="59" r="59" transform="translate(968 419)"/><path class="b" d="M48.8,12.925V40.374a4.576,4.576,0,0,1-4.575,4.575H4.575A4.576,4.576,0,0,1,0,40.374V12.925A4.576,4.576,0,0,1,4.575,8.35h8.387l1.172-3.136A4.569,4.569,0,0,1,18.414,2.25H30.375a4.569,4.569,0,0,1,4.279,2.964L35.837,8.35h8.387A4.576,4.576,0,0,1,48.8,12.925ZM35.837,26.649A11.437,11.437,0,1,0,24.4,38.087,11.446,11.446,0,0,0,35.837,26.649Zm-3.05,0A8.387,8.387,0,1,1,24.4,18.262,8.4,8.4,0,0,1,32.787,26.649Z" transform="translate(1002.601 454.15)"/></g></svg>