<svg xmlns="http://www.w3.org/2000/svg" width="17.809" height="17.809" viewBox="0 0 17.809 17.809"><defs><style>.a{fill:#2b2929;}</style></defs><g transform="translate(-3.375 -3.375)"><path class="a" d="M16.552,11.56a.882.882,0,1,1,.878.856A.857.857,0,0,1,16.552,11.56Zm.06,1.528h1.635v6.169H16.611Z" transform="translate(-5.154 -2.869)"/><path class="a" d="M12.279,4.574A7.7,7.7,0,1,1,6.83,6.83a7.655,7.655,0,0,1,5.45-2.256m0-1.2a8.9,8.9,0,1,0,8.9,8.9,8.9,8.9,0,0,0-8.9-8.9Z" transform="translate(0 0)"/></g></svg>