<svg xmlns="http://www.w3.org/2000/svg" width="31.632" height="31.632" viewBox="0 0 31.632 31.632"><defs><style>.a{fill:#7d3b8a;}</style></defs><path class="a" d="M1429.311-618.367a9.308,9.308,0,0,1-6.633-2.487,9.177,9.177,0,0,1-2.678-6.824v-13.074c0-5.549,3.7-9.247,9.247-9.247h13.138a9.081,9.081,0,0,1,6.7,2.614,9.142,9.142,0,0,1,2.551,6.633v13.138a9.129,9.129,0,0,1-2.615,6.76,9.417,9.417,0,0,1-6.7,2.487Zm-4.655-27.041a6.355,6.355,0,0,0-1.722,4.656v13.074a6.408,6.408,0,0,0,1.722,4.719,6.592,6.592,0,0,0,4.655,1.658h13.011a6.593,6.593,0,0,0,4.656-1.658,6.233,6.233,0,0,0,1.849-4.656v-13.138a6.578,6.578,0,0,0-1.722-4.592,6.356,6.356,0,0,0-4.655-1.722h-13.138A6.485,6.485,0,0,0,1424.656-645.408Zm3,11.161a8.178,8.178,0,0,1,8.163-8.163,8.22,8.22,0,0,1,8.163,8.163,8.179,8.179,0,0,1-8.163,8.163A8.138,8.138,0,0,1,1427.653-634.248Zm2.933,0a5.253,5.253,0,0,0,5.23,5.23,5.253,5.253,0,0,0,5.23-5.23,5.253,5.253,0,0,0-5.23-5.23A5.253,5.253,0,0,0,1430.586-634.248Zm11.863-8.354a1.849,1.849,0,0,1,1.849-1.85,1.849,1.849,0,0,1,1.849,1.85,1.849,1.849,0,0,1-1.849,1.849A1.849,1.849,0,0,1,1442.449-642.6Z" transform="translate(-1420 650)"/></svg>