<svg xmlns="http://www.w3.org/2000/svg" width="166.839" height="166.184" viewBox="0 0 166.839 166.184"><defs><style>.a{fill:#dc99ea;}.b{fill:#7d3b8a;}</style></defs><g transform="translate(0 0)"><path class="a" d="M0,188.419c10.874-4.648,32.831-11.142,50.648,1.728V169.2L0,158.537Z" transform="translate(0 -107.204)"/><path class="a" d="M173.714,478.914l9.891-2.085a75.6,75.6,0,0,0-9.891-13.377Z" transform="translate(-117.108 -312.76)"/><path class="a" d="M354.549,162.834c-2.085,4.737-4.528,9.713-7.12,14.6V178c1.966,4.26,16.118,31.908,53.627,33.338V172.129Z" transform="translate(-234.217 -110.101)"/><path class="a" d="M0,256.842v23.923a148.611,148.611,0,0,1,50.648,25.413V259.821C33.725,243.912,10.725,251.747,0,256.842Z" transform="translate(0 -169.102)"/><path class="a" d="M184.559,316.794a101.623,101.623,0,0,0-10.845-17.548v45.136a84.016,84.016,0,0,1,16.029,20.467l34.619-7.3V344.8C197.906,342.147,191.679,330.379,184.559,316.794Z" transform="translate(-117.108 -202.062)"/><path class="a" d="M0,400.325l50.648,10.666V389.719C32.921,373.839,10.487,365.8,0,362.7Z" transform="translate(0 -244.837)"/><path class="a" d="M347.429,415.572v12.275l53.627,10.725V403.566c-7.24,4.767-22.464,12.155-47.341,12.155C351.689,415.721,349.574,415.662,347.429,415.572Z" transform="translate(-234.217 -272.389)"/><path class="a" d="M347.429,244.571v57.8c32.861,1.639,49.754-10.189,53.627-13.377V272.368a67.888,67.888,0,0,1-45.643-18.62A71.284,71.284,0,0,1,347.429,244.571Z" transform="translate(-234.217 -165.203)"/><path class="b" d="M243.323,61.257A11.917,11.917,0,1,0,255.24,73.174,11.917,11.917,0,0,0,243.323,61.257Z" transform="translate(-156.001 -41.624)"/><path class="b" d="M199.068,1.006c-18.382,0-33.308,14-33.308,31.193,0,13.347,21.212,50.081,32.563,66.765a.955.955,0,0,0,1.49,0,373.454,373.454,0,0,0,19.425-32.534c0-.03.03-.06.03-.089C226.477,52.7,232.376,39.2,232.376,32.2,232.376,15.008,217.42,1.006,199.068,1.006Zm0,49.426a17.876,17.876,0,1,1,17.876-17.876A17.875,17.875,0,0,1,199.068,50.432Z" transform="translate(-111.746 -1.006)"/><path class="a" d="M204.43,232.744a6.9,6.9,0,0,1-5.69-2.949,395.466,395.466,0,0,1-23.149-39.714l-1.877.387v26.188a95.165,95.165,0,0,1,16.148,23.775c6.733,12.93,11.738,22.374,34.5,24.788V206.645c-5.9,10.279-11.53,19.1-14.271,23.149A6.8,6.8,0,0,1,204.43,232.744Z" transform="translate(-117.108 -128.469)"/></g></svg>