<svg xmlns="http://www.w3.org/2000/svg" width="25.422" height="23.99" viewBox="0 0 25.422 23.99"><defs><style>.a{fill:none;stroke:#7d3b8a;stroke-linecap:round;stroke-linejoin:round;stroke-width:1.5px;}.b{fill:#7d3b8a;}</style></defs><g transform="translate(-717.554 -542)"><g transform="translate(713.804 541.26)"><path class="a" d="M22.893,10.7c0,7.153-9.2,13.284-9.2,13.284S4.5,17.849,4.5,10.7a9.2,9.2,0,1,1,18.393,0Z"/><path class="a" d="M19.631,13.565A3.065,3.065,0,1,1,16.565,10.5a3.065,3.065,0,0,1,3.065,3.065Z" transform="translate(-2.869 -2.869)"/></g><path class="b" d="M7.375,3.375a4,4,0,1,0,4,4A4,4,0,0,0,7.375,3.375Zm1.74,4.308H7.683V9.115a.308.308,0,0,1-.615,0V7.683H5.635a.308.308,0,0,1,0-.615H7.067V5.635a.308.308,0,0,1,.615,0V7.067H9.115a.308.308,0,1,1,0,.615Z" transform="translate(731.601 538.625)"/></g></svg>