<svg xmlns="http://www.w3.org/2000/svg" width="35.101" height="38.5" viewBox="0 0 35.101 38.5"><defs><style>.a{fill:none;stroke:#7d3b8a;}.b{fill:#e11d07;}.c{fill:#fff;font-size:9px;font-family:Helvetica;letter-spacing:0.013em;}</style></defs><g transform="translate(0.524)"><path class="a" d="M140.782,452.75A5.947,5.947,0,0,0,146.6,448H134.965a5.947,5.947,0,0,0,5.817,4.75Zm0,0" transform="translate(-124.949 -414.75)"/><path class="a" d="M26.935,58.5h-.019A11.1,11.1,0,0,1,15.833,47.418a10.985,10.985,0,0,1,1.059-4.7c-.348-.033-.7-.054-1.059-.054A11.083,11.083,0,0,0,4.75,53.751v4.414A10.616,10.616,0,0,1,.969,66.292,2.77,2.77,0,0,0,.1,69.136a2.9,2.9,0,0,0,2.847,2.031H28.714a2.9,2.9,0,0,0,2.894-2.2,2.775,2.775,0,0,0-.945-2.711A10.536,10.536,0,0,1,26.935,58.5Zm0,0" transform="translate(0 -39.501)"/><path class="b" d="M271.845,7.917A7.917,7.917,0,1,1,263.928,0,7.916,7.916,0,0,1,271.845,7.917Zm0,0" transform="translate(-237.269)"/><text class="c" transform="translate(23.743 11)"><tspan x="0" y="0">3</tspan></text></g></svg>