<svg xmlns="http://www.w3.org/2000/svg" width="125.36" height="30.819" viewBox="0 0 125.36 30.819"><defs><style>.a{fill:#113984;}.a,.b,.c{fill-rule:evenodd;}.b{fill:#009ee3;}.c{fill:#172c70;}</style></defs><g transform="translate(-29.323)"><g transform="translate(0 -2.596)"><path class="a" d="M321.43,385.13c2.932,0,5.639,1.591,5.268,5.555-.448,4.712-2.973,7.32-6.956,7.331h-3.48c-.5,0-.743.409-.873,1.245l-.673,4.279c-.1.646-.433.965-.922.965h-3.238c-.516,0-.7-.33-.581-1.068l2.672-17.149c.132-.844.449-1.158,1.025-1.158h7.75Zm-5.273,9.181h2.636c1.649-.063,2.744-1.2,2.854-3.265a1.992,1.992,0,0,0-2.159-2.177l-2.482.011-.85,5.43Zm19.344,8.881c.3-.269.6-.408.554-.076l-.105.795c-.054.415.11.635.5.635h2.877c.484,0,.72-.2.839-.945l1.773-11.125c.09-.559-.047-.833-.471-.833H338.3c-.285,0-.424.159-.5.595l-.117.684c-.061.357-.224.42-.377.06-.536-1.27-1.905-1.84-3.815-1.8-4.436.092-7.427,3.46-7.748,7.777a5.347,5.347,0,0,0,5.3,5.962,5.689,5.689,0,0,0,4.465-1.728h0Zm-2.41-1.712a2.891,2.891,0,0,1-2.964-3.39,4.13,4.13,0,0,1,3.971-3.39,2.891,2.891,0,0,1,2.964,3.39,4.128,4.128,0,0,1-3.972,3.39Zm14.473-9.873h-2.917c-.6,0-.846.448-.655,1l3.621,10.6-3.552,5.046c-.3.422-.068.806.352.806h3.278a1,1,0,0,0,.974-.478L359.8,392.61c.343-.491.182-1.007-.381-1.007h-3.1c-.532,0-.745.211-1.05.653l-4.645,6.732-2.075-6.747a.889.889,0,0,0-.983-.633Z" transform="translate(-245.111 -379.529)"/><path class="b" d="M544.1,385.115c2.933,0,5.639,1.591,5.269,5.555-.449,4.712-2.973,7.319-6.956,7.331h-3.478c-.5,0-.742.409-.872,1.245l-.673,4.279c-.1.646-.433.965-.922.965h-3.238c-.516,0-.7-.33-.582-1.068l2.677-17.154c.132-.844.449-1.158,1.025-1.158h7.75Zm-5.273,9.181h2.636c1.649-.063,2.744-1.2,2.854-3.265a1.992,1.992,0,0,0-2.159-2.177l-2.482.011-.85,5.43Zm19.344,8.881c.3-.269.6-.408.554-.076l-.1.794c-.054.415.11.635.5.635h2.877c.485,0,.72-.2.839-.945l1.772-11.125c.09-.559-.047-.832-.471-.832h-3.159c-.285,0-.424.159-.5.595l-.117.684c-.061.357-.224.42-.377.06-.536-1.27-1.905-1.84-3.815-1.795-4.436.092-7.427,3.46-7.748,7.777a5.347,5.347,0,0,0,5.3,5.962,5.69,5.69,0,0,0,4.465-1.728h0Zm-2.408-1.712a2.891,2.891,0,0,1-2.964-3.39,4.129,4.129,0,0,1,3.971-3.39,2.891,2.891,0,0,1,2.964,3.39,4.129,4.129,0,0,1-3.972,3.39Zm13.268,3.083h-3.321a.393.393,0,0,1-.406-.449l2.917-18.48a.572.572,0,0,1,.552-.449h3.321a.393.393,0,0,1,.406.449l-2.917,18.48a.572.572,0,0,1-.552.453Z" transform="translate(-417.818 -379.514)"/></g><path class="b" d="M176.064,386.87h8.693c4.667,0,6.424,2.363,6.153,5.834-.449,5.731-3.913,8.9-8.509,8.9h-2.32c-.63,0-1.055.417-1.225,1.548l-.985,6.574c-.065.427-.289.673-.626.707h-5.461c-.514,0-.7-.393-.561-1.243l3.33-21.076A1.325,1.325,0,0,1,176.064,386.87Z" transform="translate(-135.641 -379.616)"/><path class="a" d="M149.145,354.54h8.7c2.45,0,5.358.079,7.3,1.8a5.9,5.9,0,0,1,1.824,4.936c-.534,6.644-4.508,10.366-9.839,10.366h-4.29c-.731,0-1.214.485-1.42,1.8l-1.2,7.629c-.079.494-.292.785-.673.821h-5.37c-.595,0-.805-.449-.651-1.441l3.859-24.453A1.544,1.544,0,0,1,149.145,354.54Z" transform="translate(-114.158 -354.54)"/><path class="c" d="M179.43,397.727l1.519-9.619a1.33,1.33,0,0,1,1.515-1.248h8.693a8.481,8.481,0,0,1,3.514.639c-.873,5.915-4.7,9.2-9.707,9.2H180.68A1.266,1.266,0,0,0,179.43,397.727Z" transform="translate(-142.041 -379.608)"/></g></svg>