<svg xmlns="http://www.w3.org/2000/svg" width="308.767" height="46.748" viewBox="0 0 308.767 46.748"><defs><style>.a{fill:#7d3b8a;}</style></defs><path class="a" d="M50.684,19.557H34.153L29.13,4.566a1.82,1.82,0,0,0-3.416,0L20.691,19.557H4.048a1.8,1.8,0,0,0-1.8,1.8,1.321,1.321,0,0,0,.034.3,1.728,1.728,0,0,0,.753,1.27L16.623,32.5,11.409,47.662a1.8,1.8,0,0,0,.618,2.023,1.739,1.739,0,0,0,1.011.438,2.2,2.2,0,0,0,1.124-.4l13.26-9.451,13.26,9.451a2.106,2.106,0,0,0,1.124.4,1.614,1.614,0,0,0,1-.438,1.781,1.781,0,0,0,.618-2.023L38.21,32.5l13.474-9.664.326-.281a1.885,1.885,0,0,0,.584-1.2A1.9,1.9,0,0,0,50.684,19.557Z" transform="translate(-2.25 -3.375)"/><path class="a" d="M50.684,19.557H34.153L29.13,4.566a1.82,1.82,0,0,0-3.416,0L20.691,19.557H4.048a1.8,1.8,0,0,0-1.8,1.8,1.321,1.321,0,0,0,.034.3,1.728,1.728,0,0,0,.753,1.27L16.623,32.5,11.409,47.662a1.8,1.8,0,0,0,.618,2.023,1.739,1.739,0,0,0,1.011.438,2.2,2.2,0,0,0,1.124-.4l13.26-9.451,13.26,9.451a2.106,2.106,0,0,0,1.124.4,1.614,1.614,0,0,0,1-.438,1.781,1.781,0,0,0,.618-2.023L38.21,32.5l13.474-9.664.326-.281a1.885,1.885,0,0,0,.584-1.2A1.9,1.9,0,0,0,50.684,19.557Z" transform="translate(63.28 -3.375)"/><path class="a" d="M50.684,19.557H34.153L29.13,4.566a1.82,1.82,0,0,0-3.416,0L20.691,19.557H4.048a1.8,1.8,0,0,0-1.8,1.8,1.321,1.321,0,0,0,.034.3,1.728,1.728,0,0,0,.753,1.27L16.623,32.5,11.409,47.662a1.8,1.8,0,0,0,.618,2.023,1.739,1.739,0,0,0,1.011.438,2.2,2.2,0,0,0,1.124-.4l13.26-9.451,13.26,9.451a2.106,2.106,0,0,0,1.124.4,1.614,1.614,0,0,0,1-.438,1.781,1.781,0,0,0,.618-2.023L38.21,32.5l13.474-9.664.326-.281a1.885,1.885,0,0,0,.584-1.2A1.9,1.9,0,0,0,50.684,19.557Z" transform="translate(128.807 -3.375)"/><path class="a" d="M49.2,20.953l-16.324-1.4L26.5,4.5,20.12,19.551,3.8,20.953,16.18,31.687,12.468,47.652,26.5,39.189l14.028,8.463L36.814,31.687ZM28.354,36.11,26.5,34.989V13.719l3.064,7.235.845,1.995,2.159.185,7.849.674L34.458,28.97,32.82,30.39l.491,2.111L35.1,40.176Z" transform="translate(259.57 -2.902)"/><path class="a" d="M50.684,19.557H34.153L29.13,4.566a1.82,1.82,0,0,0-3.416,0L20.691,19.557H4.048a1.8,1.8,0,0,0-1.8,1.8,1.321,1.321,0,0,0,.034.3,1.728,1.728,0,0,0,.753,1.27L16.623,32.5,11.409,47.662a1.8,1.8,0,0,0,.618,2.023,1.739,1.739,0,0,0,1.011.438,2.2,2.2,0,0,0,1.124-.4l13.26-9.451,13.26,9.451a2.106,2.106,0,0,0,1.124.4,1.614,1.614,0,0,0,1-.438,1.781,1.781,0,0,0,.618-2.023L38.21,32.5l13.474-9.664.326-.281a1.885,1.885,0,0,0,.584-1.2A1.9,1.9,0,0,0,50.684,19.557Z" transform="translate(194.807 -3.375)"/></svg>