<svg xmlns="http://www.w3.org/2000/svg" width="136.778" height="165.786" viewBox="0 0 136.778 165.786"><defs><style>.a{fill:#7d3b8a;}.b{fill:#cb65df;}.c{opacity:0.06;}.d{fill:#fff;}.e{opacity:0.34;}.f{fill:none;stroke:#fff;stroke-linecap:round;stroke-linejoin:round;stroke-width:14px;}</style></defs><g transform="translate(0 0)"><path class="a" d="M1130.414,427.506c-42.792,9.309-64.539-10.554-67.471-13.486,0,0-.06-.294-.173-.176-.114-.117-.173.176-.173.176-2.926,2.938-24.632,22.846-67.443,13.625,0,0-6.492,77.009,18.49,108.4,26.682,33.525,49.184,43.646,49.3,43.559.113.087,22.787-9.887,49.207-43.66C1136.864,504.345,1130.414,427.506,1130.414,427.506Z" transform="translate(-994.394 -413.816)"/><g transform="translate(6.336 9.43)"><path class="b" d="M1130,444.118c-38.831,8.288-58.565-9.395-61.225-12.005,0,0-.055-.261-.158-.157-.1-.1-.157.157-.157.157-2.655,2.616-22.352,20.34-61.2,12.131,0,0-5.892,68.56,16.777,96.5,24.212,29.845,44.611,40.69,44.713,40.612.1.078,20.7-10.637,44.672-40.7C1135.848,512.526,1130,444.118,1130,444.118Z" transform="translate(-1006.567 -431.931)"/></g><g class="c" transform="translate(6.441 5.869)"><path class="d" d="M1068.545,435.591s.057-.273.165-.164c.108-.11.165.164.165.164,2.732,2.681,22.66,20.536,61.776,13.047-.2-6.986-.57-11.359-.57-11.359-38.831,8.288-58.565-9.395-61.225-12.005,0,0-.055-.261-.158-.157-.1-.1-.157.157-.157.157-2.655,2.616-22.352,20.34-61.2,12.131,0,0-.375,4.372-.572,11.356C1045.919,456.182,1065.818,438.278,1068.545,435.591Z" transform="translate(-1006.769 -425.091)"/></g></g><g class="e" transform="translate(18.719 30.593)"><path class="d" d="M1129.908,482.674c-29.338,6.382-47.743-7.934-49.753-9.945,0,0-.041-.2-.119-.12-.078-.081-.119.121-.119.121-2.005,2.014-20.194,16.331-49.546,10.009,0,0-1.144,52.129,15.984,73.649,18.293,22.984,33.72,29.923,33.8,29.863.078.06,15.623-6.779,33.736-29.933C1130.836,534.655,1129.908,482.674,1129.908,482.674Z" transform="translate(-1030.356 -472.589)"/></g><g transform="translate(43.763 58.027)"><path class="f" d="M18,12V61.731" transform="translate(6.866 -12)"/><path class="f" d="M12,18H61.731" transform="translate(-12 6.866)"/></g></svg>