<svg xmlns="http://www.w3.org/2000/svg" width="16.664" height="15.474" viewBox="0 0 16.664 15.474"><defs><style>.a{fill:#fff;}</style></defs><path class="a" d="M18.282,8.731H12.81L11.148,3.769a.6.6,0,0,0-1.131,0L8.354,8.731H2.845a.6.6,0,0,0-.6.6.437.437,0,0,0,.011.1.572.572,0,0,0,.249.42l4.5,3.169L5.282,18.034a.6.6,0,0,0,.2.67.576.576,0,0,0,.335.145.729.729,0,0,0,.372-.134l4.389-3.128,4.389,3.128a.7.7,0,0,0,.372.134.534.534,0,0,0,.331-.145.59.59,0,0,0,.2-.67l-1.726-5.018,4.46-3.2.108-.093a.569.569,0,0,0-.439-.993Z" transform="translate(-2.25 -3.375)"/></svg>