<svg xmlns="http://www.w3.org/2000/svg" width="38" height="38" viewBox="0 0 38 38"><defs><style>.a{fill:#7D3B8A;}.b,.d{fill:none;}.b{stroke:#7D3B8A;}.c{stroke:none;}</style></defs><g transform="translate(-1265 -58)"><g transform="translate(1233.867 -41.79)"><g transform="translate(34.133 110.933)"><path class="a" d="M108.91,113.389v5.894H95.157a.491.491,0,0,0,0,.982H108.91v1.965H89.263v-1.965h2.456a.491.491,0,0,0,0-.982H89.263v-5.894a1.474,1.474,0,0,1,1.474-1.474h16.7A1.474,1.474,0,0,1,108.91,113.389ZM98.1,125.669h9.333a2.459,2.459,0,0,0,2.456-2.456v-9.824a2.459,2.459,0,0,0-2.456-2.456h-16.7a2.459,2.459,0,0,0-2.456,2.456v.982H86.807a.491.491,0,0,0,0,.982H88.28v2.456H85.824a.491.491,0,1,0,0,.982H88.28v2.456H86.807a.491.491,0,0,0,0,.982H88.28v.982a2.459,2.459,0,0,0,2.456,2.456H98.1Zm9.333-.982h-16.7a1.474,1.474,0,0,1-1.474-1.474H108.91A1.474,1.474,0,0,1,107.436,124.686Z" transform="translate(-82.386 -110.933)"/><path class="a" d="M60.224,171.649h.491a.491.491,0,0,0,0-.982h-.491a.491.491,0,1,0,0,.982Z" transform="translate(-58.259 -167.229)"/><path class="a" d="M60.715,290.133h-.491a.491.491,0,1,0,0,.982h.491a.491.491,0,0,0,0-.982Z" transform="translate(-58.259 -279.818)"/><path class="a" d="M36.1,230.891a.491.491,0,0,0-.491-.491h-.982a.491.491,0,1,0,0,.982h.982A.491.491,0,0,0,36.1,230.891Z" transform="translate(-34.133 -223.523)"/><path class="a" d="M393.862,148.014a4.594,4.594,0,0,1,3.032-.448,3.171,3.171,0,1,0-3.032.448Zm1.965-1.965a.491.491,0,1,1-.491.491A.491.491,0,0,1,395.827,146.049Zm-1.965,0a.491.491,0,1,1-.491.491A.491.491,0,0,1,393.862,146.049Z" transform="translate(-371.758 -143.102)"/><path class="a" d="M179.691,180.182h.491a.491.491,0,0,0,0-.982h-.491a.491.491,0,0,0,0,.982Z" transform="translate(-170.85 -175.27)"/><path class="a" d="M222.358,180.182h1.474a.491.491,0,0,0,0-.982h-1.474a.491.491,0,0,0,0,.982Z" transform="translate(-211.061 -175.27)"/><path class="a" d="M185.094,213.333h-5.4a.491.491,0,0,0,0,.982h5.4a.491.491,0,0,0,0-.982Z" transform="translate(-170.85 -207.439)"/></g></g><g transform="translate(333)"><g transform="translate(338)"><g transform="translate(-4.667 -4.667)"><g class="b" transform="translate(598.667 62.667)"><circle class="c" cx="19" cy="19" r="19"/><circle class="d" cx="19" cy="19" r="18.5"/></g></g></g></g></g></svg>