<svg xmlns="http://www.w3.org/2000/svg" width="38" height="38" viewBox="0 0 38 38"><defs><style>.a{fill:#a7a7a7;stroke-width:0.5px;}.a,.b{stroke:#a7a7a7;}.b,.d{fill:none;}.c{stroke:none;}</style></defs><g transform="translate(-932 -58)"><g transform="translate(873.5 65)"><path class="a" d="M77.305,0a8.806,8.806,0,0,0-7.224,13.841l6.934,10.052a.352.352,0,0,0,.58,0l6.933-10.05A8.806,8.806,0,0,0,77.305,0ZM83.95,13.441l-6.644,9.632L70.66,13.439a8.1,8.1,0,1,1,13.29,0Z"/><path class="a" d="M167.658,94.579a4.579,4.579,0,1,0-4.579,4.579A4.584,4.584,0,0,0,167.658,94.579Zm-8.453,0a3.874,3.874,0,1,1,3.874,3.874A3.879,3.879,0,0,1,159.2,94.579Z" transform="translate(-85.773 -85.773)"/></g><g transform="translate(338)"><g transform="translate(-4.667 -4.667)"><g class="b" transform="translate(598.667 62.667)"><circle class="c" cx="19" cy="19" r="19"/><circle class="d" cx="19" cy="19" r="18.5"/></g></g></g></g></svg>