<svg xmlns="http://www.w3.org/2000/svg" width="38" height="38" viewBox="0 0 38 38"><defs><style>.a,.d{fill:none;}.a{stroke:#7d3b8a;}.b{fill:#7d3b8a;}.c{stroke:none;}</style></defs><g transform="translate(-594 -58)"><g transform="translate(-4.667 -4.667)"><g class="a" transform="translate(598.667 62.667)"><circle class="c" cx="19" cy="19" r="19"/><circle class="d" cx="19" cy="19" r="18.5"/></g></g><g transform="translate(603.585 67.585)"><path class="b" d="M15.887,0H2.942A2.945,2.945,0,0,0,0,2.942V4.413a.736.736,0,0,0,1.471,0V2.942A1.473,1.473,0,0,1,2.942,1.471H15.887a1.473,1.473,0,0,1,1.471,1.471V15.887a1.473,1.473,0,0,1-1.471,1.471H2.942a1.473,1.473,0,0,1-1.471-1.471V14.416a.736.736,0,0,0-1.471,0v1.471A2.945,2.945,0,0,0,2.942,18.83H15.887a2.945,2.945,0,0,0,2.942-2.942V2.942A2.945,2.945,0,0,0,15.887,0Z"/><g transform="translate(8.348 4.891)"><path class="b" d="M231.005,135.963l-2.75-2.748a.736.736,0,0,0-1.04,1.041l2.75,2.748a.736.736,0,0,1,0,1.04l0,0-2.75,2.785a.736.736,0,1,0,1.047,1.034l2.749-2.783A2.209,2.209,0,0,0,231.005,135.963Z" transform="translate(-227 -133)"/></g><g transform="translate(0 8.679)"><path class="b" d="M8.569,236H.736a.736.736,0,0,0,0,1.471H8.569a.736.736,0,0,0,0-1.471Z" transform="translate(0 -236)"/></g></g></g></svg>