<svg xmlns="http://www.w3.org/2000/svg" width="72.988" height="30" viewBox="0 0 72.988 30"><defs><style>.a{fill:#6772e5;}</style></defs><path class="a" d="M5.129,11.756c0-.781.649-1.081,1.723-1.081a11.42,11.42,0,0,1,5.028,1.282V7.25a13.517,13.517,0,0,0-5.028-.921C2.737,6.328,0,8.451,0,12c0,5.527,7.7,4.646,7.7,7.029,0,.921-.811,1.222-1.946,1.222a12.737,12.737,0,0,1-5.535-1.6v4.766a14.2,14.2,0,0,0,5.535,1.141c4.217,0,7.116-2.063,7.116-5.647C12.854,12.937,5.129,14,5.129,11.756ZM18.835,2.323,13.888,3.364l-.02,16.041a5.064,5.064,0,0,0,5.251,5.147,7.913,7.913,0,0,0,3.548-.661V19.826c-.649.26-3.852,1.182-3.852-1.782V10.935h3.852V6.669H18.815ZM28.972,8.151l-.324-1.482H24.269V24.192h5.069V12.316a3.606,3.606,0,0,1,3.852-1.041V6.669A3.464,3.464,0,0,0,28.972,8.151Zm5.454-1.482h5.089V24.192H34.426Zm0-1.522,5.089-1.081V0L34.426,1.061ZM50.1,6.328a5.763,5.763,0,0,0-3.974,1.562l-.264-1.242H41.4V30l5.069-1.061.02-5.668a5.751,5.751,0,0,0,3.589,1.262c3.629,0,6.934-2.884,6.934-9.232C56.992,9.493,53.646,6.328,50.1,6.328Zm-1.216,13.8a3.049,3.049,0,0,1-2.392-.941l-.02-7.43a3.035,3.035,0,0,1,2.413-.981c1.845,0,3.122,2.043,3.122,4.666C52,18.124,50.747,20.127,48.882,20.127ZM72.988,15.5c0-5.127-2.514-9.172-7.319-9.172-4.825,0-7.745,4.045-7.745,9.132,0,6.028,3.447,9.072,8.394,9.072a11.417,11.417,0,0,0,5.616-1.3V19.226a10.875,10.875,0,0,1-4.967,1.1c-1.967,0-3.71-.681-3.933-3.044h9.914C72.948,17.023,72.988,15.981,72.988,15.5ZM62.973,13.6c0-2.263,1.4-3.2,2.676-3.2,1.237,0,2.555.941,2.555,3.2Z"/></svg>