<svg xmlns="http://www.w3.org/2000/svg" width="224.039" height="164.285" viewBox="0 0 224.039 164.285"><defs><style>.a,.d{fill:#7d3b8a;}.b{fill:#ae5ebe;}.c{fill:#f4fbff;}.d{opacity:0.14;}</style></defs><g transform="translate(0 3.645)"><g transform="translate(46.043)"><path class="a" d="M176.794,83.271H108.553a3.33,3.33,0,1,1,0-6.661h68.241a3.33,3.33,0,1,1,0,6.661Z" transform="translate(-105.223 -76.61)"/></g><g transform="translate(13.932 24.413)"><path class="a" d="M70.294,139.062H35.168a3.33,3.33,0,1,1,0-6.661H70.294a3.33,3.33,0,1,1,0,6.661Z" transform="translate(-31.838 -132.401)"/></g><g transform="translate(33.978 47.108)"><path class="a" d="M94.856,190.928H80.98a3.33,3.33,0,1,1,0-6.661H94.856a3.33,3.33,0,1,1,0,6.661Z" transform="translate(-77.65 -184.267)"/></g><g transform="translate(0 63.544)"><path class="a" d="M37.308,228.489H3.33a3.33,3.33,0,0,1,0-6.661H37.308a3.33,3.33,0,0,1,0,6.661Z" transform="translate(0 -221.828)"/></g><g transform="translate(46.043 150.333)"><path class="a" d="M181.235,426.829H108.553a3.331,3.331,0,0,1,0-6.661h72.682a3.331,3.331,0,0,1,0,6.661Z" transform="translate(-105.223 -420.168)"/></g><g transform="translate(13.932 125.92)"><path class="a" d="M70.294,371.038H35.168a3.331,3.331,0,0,1,0-6.661H70.294a3.331,3.331,0,0,1,0,6.661Z" transform="translate(-31.838 -364.377)"/></g><g transform="translate(33.978 103.225)"><path class="a" d="M94.856,319.172H80.98a3.331,3.331,0,0,1,0-6.661H94.856a3.331,3.331,0,1,1,0,6.661Z" transform="translate(-77.65 -312.511)"/></g><g transform="translate(0 86.789)"><path class="a" d="M37.308,281.612H3.33a3.331,3.331,0,0,1,0-6.661H37.308a3.331,3.331,0,0,1,0,6.661Z" transform="translate(0 -274.951)"/></g></g><circle class="a" cx="82.142" cy="82.142" r="82.142" transform="translate(59.754 0)"/><path class="b" d="M316.334,68.279q-3.119,0-6.18.231a82.145,82.145,0,0,1,0,163.824q3.061.228,6.18.231a82.142,82.142,0,1,0,0-164.285Z" transform="translate(-174.438 -68.279)"/><circle class="c" cx="63.074" cy="63.074" r="63.074" transform="translate(78.822 19.068)"/><path class="d" d="M316.962,111.855c-1.919,0-3.817.091-5.692.259a63.073,63.073,0,0,1,0,125.631c1.875.168,3.773.258,5.692.258a63.074,63.074,0,0,0,0-126.148Z" transform="translate(-175.065 -92.787)"/><g transform="translate(90.109 30.355)"><g transform="translate(48.457)"><path class="a" d="M320,149.394a3.33,3.33,0,0,1-3.331-3.33v-5.084a3.331,3.331,0,0,1,6.661,0v5.084A3.33,3.33,0,0,1,320,149.394Z" transform="translate(-316.667 -137.649)"/></g><g transform="translate(79.126 14.193)"><path class="a" d="M390.087,180.339a3.331,3.331,0,0,1-2.355-5.686l3.595-3.595a3.331,3.331,0,0,1,4.711,4.711l-3.595,3.595a3.32,3.32,0,0,1-2.355.975Z" transform="translate(-386.756 -170.084)"/></g><g transform="translate(91.83 48.457)"><path class="a" d="M424.2,255.05H419.12a3.331,3.331,0,1,1,0-6.661H424.2a3.331,3.331,0,1,1,0,6.661Z" transform="translate(-415.789 -248.389)"/></g><g transform="translate(79.126 79.127)"><path class="a" d="M393.682,328.734a3.323,3.323,0,0,1-2.355-.975l-3.595-3.595a3.331,3.331,0,1,1,4.711-4.711l3.595,3.595a3.331,3.331,0,0,1-2.355,5.686Z" transform="translate(-386.756 -318.479)"/></g><g transform="translate(48.457 91.831)"><path class="a" d="M320,359.256a3.331,3.331,0,0,1-3.331-3.331v-5.083a3.331,3.331,0,0,1,6.661,0v5.083A3.33,3.33,0,0,1,320,359.256Z" transform="translate(-316.667 -347.511)"/></g><g transform="translate(14.192 79.127)"><path class="a" d="M241.693,328.734a3.331,3.331,0,0,1-2.355-5.686l3.595-3.595a3.331,3.331,0,1,1,4.71,4.711l-3.595,3.595A3.32,3.32,0,0,1,241.693,328.734Z" transform="translate(-238.362 -318.479)"/></g><g transform="translate(0 48.457)"><path class="a" d="M214.342,255.05h-5.084a3.331,3.331,0,0,1,0-6.661h5.084a3.331,3.331,0,0,1,0,6.661Z" transform="translate(-205.928 -248.389)"/></g><g transform="translate(14.192 14.193)"><path class="a" d="M245.288,180.339a3.32,3.32,0,0,1-2.355-.975l-3.595-3.595a3.331,3.331,0,0,1,4.71-4.711l3.595,3.595a3.331,3.331,0,0,1-2.355,5.686Z" transform="translate(-238.362 -170.084)"/></g></g><g transform="translate(138.566 50.753)"><path class="a" d="M334.577,218.986H320a3.331,3.331,0,0,1-3.331-3.331V187.6a3.331,3.331,0,0,1,6.661,0v24.728h11.249a3.331,3.331,0,1,1,0,6.662Z" transform="translate(-316.667 -184.266)"/></g></svg>