<svg xmlns="http://www.w3.org/2000/svg" width="31.417" height="25.532" viewBox="0 0 31.417 25.532"><defs><style>.a{fill:#7d3b8a;}</style></defs><path class="a" d="M34.991,13.348a12.825,12.825,0,0,1-3.7,1.015A6.457,6.457,0,0,0,34.123,10.8a12.9,12.9,0,0,1-4.093,1.565,6.451,6.451,0,0,0-10.983,5.879A18.3,18.3,0,0,1,5.761,11.506a6.454,6.454,0,0,0,1.995,8.606,6.427,6.427,0,0,1-2.92-.807c0,.027,0,.054,0,.082a6.451,6.451,0,0,0,5.171,6.32,6.481,6.481,0,0,1-1.7.226A6.386,6.386,0,0,1,7.1,25.816a6.453,6.453,0,0,0,6.021,4.476,13.006,13.006,0,0,1-9.543,2.669,18.24,18.24,0,0,0,9.881,2.9c11.856,0,18.339-9.821,18.339-18.339q0-.419-.018-.835A13.055,13.055,0,0,0,34.991,13.348Z" transform="translate(-3.574 -10.326)"/></svg>