<svg xmlns="http://www.w3.org/2000/svg" width="16.706" height="16.706" viewBox="0 0 16.706 16.706"><defs><style>.a{fill:#7d3b8a;}</style></defs><g transform="translate(0)"><path class="a" d="M46,52.848A6.852,6.852,0,1,0,52.852,46,6.86,6.86,0,0,0,46,52.848Zm13.052,0a6.2,6.2,0,1,1-6.2-6.2A6.206,6.206,0,0,1,59.052,52.848Zm0,0" transform="translate(-44.499 -44.495)"/><path class="a" d="M14.806,6.846a8.377,8.377,0,0,0-4.745-2.874.326.326,0,1,0-.133.639,7.7,7.7,0,1,1-2.954-.038.326.326,0,1,0-.116-.642,8.354,8.354,0,1,0,7.947,2.916Zm0,0" transform="translate(0 -3.797)"/><path class="a" d="M247.62.653h.026a.326.326,0,0,0,0-.653h-.026a.326.326,0,0,0,0,.653Zm0,0" transform="translate(-239.228)"/><path class="a" d="M246.129,85.994a.326.326,0,1,0,.1-.231A.33.33,0,0,0,246.129,85.994Zm0,0" transform="translate(-238.098 -82.873)"/><path class="a" d="M246.2,406.328a.327.327,0,1,0,.231.1A.328.328,0,0,0,246.2,406.328Zm0,0" transform="translate(-237.849 -393.07)"/><path class="a" d="M406.654,246.789a.326.326,0,1,0-.231-.1A.328.328,0,0,0,406.654,246.789Zm0,0" transform="translate(-393.07 -238.106)"/><path class="a" d="M86,245.867a.326.326,0,1,0,.231.1A.328.328,0,0,0,86,245.867Zm0,0" transform="translate(-82.877 -237.845)"/><path class="a" d="M166.275,107.078a.326.326,0,1,0,.231.1A.329.329,0,0,0,166.275,107.078Zm0,0" transform="translate(-160.535 -103.584)"/><path class="a" d="M326.377,384.918a.326.326,0,1,0,.231.1A.329.329,0,0,0,326.377,384.918Zm0,0" transform="translate(-315.413 -372.359)"/><path class="a" d="M385.248,166.6a.327.327,0,1,0-.231-.1A.328.328,0,0,0,385.248,166.6Zm0,0" transform="translate(-372.363 -160.534)"/><path class="a" d="M107.4,326.047a.326.326,0,1,0,.231.1A.329.329,0,0,0,107.4,326.047Zm0,0" transform="translate(-103.584 -315.408)"/><path class="a" d="M107.537,165.719a.327.327,0,1,0,.231.1A.328.328,0,0,0,107.537,165.719Zm0,0" transform="translate(-103.713 -160.312)"/><path class="a" d="M385.115,326.93a.326.326,0,1,0-.231-.1A.329.329,0,0,0,385.115,326.93Zm0,0" transform="translate(-372.234 -315.631)"/><path class="a" d="M326.6,107.86a.326.326,0,1,0-.231-.1A.328.328,0,0,0,326.6,107.86Zm0,0" transform="translate(-315.631 -103.709)"/><path class="a" d="M166.045,384.789a.326.326,0,1,0,.231.1A.327.327,0,0,0,166.045,384.789Zm0,0" transform="translate(-160.312 -372.234)"/><path class="a" d="M195.02,156.825l-2.094,2.094a1.2,1.2,0,0,0-1.181,0l-1-1a.326.326,0,0,0-.462.462l1,1a1.205,1.205,0,1,0,2.1,0l2.1-2.1a.326.326,0,0,0-.462-.462Zm-2.686,3.7a.553.553,0,1,1,.553-.553A.553.553,0,0,1,192.334,160.521Zm0,0" transform="translate(-183.981 -151.615)"/><path class="a" d="M205.841,340h-2.835a.326.326,0,1,0,0,.653h2.835a.326.326,0,1,0,0-.653Zm0,0" transform="translate(-196.067 -328.902)"/></g></svg>